<?xml version="1.0" encoding="utf-8"?>
<!-- Generator: Adobe Illustrator 19.2.1, SVG Export Plug-In . SVG Version: 6.00 Build 0)  -->
<svg version="1.1" id="Capa_1" xmlns="http://www.w3.org/2000/svg" xmlns:xlink="http://www.w3.org/1999/xlink" x="0px" y="0px"
	 viewBox="0 0 100 100" style="enable-background:new 0 0 100 100;" xml:space="preserve">
<style type="text/css">
	.st0{fill:#FFFFFF;}
</style>
<g>
	<path class="st0" d="M0,5.3c0.7-1.7,1.6-3,3.5-3.5c2.2-0.6,4.4,0.4,5.4,2.4c0.3,0.6,0.6,0.7,1.2,0.7c2.1,0,4.2,0,6.2,0
		c0.6,0,0.9-0.1,1.2-0.7c0.9-1.7,2.3-2.6,4.3-2.6c1.9,0,3.3,1,4.1,2.6c0.2,0.5,0.5,0.6,1,0.6c8.5,0,17,0,25.6,0
		c0.5,0,0.9-0.1,1.1-0.7c0.9-1.7,2.3-2.6,4.2-2.6c1.9,0,3.3,0.9,4.1,2.6c0.2,0.5,0.5,0.7,1,0.7c2.2,0,4.4,0,6.5,0
		c0.3,0,0.8-0.3,0.9-0.5c1.2-2.1,3.2-3.1,5.4-2.6c2.2,0.5,3.6,2.3,3.6,4.8c0,8,0,16,0,24c0,0.7,0,1.4,0,1.9c1.5,0.3,2.8,0.4,4.1,0.8
		c1.3,0.5,2.1,1.7,2.5,2.9c1.9,0.2,3.8,0.2,5.6,0.5c5.2,0.9,8.1,4.3,8.2,9.6c0.1,7.8,0.1,15.6,0,23.4c-0.1,6.7-4.3,11.6-10.6,12.8
		c-1.1,0.2-2.3,0.3-3.4,0.3c-7.3,0-14.6,0-22,0c-0.4,0-0.7,0-1.1,0c-0.8,0.1-1.4,0.9-1.5,1.7c0,0.9,0.5,1.6,1.3,1.8
		c0.4,0.1,0.8,0.1,1.3,0.1c3.4,0,6.8-0.1,10.2,0c2.9,0.1,5.2,2.3,5.6,5.1c0.4,3-1.3,5.7-4.1,6.5c-0.7,0.2-1.4,0.3-2.1,0.3
		c-21,0-41.9,0-62.9,0c-3.3,0-5.8-2.2-6.2-5.3c-0.4-2.9,1.5-5.7,4.5-6.5c0.7-0.2,1.4-0.2,2.1-0.2c10.8,0,21.5,0,32.3,0
		c0.4,0,0.8,0,1.2,0c1.1-0.1,1.7-0.9,1.6-1.9c-0.1-1-0.8-1.6-1.8-1.7c-2.4,0-4.9,0-7.3,0c-1.9,0-3.6-0.7-4.8-2.2
		c-1.4-1.8-1.8-3.8-0.9-6c0.8-2.1,2.5-3.4,4.7-3.7c0.5-0.1,1-0.1,1.6-0.1c6.7,0,13.3,0,20,0c1.6,0,2.3,0.5,2.3,1.5
		c0,1-0.7,1.4-2.2,1.4c-6.7,0-13.3,0-20,0c-0.6,0-1.3,0.1-1.9,0.3c-1.4,0.5-2.1,2-1.9,3.4c0.3,1.4,1.5,2.5,3.1,2.5
		c2.5,0,5.1,0,7.6,0c2.2,0,4.2,1.7,4.5,3.9c0.4,2.3-0.9,4.6-3.1,5.3c-0.8,0.3-1.7,0.3-2.5,0.3c-10.8,0-21.6,0-32.4,0
		c-0.6,0-1.2,0-1.7,0.2c-1.3,0.4-2.1,1.8-2,3.1c0.2,1.5,1.3,2.6,2.7,2.8c0.3,0,0.5,0,0.8,0c20.8,0,41.6,0,62.5,0
		c1.8,0,3.1-0.9,3.4-2.4c0.4-2-1-3.7-3.1-3.7c-3.3,0-6.6,0-9.9,0c-0.7,0-1.4,0-2.1-0.2c-2.3-0.7-3.6-2.9-3.3-5.3
		c0.3-2.2,2.3-3.9,4.7-3.9c7.6,0,15.2,0,22.7,0c1.3,0,2.7-0.1,3.9-0.5c4.1-1.2,6.2-4.2,6.9-8.2c0.2-0.9,0.2-1.8,0.2-2.7
		c0-7,0-13.9,0-20.9c0-0.7,0-1.4-0.1-2c-0.5-3.7-2.5-5.6-6.3-6c-1.4-0.1-2.8-0.2-4.4-0.3c0,2.2,0.1,4.3,0,6.3
		c-0.1,1.1-0.4,2.2-0.6,3.3c-0.1,0.4-0.1,0.8-0.1,1.1c0,6.3,0,12.6,0,18.9c0,3.2-1.6,4.8-4.8,4.8c-4.9,0-9.8,0-14.6,0
		c-0.3,0-0.7,0-1,0c-0.8-0.1-1.2-0.6-1.2-1.3c-0.1-0.7,0.3-1.3,1-1.5c0.4-0.1,0.8-0.1,1.3-0.1c4.8,0,9.7,0,14.5,0
		c1.6,0,1.9-0.3,1.9-1.9c0-5.6,0-11.1,0-16.7c0-0.3,0-0.6,0-1c-1,0-2,0.1-3,0.1c0,0.5,0,0.9-0.1,1.3c-0.1,2.2-1.6,4.1-3.7,4.5
		c-2.1,0.5-4.2-0.5-5.2-2.5c-0.2-0.5-0.5-0.6-1-0.6c-2.2,0-4.4,0-6.6,0c-0.3,0-0.7,0.3-0.9,0.5c-0.9,1.7-2.3,2.6-4.2,2.7
		c-2,0-3.4-1-4.3-2.7c-0.2-0.3-0.6-0.5-1-0.5c-2.8,0-5.6,0-8.4,0c-0.3,0-0.5,0-0.8,0c-0.9-0.1-1.5-0.7-1.5-1.5
		c0-0.8,0.6-1.4,1.5-1.4c2.5,0,5.1,0,7.6,0c0.6,0,1.2,0,1.9,0c0-14.4,0-28.8,0-43.3c-8.8,0-17.7,0-26.5,0c0,14.4,0,28.8,0,43.2
		c0.4,0,0.7,0,1.1,0c2.9,0,5.8,0,8.7,0c1.2,0,1.8,0.5,1.8,1.4c0,0.9-0.6,1.5-1.9,1.5c-3.1,0-6.1,0-9.2,0c-0.6,0-0.9,0.2-1.2,0.7
		c-0.9,1.6-2.2,2.5-4.1,2.5c-1.9,0-3.3-0.9-4.2-2.5C17.3,54.2,17,54,16.4,54c-2.1,0-4.3,0-6.4,0c-0.3,0-0.8,0.2-0.9,0.5
		c-1.1,2-2.7,2.9-4.9,2.7c-2.1-0.2-3.4-1.5-4-3.5c0-0.1-0.1-0.2-0.2-0.2C0,37.4,0,21.4,0,5.3z M9.5,7.8c0,14.5,0,28.8,0,43.2
		c2.5,0,5,0,7.4,0c0-14.5,0-28.8,0-43.2C14.4,7.8,12,7.8,9.5,7.8z M62.6,7.8c0,14.4,0,28.8,0,43.2c2.5,0,5,0,7.4,0
		c0-14.5,0-28.8,0-43.2C67.5,7.8,65.1,7.8,62.6,7.8z M2.9,29.5c0,7.4,0,14.8,0,22.3c0,1.8,0.6,2.6,1.8,2.6c1.2,0,1.8-0.8,1.8-2.6
		c0-14.9,0-29.8,0-44.7c0-0.3,0-0.7,0-1C6.4,5.2,5.7,4.5,4.8,4.5C3.9,4.5,3.1,5.1,3,6c-0.1,0.3,0,0.7,0,1.1
		C2.9,14.5,2.9,22,2.9,29.5z M23.5,29.5c0-7.4,0-14.8,0-22.3c0-0.4,0-0.7,0-1.1c-0.1-1-0.8-1.6-1.7-1.7c-0.9,0-1.7,0.7-1.8,1.6
		c0,0.3,0,0.6,0,0.9c0,15,0,29.9,0,44.9c0,0.3,0,0.6,0,0.9c0.1,0.9,0.9,1.6,1.8,1.6c0.9,0,1.6-0.6,1.7-1.6c0-0.4,0-0.7,0-1.1
		C23.5,44.3,23.5,36.9,23.5,29.5z M59.6,29.5c0-7.4,0-14.8,0-22.3c0-0.4,0-0.7,0-1.1c-0.1-1-0.8-1.6-1.7-1.7c-0.9,0-1.7,0.7-1.8,1.6
		c0,0.3,0,0.6,0,0.9c0,15,0,29.9,0,44.9c0,0.3,0,0.6,0,0.9c0.1,1,0.9,1.6,1.8,1.6c0.9,0,1.6-0.6,1.7-1.6c0-0.4,0-0.7,0-1.1
		C59.6,44.3,59.6,36.9,59.6,29.5z M76.6,29.5c0-7.4,0-14.8,0-22.3c0-0.4,0-0.7,0-1.1c-0.1-1-0.8-1.6-1.7-1.7c-0.9,0-1.7,0.7-1.8,1.6
		c0,0.3,0,0.6,0,0.9c0,15,0,29.9,0,44.9c0,0.3,0,0.6,0,0.9c0.1,1,0.9,1.6,1.8,1.6c0.9,0,1.6-0.6,1.7-1.6c0-0.4,0-0.7,0-1.1
		C76.6,44.3,76.6,36.9,76.6,29.5z M79.6,48.3c0.7,0,1.4,0.1,2.1,0c1-0.1,1.7-0.8,1.7-1.9c0-3,0-6,0-9c0-1-0.7-1.7-1.7-1.8
		c-0.7-0.1-1.3,0-2.1,0C79.6,39.9,79.6,44.1,79.6,48.3z"/>
	<path class="st0" d="M36.8,37.2c-4.3-0.1-7.4-3.4-7.4-7.8c0.1-4.5,3.3-7.8,7.6-7.6c1.3,0,2.7,0.4,3.9,1.1c2.8,1.5,5.5,3.3,8.2,5
		c1.4,0.9,1.4,2.4,0,3.3c-2.6,1.7-5.3,3.4-8.1,4.9c-1.3,0.7-2.8,1-4.3,1.4C36.8,37.3,36.8,37.3,36.8,37.2z M46.4,29.4
		c-0.7-0.5-1.2-0.8-1.8-1.2c-1.2-0.8-2.5-1.6-3.8-2.2c-0.9-0.5-1.9-0.9-2.9-1.2c-1.9-0.5-3.8,0.2-4.8,1.7c-1.1,1.7-1.1,4.2,0,5.9
		c1,1.5,3,2.2,4.8,1.7C41.1,33.2,43.7,31.3,46.4,29.4z"/>
	<path class="st0" d="M17.3,82.9c-1.5-0.1-3,0-4.5-0.2c-3-0.5-4.9-3.1-4.8-6.2c0.1-2.9,2.3-5.4,5.3-5.6c2.7-0.2,5.3-0.2,8,0
		c3.2,0.2,5.5,3,5.4,6.1c-0.1,3.2-2.6,5.7-5.8,5.9C19.7,82.8,18.5,82.8,17.3,82.9C17.3,82.8,17.3,82.8,17.3,82.9z M17.2,79.9
		c1.1,0,2.3,0,3.4,0c1.7-0.1,3.1-1.4,3.1-3c0-1.6-1.2-3-2.9-3.1c-2.3-0.1-4.7-0.1-7,0c-1.8,0.1-3,1.4-2.9,3.1c0,1.7,1.4,2.9,3.1,3
		C15.1,79.9,16.2,79.9,17.2,79.9z"/>
</g>
</svg>
