<?xml version="1.0" encoding="utf-8"?>
<!-- Generator: Adobe Illustrator 19.2.1, SVG Export Plug-In . SVG Version: 6.00 Build 0)  -->
<svg version="1.1" id="Capa_1" xmlns="http://www.w3.org/2000/svg" xmlns:xlink="http://www.w3.org/1999/xlink" x="0px" y="0px"
	 viewBox="0 0 100 100" style="enable-background:new 0 0 100 100;" xml:space="preserve">
<style type="text/css">
	.st0{fill:#FFFFFF;}
</style>
<g>
	<path class="st0" d="M57.6,0c1.2,0.4,2.3,1,3.1,2.1c0.7,1,1,2.1,1,3.3c0,0.4,0,0.8,0,1.3c1,0,2,0,3,0c2.6,0,4.6,1.4,5.2,3.8
		c0.6,2.2-0.4,4.4-2.6,5.8c-0.3,0.2-0.5,0.6-0.5,0.9c0,5.3,0,10.6,0,15.9c0,0.3,0.3,0.8,0.6,0.9c1.7,1,2.7,2.4,2.7,4.4
		c0,2-0.9,3.5-2.7,4.4c-0.5,0.3-0.6,0.5-0.6,1c0,1.4,0,2.7,0,4.1c0,2.3-1.6,3.7-4,3.4c-2.5-0.3-4.9-0.7-7.3-1.1c-1.1-0.2-2,0-3,0.6
		c-1.6,1.1-3.2,2-4.8,3.3c1.5-0.2,3.1-0.3,4.6-0.5c2-0.3,3.9-0.1,5.7,0.9c2,1.1,4,2.1,6.1,3.1c1.9,0.9,2.8,2.3,2.7,4.3
		c-0.1,1,0.1,1.7,1.2,2.3c3.1,1.9,2.9,6.6-0.3,8.3c-0.6,0.4-0.8,0.7-0.8,1.4c0,5.1,0,10.2,0,15.3c0,0.6,0.2,1,0.7,1.3
		c2,1.1,3,3.4,2.5,5.5c-0.6,2.2-2.5,3.8-4.9,3.8c-6.1,0-12.2,0-18.4,0c-13.5,0-27,0-40.5,0c-3.6,0-4.8-0.8-6.1-4.1c0-0.7,0-1.3,0-2
		c0.6-1.5,1.5-2.9,3.1-3.6c0.2-0.1,0.2-0.5,0.2-0.7c0-5.3,0-10.6,0-16c0-0.3-0.1-0.7-0.3-0.7c-1.6-0.7-2.5-2-3-3.6c0-0.7,0-1.3,0-2
		c0.5-1.6,1.4-2.9,3-3.6c0.2-0.1,0.3-0.5,0.3-0.7c0-6.5,0-13,0-19.4c0-0.2-0.1-0.6-0.3-0.7c-1.6-0.7-2.5-2.1-3-3.7c0-0.7,0-1.3,0-2
		c0.6-1.6,1.4-2.9,3.1-3.6c0.2-0.1,0.3-0.5,0.3-0.7c0-5.3,0-10.6,0-16c0-0.3-0.1-0.7-0.3-0.7c-1.6-0.7-2.5-2-3.1-3.6
		c0-0.7,0-1.3,0-2c1.3-3.3,2.6-4.1,6.1-4.1c12.5,0,25.1,0,37.6,0c0.4,0,0.8,0,1.2,0c0-0.5,0-0.9,0-1.3c0-1.2,0.3-2.3,1-3.3
		C46.7,1,47.8,0.5,49,0C51.9,0,54.8,0,57.6,0z M63.3,16.7c-18.9,0-37.7,0-56.5,0c0,5.6,0,11.1,0,16.6c18.9,0,37.7,0,56.5,0
		C63.3,27.8,63.3,22.3,63.3,16.7z M6.7,89.9c18.9,0,37.7,0,56.6,0c0-5.6,0-11,0-16.6c-18.9,0-37.7,0-56.6,0
		C6.7,78.9,6.7,84.4,6.7,89.9z M63.3,43.4c-18.9,0-37.7,0-56.5,0c0,6.7,0,13.3,0,19.8c18.9,0,37.7,0,56.5,0c0.2-2.2,0.2-2.2-1.6-3.1
		c-1.8-0.9-3.6-1.7-5.4-2.7c-1.1-0.6-2.2-0.7-3.5-0.6c-2.6,0.3-5.2,0.6-7.9,0.9c-1.5,0.1-2.5-0.6-3-1.8c-0.4-1.3,0-2.5,1.3-3.3
		c2.6-1.7,5.3-3.3,7.9-5c1.2-0.8,2.6-1,4-0.8c1.1,0.1,2.1,0.3,3.2,0.5c1.6,0.2,3.2,0.5,4.9,0.7C63.3,46.4,63.3,44.9,63.3,43.4z
		 M35.1,13.3c9.7,0,19.3,0,29,0c0.3,0,0.7,0,1,0c0.9-0.1,1.5-0.6,1.6-1.5c0.1-0.9-0.5-1.6-1.4-1.8c-0.3,0-0.6,0-1,0
		c-19.5,0-39,0-58.5,0C5.4,10,5,10,4.7,10c-0.8,0.2-1.4,0.9-1.3,1.7c0,0.8,0.7,1.5,1.6,1.6c0.3,0,0.7,0,1,0
		C15.6,13.3,25.3,13.3,35.1,13.3z M35.1,93.3c-9.7,0-19.5,0-29.2,0c-0.3,0-0.7,0-1,0c-0.9,0.1-1.5,0.7-1.6,1.6
		c0,0.8,0.6,1.6,1.4,1.7c0.3,0.1,0.6,0,1,0c19.5,0,39,0,58.5,0c0.3,0,0.7,0,1,0c1-0.1,1.5-0.9,1.4-1.9c-0.1-1-0.8-1.4-2.1-1.4
		C54.7,93.3,44.9,93.3,35.1,93.3z M35.1,36.7c-2.9,0-5.8,0-8.7,0c-7.1,0-14.1,0-21.2,0c-1.1,0-1.8,0.6-1.9,1.6c0,1,0.7,1.7,1.8,1.7
		c0.2,0,0.4,0,0.6,0c19.5,0,39,0,58.6,0c0.4,0,0.7,0,1.1-0.1c0.9-0.2,1.3-0.8,1.3-1.7c0-0.8-0.6-1.4-1.5-1.5c-0.4,0-0.7,0-1.1,0
		C54.4,36.7,44.7,36.7,35.1,36.7z M35,70c9.7,0,19.4,0,29.1,0c0.4,0,0.7,0,1.1,0c0.9-0.1,1.5-0.7,1.5-1.5c0.1-0.9-0.5-1.6-1.4-1.7
		c-0.3-0.1-0.7-0.1-1.1-0.1c-19.5,0-38.9,0-58.4,0c-1.7,0-2.5,0.5-2.5,1.7c0,1.1,0.8,1.7,2.4,1.7C15.5,70,25.2,70,35,70z M58.3,6.6
		c0-0.6,0-1.2,0-1.7c-0.1-1-0.7-1.5-1.7-1.6c-2.2,0-4.4,0-6.6,0c-0.9,0-1.5,0.6-1.6,1.5c-0.1,0.6,0,1.2,0,1.8
		C51.7,6.6,54.9,6.6,58.3,6.6z"/>
	<path class="st0" d="M85.2,74.8c-0.2,3.9-3.1,6.9-6.8,6.9c-3.7,0-6.8-3.1-6.6-6.8c0.1-1.4,0.6-2.7,1-4c0.5-1.6,1.2-3.2,1.7-4.8
		c0.6-1.9,2.4-2.6,4-1.4c2.3,1.7,4.4,3.6,5.5,6.3C84.6,72,84.8,73.4,85.2,74.8z M77.5,67.9c-0.4,1-0.7,1.8-1,2.7
		c-0.5,1.3-1.1,2.6-1.4,3.9c-0.5,1.8,1,3.6,2.8,3.8c2,0.2,3.7-1.1,3.7-3.1C81.7,72,79.8,69.9,77.5,67.9z"/>
	<path class="st0" d="M88,53.3c2.1,0,4.1,0.5,5.8,1.8c3.1,2.2,3.8,6.5,1.4,9.5c-2.3,2.9-6.6,3.3-9.5,0.7c-0.8-0.8-1.5-1.7-2.3-2.5
		c-1-1.2-2-2.5-3.1-3.6c-1.4-1.5-1.1-3.4,0.8-4.3C83.4,53.9,85.6,53.4,88,53.3z M83.7,57.5c1.1,1.4,2,2.7,3,4c0.4,0.5,0.9,1,1.4,1.5
		c1,0.8,2.2,0.9,3.4,0.3c1.1-0.6,1.7-1.5,1.7-2.8c0-1.6-1-2.8-2.9-3.4C88.1,56.3,85.9,56.7,83.7,57.5z"/>
	<path class="st0" d="M93.4,89.9c-3.9,0-6.8-3.2-6.4-7.3c0.2-2,0.8-3.9,1.1-5.9c0.1-0.7,0.1-1.4,0.3-2.1c0.3-1.5,1.8-2.5,3.2-1.8
		c3.8,1.8,6.9,4.3,8.1,8.5C101,85.8,97.9,89.9,93.4,89.9z M91.6,76.4c-0.5,2.3-1,4.4-1.3,6.5c-0.2,1.4,0.3,2.6,1.6,3.3
		c1.1,0.7,2.3,0.6,3.4-0.2c1.2-0.8,1.5-2,1.3-3.4C96,79.7,94,78,91.6,76.4z"/>
</g>
</svg>
