<?xml version="1.0" encoding="utf-8"?>
<!-- Generator: Adobe Illustrator 19.2.1, SVG Export Plug-In . SVG Version: 6.00 Build 0)  -->
<svg version="1.1" id="Capa_1" xmlns="http://www.w3.org/2000/svg" xmlns:xlink="http://www.w3.org/1999/xlink" x="0px" y="0px"
	 viewBox="0 0 100 100" style="enable-background:new 0 0 100 100;" xml:space="preserve">
<style type="text/css">
	.st0{fill:#FFFFFF;}
</style>
<g>
	<path class="st0" d="M0,6.2c0.8-2.1,2.3-2.9,4.5-2.8c2.2,0.1,4.5,0,6.7,0c1.2,0,1.9,0.6,1.8,1.5c0,0.9-0.7,1.4-1.8,1.4
		c-2.4,0-4.8,0-7.1,0c-0.3,0-0.7,0-0.9,0.2C2.8,6.9,3,7.4,3.5,7.6C4.9,8,5.1,8.3,5.1,9.7c0,7.5,0,14.9,0,22.4c0,0.9-0.3,1.6-1.2,2
		C3.5,34.3,3,34.9,3,35.4c0,0.4,0.4,1.1,0.8,1.3c0.9,0.5,1.2,1.1,1.2,2c0,7.6,0,15.1,0,22.7c0,0.9-0.3,1.5-1.1,2
		C3.5,63.5,3,64.2,3,64.6c0,0.5,0.5,1.1,0.9,1.3c0.8,0.5,1.1,1.1,1.1,2c0,7.5,0,15,0,22.6c0,1.1-0.4,1.7-1.5,2
		c-0.2,0.1-0.4,0.4-0.6,0.6c0.2,0.2,0.4,0.4,0.7,0.5c0.2,0.1,0.5,0,0.8,0c19.2,0,38.5,0,57.7,0c0.3,0,0.6,0,0.9,0
		c0.2-0.1,0.5-0.3,0.5-0.5c0-0.2-0.2-0.5-0.3-0.6c-1.1-0.4-1.2-1.2-1.2-2.2c0-7.5,0-14.9,0-22.4c0-0.9,0.2-1.6,1-2.2
		c0.9-0.6,0.8-1.7-0.1-2.3c-0.7-0.5-0.9-1.2-0.9-2c0-7.6,0-15.2,0-22.8c0-0.9,0.2-1.5,1-2.1c0.9-0.6,0.9-1.7,0-2.3
		C62.2,33.7,62,33,62,32.1c0-7.5,0-15,0-22.6c0-0.9,0.2-1.7,1.1-2c0.2-0.1,0.4-0.5,0.4-0.7c-0.1-0.2-0.4-0.4-0.6-0.5
		c-0.3-0.1-0.6,0-0.9,0c-13.9,0-27.8,0-41.7,0c-0.4,0-0.7,0-1.1,0c-0.8-0.1-1.3-0.6-1.3-1.4c0-0.8,0.5-1.3,1.3-1.5
		c0.3-0.1,0.5,0,0.8,0c14.3,0,28.6,0,43,0c1.5,0,2.8,0.8,3.4,2.2c0.6,1.5,0.3,2.8-0.8,4c-0.2,0.2-0.4,0.6-0.4,0.9
		c0,4.9,0,9.8,0,14.7c0,0.1,0,0.1,0.1,0.3c0.3,0,0.7,0,1.1,0c10.1,0,20.2,0,30.4,0c1.4,0,2.5,0.5,3.1,1.8c0.6,1.2,0.3,2.4-0.6,3.4
		c-0.2,0.2-0.3,0.6-0.3,1c0,5,0,10,0,14.9c0,0.4,0.2,0.7,0.4,1c1.1,1.5,1.1,3.1,0,4.6c-0.2,0.3-0.4,0.8-0.4,1.1c0,5.1,0,10.2,0,15.2
		c0,0.4,0.2,0.8,0.4,1.1c1,1.5,1,3.1,0,4.6c-0.2,0.3-0.4,0.8-0.4,1.1c0,4.9,0,9.8,0,14.7c0,0.4,0.2,0.9,0.5,1.3
		c0.7,1,0.9,2.1,0.4,3.2c-0.6,1.1-1.5,1.8-2.8,1.8c-1.9,0-3.8,0-5.7,0c-1.2,0-1.9-0.6-1.8-1.5c0-0.9,0.6-1.4,1.8-1.4
		c1.8,0,3.7,0,5.8,0c-1.2-0.7-1.2-1.6-1.2-2.5c0-5.5,0-10.9,0-16.4c0-0.8,0.1-1.5,0.8-2c0.6-0.4,0.5-0.9,0-1.3
		c-0.6-0.4-0.8-1.1-0.8-1.8c0-5.8,0-11.5,0-17.3c0-0.6,0.4-1.2,0.7-1.7c0.5-0.5,0.5-0.8,0-1.4c-0.4-0.5-0.7-1.1-0.7-1.7
		c-0.1-5.7-0.1-11.5,0-17.2c0-0.7,0.4-1.3,0.7-1.9c-10.3,0-20.9,0-31.5,0c0,1.1,0,2.1,0,3.2c0,0.2,0.2,0.5,0.3,0.7
		c1.6,2,1.6,4.1,0,6.1c-0.2,0.2-0.3,0.4-0.3,0.7c0,3,0,6,0,9.1c0.5,0,0.8,0,1.2,0c7.8,0,15.6,0,23.4,0c0.3,0,0.5,0,0.8,0
		c1.2,0,1.9,0.6,1.9,1.5c0,0.9-0.7,1.5-1.9,1.5c-8,0-16.1,0-24.1,0c-0.4,0-0.8,0-1.3,0c0,1.1,0,2.1,0,3.1c0,1.5,0,3,0,4.5
		c0,1.3,0,2.5,0.9,3.7c1.1,1.3,1,3.1-0.1,4.5c-1,1.2-0.8,2.5-0.8,4c1,0,2,0,2.9,0c0.9,0,1.9,0,2.8,0c1.1,0,1.8,0.6,1.8,1.5
		c0,0.9-0.7,1.5-1.8,1.5c-1.9,0-3.7,0-5.7,0c0,0.4,0,0.7,0,1.1c0,4.7,0,9.4,0,14.2c0,0.5,0.3,1,0.6,1.4c0.4,1,0.9,1.9,1.3,2.8
		c-0.1,0.1-0.2,0.2-0.2,0.2c0.3,0,0.7,0,1,0c4.9,0,9.8,0,14.7,0c0.3,0,0.6,0,0.9,0c0.8,0.1,1.3,0.6,1.3,1.4c0,0.8-0.4,1.3-1.2,1.5
		c-0.4,0.1-0.8,0-1.2,0c-25.9,0-51.7,0-77.6,0c-2.2,0-3.8-0.6-4.6-2.8c0-0.5,0-1,0-1.6c0.6-0.8,1.2-1.6,1.8-2.4
		c0.2-0.2,0.3-0.6,0.3-0.8c0-6.7,0-13.3,0-20c0-0.3-0.1-0.6-0.3-0.9c-0.6-0.9-1.2-1.8-1.8-2.7c0-0.6,0-1.2,0-1.8
		c0.6-0.9,1.2-1.8,1.8-2.7c0.2-0.3,0.3-0.6,0.3-0.9c0-6.8,0-13.6,0-20.4c0-0.3-0.1-0.6-0.3-0.9C1.2,38,0.6,37.1,0,36.2
		c0-0.6,0-1.2,0-1.8c0.6-0.9,1.2-1.8,1.8-2.7c0.1-0.2,0.3-0.5,0.3-0.8c0-6.7,0-13.5,0-20.2c0-0.3-0.1-0.5-0.3-0.8
		C1.2,9.3,0.6,8.5,0,7.7C0,7.2,0,6.7,0,6.2z"/>
	<path class="st0" d="M49.1,36.4c1.9,2.4,3.3,4.8,4.1,7.5c0.3,1.2,0.6,2.4,0.7,3.6c0.2,1.1-0.4,1.8-1.3,1.9
		c-0.9,0.1-1.5-0.5-1.7-1.6c-0.9-6.2-4-10.9-9.5-13.7c-6.7-3.4-13.3-2.8-19.1,1.8c-5.9,4.7-8.1,11-6.2,18.4
		c1.8,7.2,6.7,11.7,14,13.1c9,1.8,17.8-3.7,20.4-12.5c0.1-0.2,0.1-0.4,0.2-0.6c0.3-0.9,1.1-1.4,1.9-1.1c0.8,0.2,1.2,1,1,1.9
		c-0.7,2.7-1.9,5.2-3.7,7.5c-0.2,0.2-0.3,0.5-0.6,0.8c2,0,3.8,0,5.6,0c0.9,0,1.5,0.3,1.7,1.2c0.2,1-0.5,1.7-1.7,1.8
		c-2.6,0-5.3,0-7.9,0c-0.5,0-1.1,0.2-1.5,0.5C38,72.1,28.5,72.1,21.2,67c-0.4-0.3-0.9-0.4-1.3-0.4c-2.6,0-5.3,0-7.9,0
		c-1.2,0-1.9-0.6-1.8-1.5c0-0.9,0.7-1.4,1.8-1.4c1.8,0,3.5,0,5.4,0c-6.5-9-6.5-18,0-27.1c-1.2,0-2.3,0-3.5,0c-0.7,0-1.4,0-2.1,0
		c-1,0-1.6-0.6-1.6-1.5c0-0.8,0.6-1.4,1.6-1.4c2.7,0,5.4,0,8.1,0c0.4,0,1-0.2,1.3-0.4c7.4-5.2,16.8-5.2,24.1,0
		c0.4,0.3,0.9,0.4,1.4,0.4c2.6,0,5.2,0,7.8,0c1.2,0,1.9,0.6,1.9,1.5c0,0.9-0.7,1.4-1.8,1.4C52.8,36.4,51.1,36.4,49.1,36.4z"/>
	<path class="st0" d="M24.5,48.6c1.1,0,2.1,0,3.2,0c0.5,0,0.7-0.3,1-0.6c1-1.1,0.5-2-0.1-3.1c-0.9-1.4-1.7-3-2.6-4.5
		c-0.8-1.4-0.5-2.5,1-3.2c4.2-2,8.4-2,12.6,0c1.5,0.7,1.8,1.8,1,3.2c-1,1.8-2.1,3.6-3.1,5.4c-0.3,0.5-0.2,0.8,0,1.4
		c0.5,1.3,1.4,1.5,2.7,1.4c1.7-0.1,3.4,0,5.2,0c1.7,0,2.5,0.9,2.3,2.6c-0.5,4.5-2.5,8.1-6.2,10.7c-1.4,1-2.5,0.8-3.4-0.7
		c-1.1-1.8-2.1-3.7-3.2-5.5c-0.2-0.3-0.6-0.4-1-0.5c-1.4-0.4-2.1,0.4-2.7,1.6c-0.7,1.5-1.7,2.9-2.5,4.4c-0.9,1.5-1.9,1.7-3.3,0.8
		c-3.8-2.7-5.9-6.4-6.3-11c-0.1-1.4,0.7-2.2,2.1-2.3c0.1,0,0.1,0,0.2,0C22.3,48.6,23.4,48.6,24.5,48.6z M29,39.6
		c0.8,1.3,1.6,2.5,2.1,3.8c0.6,1.4,1.5,1.9,2.9,1.6c0.2,0,0.6-0.2,0.7-0.4c1-1.6,1.9-3.3,2.9-5C34.7,38.5,31.9,38.5,29,39.6z
		 M44.5,51.6c-1.5,0-2.9,0.1-4.2,0c-1.5-0.2-2.5,0.2-3,1.7c-0.1,0.2-0.2,0.5-0.1,0.7c1,1.7,2,3.4,3,5.2
		C42.6,57.1,44.1,54.7,44.5,51.6z M26.4,59.1c1-1.8,2-3.5,3-5.1c0.1-0.1,0.1-0.4,0.1-0.5c-0.5-1.4-1.1-1.8-2.7-1.8
		c-0.3,0-0.5,0-0.8,0c-1.3,0-2.6,0-3.9,0C22.5,54.7,23.9,57.1,26.4,59.1z M35.4,49.9c0-1.1-1-2-2.1-2c-1.1,0-2.1,1.1-2,2.3
		c0,1.1,1,2,2.1,2C34.4,52.2,35.4,51.1,35.4,49.9z"/>
	<path class="st0" d="M84,70.9c2.2,0,4.4,0,6.5,0c1.1,0,1.8,0.6,1.8,1.5c0,0.9-0.7,1.5-1.8,1.5c-4.3,0-8.6,0-13,0
		c-1.2,0-1.8-0.5-1.8-1.5c0-0.9,0.6-1.5,1.7-1.5C79.6,70.9,81.8,70.9,84,70.9z"/>
</g>
</svg>
