<?xml version="1.0" encoding="utf-8"?>
<!-- Generator: Adobe Illustrator 19.2.1, SVG Export Plug-In . SVG Version: 6.00 Build 0)  -->
<svg version="1.1" id="Capa_1" xmlns="http://www.w3.org/2000/svg" xmlns:xlink="http://www.w3.org/1999/xlink" x="0px" y="0px"
	 viewBox="0 0 100 100" style="enable-background:new 0 0 100 100;" xml:space="preserve">
<style type="text/css">
	.st0{fill:#FFFFFF;}
</style>
<g>
	<path class="st0" d="M0,9.8c0.1-0.3,0.2-0.6,0.3-0.9c0.9-2.8,3.4-4.7,6.4-4.8c11.5,0,22.9,0,34.4,0c1.3,0,2.1,0.8,2.1,1.9
		c0,1.2-0.8,2-2.3,2C29.8,8,18.7,8,7.5,8C5,8,3.9,9.1,3.9,11.6c0,16,0,32,0,47.9c0,0.4,0,0.7,0,1.1c30.7,0,61.4,0,92.2,0
		c0-0.3,0-0.7,0-1c0-16,0-32.1,0-48.1C96.1,9.1,95,8,92.6,8c-11,0-21.9,0-32.9,0c-0.3,0-0.7,0-1,0c-1-0.1-1.8-1-1.8-2
		c0-1,0.8-1.8,1.8-1.9c0.3,0,0.7,0,1,0c11,0,21.9,0,32.9,0c4.6,0,7.4,2.8,7.4,7.5c0,19.1,0,38.2,0,57.3c0,4.7-2.8,7.5-7.5,7.5
		c-10.2,0-20.3,0-30.5,0c-0.4,0-0.8,0-1.2,0c0,2.3,0,4.5,0,6.8c1.9,0,3.8,0,5.7,0c3.5,0,6.4,2.4,6.8,5.9c0.2,1.7,0.1,3.4,0.1,5.1
		c0,0.9-0.8,1.6-1.7,1.7c-0.3,0-0.7,0-1,0c-13.8,0-27.6,0-41.4,0c-2.2,0-2.7-0.6-2.7-2.7c0-1.5-0.1-2.9,0.2-4.4
		c0.5-3.3,3.3-5.6,6.7-5.6c1.9,0,3.8,0,5.8,0c0-2.3,0-4.5,0-6.8c-0.4,0-0.8,0-1.1,0c-10.2,0-20.3,0-30.5,0c-4,0-6.3-1.7-7.5-5.5
		c0-0.1-0.1-0.1-0.1-0.1C0,50.4,0,30.1,0,9.8z M3.9,64.7c0,1.4,0,2.8,0,4.1c0,2.7,1,3.7,3.7,3.7c28.2,0,56.5,0,84.7,0
		c0.3,0,0.6,0,0.9,0c1.4-0.1,2.7-1,2.8-2.4c0.1-1.8,0-3.6,0-5.4C65.3,64.7,34.7,64.7,3.9,64.7z M30.5,91.9c13.1,0,26,0,39,0
		c0-0.4,0-0.8,0-1.1c0-2.7-1-3.7-3.7-3.7c-3.6,0-7.2,0-10.7,0c-1.3,0-2.1-0.8-2.2-1.9c0-1.2,0.9-2,2.2-2c0.5,0,1.1,0,1.7,0
		c0-2.3,0-4.5,0-6.8c-4.6,0-9.1,0-13.6,0c0,2.3,0,4.5,0,6.8c0.7,0,1.4,0,2.1,0c1,0.1,1.8,0.9,1.8,1.9c0,1-0.7,1.9-1.8,2
		c-0.3,0-0.6,0-0.9,0c-3.6,0-7.2,0-10.8,0c-1.6,0-2.9,1-3.1,2.6C30.4,90.4,30.5,91.2,30.5,91.9z"/>
	<path class="st0" d="M84.6,16.2c-0.3-0.3-0.6-0.5-0.7-0.7c-0.6-0.7-0.7-1.7-0.1-2.4c0.6-0.8,1.6-1.1,2.4-0.6
		c1.8,1.2,3.6,2.5,5.4,3.9c0.9,0.7,0.9,1.9,0,2.7c-1.7,1.6-3.4,3.1-5.1,4.5c-0.8,0.7-1.8,0.5-2.5-0.2c-0.7-0.7-0.8-1.7-0.2-2.6
		c0.1-0.2,0.2-0.3,0.5-0.6c-1.5,0.1-2.9,0.2-4.3,0.3c-6.7,0.6-13.5,1.1-20.2,1.7c-5.8,0.5-11.6,1-17.4,1.5c-0.3,0-0.6,0.1-1,0.1
		c-1.1,0-2-0.8-2-1.9c-0.1-1,0.7-1.9,1.8-2c3.1-0.3,6.2-0.5,9.2-0.8c5.9-0.5,11.8-1,17.7-1.5c5-0.4,10-0.8,15.1-1.3
		C83.7,16.4,84.1,16.3,84.6,16.2z"/>
	<path class="st0" d="M68.8,47.3c-5.4,0-9.8-4.4-9.8-9.7c0-5.4,4.4-9.8,9.8-9.8c5.4,0,9.7,4.4,9.7,9.8
		C78.5,42.9,74.1,47.2,68.8,47.3z M68.8,31.6c-3.2,0-5.9,2.6-5.9,5.8c0,3.2,2.6,5.9,5.8,5.9c3.3,0,5.9-2.6,5.9-5.8
		C74.6,34.3,72,31.7,68.8,31.6z"/>
	<path class="st0" d="M35.5,34.4c0,6.6,0,13.2,0,19.8c0,0.3,0,0.7,0,1c-0.1,0.9-1,1.6-1.9,1.7c-1,0-1.8-0.7-2-1.7c0-0.3,0-0.6,0-1
		c0-13.2,0-26.4,0-39.6c0-0.3,0-0.5,0-0.8c0.1-1.1,0.9-1.8,1.9-1.8c1,0,1.9,0.8,2,1.9c0,0.3,0,0.6,0,0.9
		C35.5,21.2,35.5,27.8,35.5,34.4z"/>
	<path class="st0" d="M39.5,38.1c0-6.1,4.3-10.5,9.5-10.3c1.7,0.1,3.2,0.6,4.6,1.6c1,0.7,1.2,1.8,0.6,2.7c-0.6,0.9-1.7,1.2-2.7,0.5
		c-1.9-1.2-3.9-1.4-5.7,0c-2,1.5-2.7,3.6-2.3,6c0.4,2.3,1.7,4,4.1,4.6c1.5,0.4,2.9,0,4-1.2c0.9-1,2-1.1,2.8-0.4
		c0.9,0.7,0.9,1.9,0.1,2.9c-2.2,2.8-6.3,3.6-9.7,1.9C41.2,44.5,39.6,41.4,39.5,38.1z"/>
	<path class="st0" d="M87.6,52.9c0.6,0,1.5,0,2.4,0c1.3,0,2.1,0.8,2.1,2c0,1.1-0.9,1.9-2.1,1.9c-2.5,0-4.9,0-7.4,0
		c-1,0-1.7-0.4-2.1-1.3c-0.3-0.9,0-1.7,0.7-2.3c1.4-1.3,2.9-2.5,4.3-3.8c0.7-0.7,1.4-1.4,2.1-2.2c0.5-0.6,0.7-1.2,0.3-2
		c-0.4-0.7-1-1.1-1.9-1c-0.8,0.1-1.4,0.5-1.7,1.3c-0.1,0.2-0.1,0.4-0.1,0.7c-0.2,1.2-1,2-2.1,1.9c-1.1-0.1-1.9-1-1.8-2.2
		c0.1-3.1,2.8-5.6,6-5.6c3.1,0.1,5.8,2.7,5.7,5.8c-0.1,1-0.6,2.1-1.2,3C89.9,50.6,88.7,51.8,87.6,52.9z"/>
	<path class="st0" d="M13.5,28.5c1.1,0,2.3,0,3.4,0c1.2,0,2.1,0.9,2.1,2c0,1.1-0.9,1.9-2,1.9c-2.3,0-4.7,0-7,0c-1.2,0-2.1-0.9-2.1-2
		c0-1.1,0.9-1.9,2.1-1.9C11.1,28.5,12.3,28.5,13.5,28.5z"/>
	<path class="st0" d="M22.2,40.2c-1.1,0-2.3,0-3.4,0c-1.3,0-2.2-0.8-2.2-2c0-1.1,0.9-1.9,2.2-1.9c2.3,0,4.5,0,6.8,0
		c1.3,0,2.1,0.8,2.2,1.9c0,1.1-0.9,2-2.2,2C24.4,40.2,23.3,40.2,22.2,40.2z"/>
	<path class="st0" d="M22.4,20.7c1.1,0,2.2,0,3.3,0c1.2,0,2,0.8,2,1.9c0,1.1-0.8,2-2.1,2c-2.2,0-4.4,0-6.6,0c-1.2,0-2-0.8-2-1.9
		c0-1.1,0.8-2,2.1-2C20.2,20.7,21.3,20.7,22.4,20.7z"/>
	<path class="st0" d="M11.6,16.8c-0.6,0-1.2,0-1.8,0c-1.1-0.1-1.9-0.9-1.9-1.9c0-1,0.8-1.9,1.9-1.9c1.3,0,2.5,0,3.8,0
		c1.1,0,1.9,0.9,1.9,1.9c0,1-0.8,1.9-1.9,1.9C12.9,16.8,12.2,16.8,11.6,16.8z"/>
	<path class="st0" d="M11.7,44.1c0.6,0,1.2,0,1.8,0c1.1,0.1,1.9,0.9,1.9,2c0,1-0.8,1.9-1.8,1.9c-1.3,0.1-2.6,0.1-3.9,0
		c-1.1,0-1.9-0.9-1.9-2c0-1,0.8-1.9,1.9-1.9C10.4,44.1,11.1,44.1,11.7,44.1C11.7,44.1,11.7,44.1,11.7,44.1z"/>
	<path class="st0" d="M11.6,55.9c-0.6,0-1.2,0-1.8,0c-1.1-0.1-1.9-0.9-1.9-1.9c0-1,0.8-1.9,1.9-1.9c1.3,0,2.5,0,3.8,0
		c1.1,0,1.9,0.9,1.9,1.9c0,1-0.8,1.9-1.9,1.9C12.9,55.9,12.2,55.9,11.6,55.9z"/>
	<path class="st0" d="M24,16.8c-0.6,0-1.2,0-1.8,0c-1-0.1-1.8-0.9-1.8-1.9c0-1,0.8-1.9,1.8-1.9c1.3-0.1,2.5-0.1,3.8,0
		c1,0,1.8,0.9,1.8,1.9c0,1-0.8,1.9-1.8,1.9C25.3,16.8,24.6,16.8,24,16.8z"/>
	<path class="st0" d="M24,48c-0.6,0-1.1,0-1.7,0c-1.2-0.1-2-0.9-2-2c0-1,0.8-1.9,1.9-1.9c1.2,0,2.4,0,3.6,0c1.1,0,1.9,0.9,1.9,2
		c0,1-0.8,1.9-1.9,1.9C25.2,48.1,24.6,48,24,48z"/>
	<path class="st0" d="M24,55.9c-0.6,0-1.2,0-1.8,0c-1.1-0.1-1.8-0.9-1.8-1.9c0-1,0.8-1.9,1.9-2c1.2,0,2.5,0,3.7,0
		c1.1,0,1.8,0.9,1.8,1.9c0,1-0.8,1.9-1.9,2C25.2,55.9,24.6,55.9,24,55.9z"/>
	<path class="st0" d="M25.7,28.5c1,0,1.9,0.8,2,1.9c0.1,1.1-0.8,2-1.9,2c-1.1,0-2-0.9-2-2C23.8,29.4,24.7,28.5,25.7,28.5z"/>
	<path class="st0" d="M9.7,40.2c-1.1,0-2-1-1.9-2c0.1-1,1-1.9,2-1.9c1.1,0,2,1,1.9,2C11.7,39.4,10.8,40.3,9.7,40.2z"/>
	<path class="st0" d="M52,6c0,1.1-0.8,1.9-1.9,2c-1.1,0-2-0.9-2-2c0-1,0.9-1.9,1.9-1.9C51.1,4.1,52,4.9,52,6z"/>
</g>
</svg>
