<?xml version="1.0" encoding="utf-8"?>
<!-- Generator: Adobe Illustrator 19.2.1, SVG Export Plug-In . SVG Version: 6.00 Build 0)  -->
<svg version="1.1" id="Capa_1" xmlns="http://www.w3.org/2000/svg" xmlns:xlink="http://www.w3.org/1999/xlink" x="0px" y="0px"
	 viewBox="0 0 100 100" style="enable-background:new 0 0 100 100;" xml:space="preserve">
<style type="text/css">
	.st0{fill:#FFFFFF;}
</style>
<g>
	<path class="st0" d="M0,31.1c0.6-0.8,1.4-1.1,2.3-1.1c6.7-0.4,13.4-0.8,20.2-1.2c1.7-0.1,3.4-0.2,5.2-0.3c1.4-0.1,1.8,0.2,2.4,1.4
		c3.2,6.9,6.4,13.9,9.6,20.8c0.4,0.8,0.5,1.6-0.1,2.3c-0.7,0.7-1.4,0.6-2.3,0.3c-2.1-0.8-4.2-1.6-6.4-2.5c-2.7,4.7-5.5,9.5-8.3,14.4
		c0.5,0,0.8,0,1.2,0c3.6,0,7.2,0,10.7,0c1.7,0,2.2,0.6,2.2,2.2c0,7.4,0,14.8,0,22.2c0,1.7-0.6,2.3-2.2,2.2c-2.7,0-5.4,0.1-8.1-0.2
		c-3.8-0.5-6.7-2.7-8.6-6C13.1,77.3,8.4,69.2,3.7,61c-2.1-3.7-2.2-7.6-0.4-11.4c1.8-3.8,3.8-7.6,5.7-11.4c-1.8-1.1-3.5-2.2-5.3-3.3
		c-0.8-0.5-1.6-0.9-2.4-1.5C0.8,33,0.4,32.5,0,32C0,31.7,0,31.4,0,31.1z M7.4,33c0,0.1,0,0.1,0,0.2c1.4,0.9,2.8,1.7,4.1,2.6
		c1.6,1,1.7,1.5,0.9,3.2c-2,4-3.9,7.9-5.9,11.9c-1.5,3-1.4,5.9,0.3,8.8c2.3,4,4.7,8,7,12.1c0.2,0.3,0.3,0.5,0.6,0.9
		c0.3-0.5,0.5-0.8,0.7-1.2c4.4-7.7,8.9-15.4,13.3-23.1c0.9-1.6,1.4-1.8,3.1-1.1c0.9,0.4,1.9,0.7,2.8,1.1c0.2,0.1,0.5,0.1,0.8,0.2
		c-2.5-5.5-5-10.9-7.5-16.2c-0.1-0.3-0.7-0.5-1-0.4c-3.7,0.2-7.3,0.4-11,0.6C12.8,32.6,10.1,32.8,7.4,33z M33.3,88.2
		c0-6.6,0-13.2,0-19.8c-4,0-7.9,0-11.9,0c-0.3,0-0.6,0.3-0.8,0.5c-1.4,2.2-2.7,4.4-4.1,6.7c-0.2,0.3-0.1,0.8,0,1
		c1.4,2.5,2.8,4.9,4.2,7.3c1.4,2.3,3.4,3.9,6,4.2C28.9,88.3,31.1,88.2,33.3,88.2z"/>
	<path class="st0" d="M61.7,63.3c5.2,0,10.2,0,15.4,0c-0.2-0.4-0.3-0.7-0.5-1c-2-3.6-4-7.3-6.1-10.9c-0.9-1.6-0.7-2.3,0.9-3.2
		c6.3-3.7,12.5-7.3,18.8-11c1.6-1,2.4-0.7,3.3,1c1.7,3.5,3.5,7,5.2,10.5c1.9,4,1.7,7.9-0.5,11.6c-5.1,8.7-10.2,17.4-15.4,26
		c-2,3.4-5,5.2-9,5.3c-3.6,0.1-7.3,0-10.9,0c-0.4,0-0.7,0-1.2,0c0,1.3,0,2.5,0,3.8c0,0.5,0.1,1-0.1,1.3c-0.3,0.5-0.6,1.2-1.1,1.4
		c-0.6,0.3-1.3,0-1.8-0.5c-0.9-1.1-1.8-2.3-2.7-3.5c-4.5-5.9-9.1-11.8-13.6-17.7c-0.9-1.2-0.9-1.8,0.1-2.9
		C47.7,67.7,53,61.9,58.3,56c0.1-0.1,0.2-0.2,0.3-0.4c0.5-0.6,1.2-0.8,1.9-0.5c0.8,0.3,1.1,0.9,1.1,1.7c0,1.5,0,3,0,4.5
		C61.7,61.9,61.7,62.6,61.7,63.3z M45.5,75.1c4.3,5.5,8.4,11,12.8,16.6c0-0.4,0.1-0.6,0.1-0.8c0.1-2.3,0.4-2.6,2.7-2.6
		c4.1,0,8.2,0,12.3,0c3,0,5.2-1.3,6.7-3.9c3.3-5.6,6.5-11.2,9.8-16.8c0.2-0.3,0.3-0.6,0.5-1c-0.5,0-0.8,0-1.2,0
		c-9.5,0-19.1,0-28.6,0c-1.7,0-2.2-0.5-2.2-2.2c0-1.1,0-2.1,0-3.2c-0.1,0-0.1-0.1-0.2-0.1C53.9,65.8,49.7,70.4,45.5,75.1z
		 M90.9,40.7c-5.7,3.3-11.3,6.6-17,9.9c0.1,0.2,0.1,0.3,0.1,0.4c2.2,4,4.4,7.9,6.6,11.8c0.1,0.3,0.6,0.5,0.9,0.5c3.4,0,6.8,0,10.2,0
		c0.3,0,0.8-0.2,0.9-0.5c1-1.5,1.9-3,2.8-4.6c1.5-2.6,1.6-5.3,0.2-8c-0.8-1.6-1.6-3.3-2.4-4.9C92.5,43.8,91.7,42.3,90.9,40.7z"/>
	<path class="st0" d="M82.1,17.1c2.1-1.1,4.2-2.1,6.3-3.2c0.3-0.1,0.6-0.3,0.9-0.4c0.7-0.3,1.3-0.2,1.9,0.3c0.6,0.5,0.6,1.2,0.3,1.9
		c-0.2,0.4-0.4,0.9-0.6,1.3c-3.6,7.5-7.2,15-10.9,22.5c-0.7,1.5-1.1,1.7-2.7,1.5c-7.7-0.9-15.4-1.7-23.2-2.6c-0.3,0-0.5-0.1-0.8-0.1
		c-0.8-0.1-1.4-0.5-1.6-1.3c-0.2-0.9,0.2-1.5,0.9-2c1.9-1.1,3.8-2.3,5.8-3.5c0.3-0.2,0.6-0.4,1-0.6c-2.5-4.8-5-9.5-7.6-14.4
		c-0.2,0.4-0.4,0.7-0.6,1c-2,3.7-4.1,7.3-6.1,11c-0.9,1.6-1.7,1.8-3.2,0.8c-5.7-3.6-11.5-7.3-17.2-10.9c-1.5-1-1.7-1.7-0.8-3.2
		c1.5-2.5,3.1-5,4.7-7.6c2.4-3.8,5.7-5.9,10.2-6c9.6-0.1,19.1-0.1,28.7,0.1c3.6,0,6.5,1.9,8.4,4.9c2,3.1,3.7,6.3,5.6,9.5
		C81.7,16.5,81.9,16.8,82.1,17.1z M58.5,35.5c0.6,0.1,1,0.2,1.3,0.2c5.5,0.6,11,1.2,16.5,1.9c0.7,0.1,1-0.1,1.3-0.7
		c2.8-5.7,5.5-11.5,8.3-17.2c0.1-0.2,0.2-0.5,0.4-0.9c-1.3,0.7-2.4,1.2-3.5,1.8c-1.5,0.8-2.2,0.6-3-0.9c-2-3.4-4-6.8-6-10.3
		C72,6.4,69.5,5,66.1,5c-5.1,0-10.3,0-15.4,0c-0.3,0-0.7,0-1.1,0.1c0.2,0.4,0.4,0.8,0.5,1.1c4.3,8,8.5,16.1,12.8,24.1
		c0.8,1.6,0.6,2.2-0.9,3.1C60.9,34.1,59.8,34.7,58.5,35.5z M42.7,26c2.3-4.2,4.6-8.3,6.8-12.4c0.1-0.2,0-0.6-0.1-0.9
		c-1.2-2.4-2.3-4.8-3.6-7.1c-0.1-0.3-0.6-0.6-0.9-0.6c-2.2,0-4.4-0.1-6.6,0c-2.5,0.1-4.7,1.1-6.1,3.1c-1.8,2.5-3.4,5.2-5.1,7.9
		C32.4,19.4,37.5,22.7,42.7,26z"/>
</g>
</svg>
