<?xml version="1.0" encoding="utf-8"?>
<!-- Generator: Adobe Illustrator 19.2.1, SVG Export Plug-In . SVG Version: 6.00 Build 0)  -->
<svg version="1.1" id="Capa_1" xmlns="http://www.w3.org/2000/svg" xmlns:xlink="http://www.w3.org/1999/xlink" x="0px" y="0px"
	 viewBox="0 0 100 100" style="enable-background:new 0 0 100 100;" xml:space="preserve">
<style type="text/css">
	.st0{fill:#FFFFFF;}
</style>
<g>
	<path class="st0" d="M20,33.3c1.6,0,3,0,4.5,0c1.6,0,2.2,0.6,2.2,2.2c0,2.6,0,5.1,0,7.8c1.1,0,2.2,0,3.1,0c0.3-1,0.3-2.1,0.8-2.7
		c0.5-0.6,1.7-0.5,2.8-0.8c0-0.9,0.1-2.1,0-3.3c-0.4-3.6,0.5-6.8,2.3-9.9c1-1.7,1.8-3.5,2.7-5.3c0.6-1.2,1.5-1.6,2.4-1.1
		c1,0.5,1.2,1.4,0.6,2.6c-1.2,2.4-2.3,4.7-3.6,7.2c9.3,0,18.5,0,27.8,0c-0.1-0.3-0.2-0.5-0.3-0.8c-1.9-3.9-3.9-7.8-5.8-11.7
		c-0.3-0.6-0.6-0.8-1.3-0.8c-5.8,0-11.5,0-17.3,0c-0.3,0-0.6,0-0.9,0c-1-0.1-1.6-0.7-1.6-1.7c0-0.9,0.6-1.6,1.6-1.6
		c1.2,0,2.4,0,3.5,0c6.6,0,13.1,0,19.7,0c1.2,0,1.9,0.6,1.9,1.6c0,1-0.6,1.6-1.8,1.7c-0.1,0-0.3,0-0.5,0.1c0.2,0.4,0.3,0.7,0.5,1.1
		c2.1,4.2,4.2,8.3,6.2,12.5c0.3,0.7,0.5,1.4,0.5,2.2c0.1,2.5,0,5,0,7.5c3.1,0.4,3.1,0.4,3.4,3.4c1,0,2.1,0,3.3,0c0-2.5,0-5,0-7.5
		c0-2,0.5-2.4,2.5-2.4c1.8,0,3.7,0,5.5,0c1.4,0,2,0.6,2,2c0,2.6,0,5.2,0,7.9c1.1,0,2.2,0,3.1,0c0.4-0.6,0.7-1.1,1.1-1.6
		c1.9-2.4,3.9-4.9,5.8-7.3c0.6-0.7,1.2-1.2,2.1-0.8c0.9,0.3,1.1,1.1,1.1,2c0,6.4,0,12.7,0,19.1c0,0.9-0.2,1.7-1.1,2
		c-1,0.3-1.6-0.2-2.1-0.9c-2-2.5-4-5-6-7.6c-0.3-0.4-0.6-0.9-0.9-1.4c-1,0-2,0-3.2,0c0,0.5,0,0.9,0,1.4c0,3.4,0,6.8,0,10.2
		c0,1.5-0.6,2.2-1.7,2.2c-1.1,0-1.6-0.7-1.6-2.2c0-6.8,0-13.6,0-20.4c0-0.4,0-0.8,0-1.2c-1.1,0-2.1,0-3.2,0c0,8.8,0,17.7,0,26.7
		c4.4-0.4,8.1,1,10.8,4.6c1.9,2.5,2.8,5.4,2.3,8.5c-1.1,6.9-7.3,11.3-13.9,10c-6.1-1.3-11.6-8.2-8.3-16.4c-16.2,0-32.4,0-48.7,0
		c0.3,1.1,0.6,2.1,1,3.3c0.3,0,0.7,0,1.1,0c13.2,0,26.4,0,39.6,0c0.3,0,0.7,0,1,0c1,0.1,1.6,0.7,1.6,1.7c0,0.9-0.6,1.5-1.6,1.6
		c-0.3,0-0.7,0-1,0c-13.2,0-26.4,0-39.6,0c-0.4,0-0.8,0-1.3,0c-0.8,3.9-2.8,6.9-6.2,8.7c-7.5,3.9-16.8-1.5-16.9-9.9
		C-0.1,62,0,48.6,0.1,35.2c0-0.5,0.3-1.2,0.7-1.6c2.1-2.2,4.2-4.3,6.3-6.3c0.4-0.4,1-0.6,1.6-0.6c3.2-0.1,6.3,0,9.5,0
		c1.3,0,1.9,0.6,1.9,1.9C20,30.1,20,31.6,20,33.3z M70,50.1c0,0.7,0,1.4,0,2c-0.2,6-5.2,11-11.2,11.2c-4.8,0.1-9.6,0.1-14.4,0
		c-4.5-0.1-8.7-3.2-10.3-7.4c-0.4-1.2-0.2-2,0.9-2.4c1-0.4,1.7,0,2.2,1.1c1.6,3.7,4.4,5.4,8.3,5.4c4.1,0,8.2,0,12.3,0
		c0.8,0,1.6-0.1,2.4-0.2c4.3-0.9,7.4-5.6,6.3-9.8c-0.4,0-0.8,0-1.2,0c-10.9,0-21.7,0-32.6,0c-0.3,0-0.6,0-0.9,0
		c-1-0.1-1.7-0.7-1.7-1.7c0-0.5,0-1,0-1.6c-1.2,0-2.2,0-3.3,0c0,6.7,0,13.3,0,19.9c0.5,0,0.9,0,1.3,0c14.4,0,28.7,0,43.1,0
		c1.4,0,2.8,0,3.8-1.2c0.2-0.2,0.5-0.4,0.8-0.5c0.8-0.3,0.9-0.9,0.9-1.7c0-5.1,0-10.3,0-15.4c0-0.4,0-0.7,0-1.2c-1.2,0-2.2,0-3.2,0
		C73.1,49.7,73.1,49.7,70,50.1z M3.4,66.8C3.8,66.4,4,66.2,4.3,66c4.2-3.5,10.2-3.7,14.4-0.3c1.6,1.3,3.1,0.7,4.6,0.9
		c0-10.1,0-20,0-29.9c-1.1,0-2.2,0-3.3,0c0,0.5,0,0.8,0,1.2c0,6.6,0,13.1,0,19.7c0,0.3,0,0.7,0,1c-0.2,0.8-0.7,1.3-1.5,1.3
		c-0.9,0-1.5-0.4-1.7-1.2c-0.1-0.4-0.1-0.8-0.1-1.1c0-8.8,0-17.6,0-26.3c0-0.4,0-0.8,0-1.3c-2.5,0-4.9,0-7.3,0
		c-0.3,0-0.6,0.3-0.8,0.5C7,32,5.6,33.5,4,35c-0.5,0.5-0.7,1-0.7,1.7c0,9.6,0,19.2,0,28.8C3.4,65.9,3.4,66.2,3.4,66.8z M36.7,39.9
		c10,0,20,0,29.9,0c0-2.2,0-4.4,0-6.5c-10,0-19.9,0-29.9,0C36.7,35.6,36.7,37.7,36.7,39.9z M81.6,66.7c-4.6,0-8.3,3.7-8.3,8.4
		c0,4.6,3.8,8.3,8.4,8.3c4.6,0,8.3-3.8,8.3-8.4C90,70.4,86.2,66.7,81.6,66.7z M11.7,66.7c-4.6,0-8.3,3.7-8.3,8.3
		c0,4.6,3.7,8.3,8.3,8.3c4.6,0,8.3-3.7,8.3-8.4C20,70.4,16.3,66.7,11.7,66.7z M33.4,46.6c12.2,0,24.4,0,36.6,0c0-1.1,0-2.1,0-3.2
		c-12.2,0-24.4,0-36.6,0C33.4,44.5,33.4,45.5,33.4,46.6z M96.6,39.8c-1.1,1.4-2.3,2.6-3.1,4c-0.4,0.6-0.4,1.8,0,2.4
		c0.8,1.4,1.9,2.5,3.1,4C96.6,46.6,96.6,43.3,96.6,39.8z"/>
	<path class="st0" d="M10,50c-0.6,0-1.2,0-1.8,0c-1-0.1-1.6-0.7-1.6-1.7c0-0.9,0.6-1.6,1.5-1.6c1.2,0,2.4,0,3.6,0
		c0.9,0,1.5,0.7,1.5,1.6c0,0.9-0.6,1.6-1.5,1.7c-0.1,0-0.1,0-0.2,0C11.1,50,10.6,50,10,50C10,50,10,50,10,50z"/>
	<path class="st0" d="M10.1,53.3c0.6,0,1.2,0,1.8,0c0.9,0.1,1.5,0.7,1.5,1.6c0,0.9-0.5,1.6-1.5,1.7c-1.2,0.1-2.5,0.1-3.7,0
		c-0.9,0-1.5-0.7-1.5-1.7c0-0.9,0.6-1.5,1.5-1.6c0.1,0,0.1,0,0.2,0C9,53.3,9.5,53.3,10.1,53.3C10.1,53.3,10.1,53.3,10.1,53.3z"/>
	<path class="st0" d="M9.9,43.3c-0.6,0-1.1,0-1.7,0c-1-0.1-1.6-0.6-1.6-1.6c0-0.9,0.6-1.7,1.5-1.7c1.2-0.1,2.4-0.1,3.6,0
		c0.9,0.1,1.4,0.7,1.5,1.6c0.1,0.9-0.6,1.6-1.5,1.7C11.2,43.4,10.6,43.3,9.9,43.3C9.9,43.3,9.9,43.3,9.9,43.3z"/>
	<path class="st0" d="M86.7,75c0,2.8-2.3,5-5,5c-2.7,0-5-2.3-5-5c0-2.8,2.3-5,5-5C84.4,70,86.6,72.2,86.7,75z M83.3,75
		c0-0.9-0.7-1.6-1.7-1.6c-0.9,0-1.6,0.7-1.6,1.6c0,1,0.8,1.7,1.7,1.7C82.6,76.6,83.3,75.9,83.3,75z"/>
	<path class="st0" d="M11.7,70c2.8,0,5,2.3,5,5.1c0,2.7-2.3,4.9-5,4.9c-2.7,0-5-2.3-4.9-5.1C6.7,72.2,9,70,11.7,70z M11.8,73.3
		c-0.9,0-1.7,0.6-1.7,1.5c-0.1,0.9,0.6,1.7,1.5,1.8c0.9,0.1,1.8-0.7,1.8-1.6C13.4,74.1,12.7,73.4,11.8,73.3z"/>
</g>
</svg>
