<?xml version="1.0" encoding="utf-8"?>
<!-- Generator: Adobe Illustrator 19.2.1, SVG Export Plug-In . SVG Version: 6.00 Build 0)  -->
<svg version="1.1" id="Capa_1" xmlns="http://www.w3.org/2000/svg" xmlns:xlink="http://www.w3.org/1999/xlink" x="0px" y="0px"
	 viewBox="0 0 100 100" style="enable-background:new 0 0 100 100;" xml:space="preserve">
<style type="text/css">
	.st0{fill:#FFFFFF;}
</style>
<g>
	<path class="st0" d="M47.5,0c2.1,0.8,4.2,1.6,6.4,2.3c13.8,4.8,27.5,9.5,41.3,14.3c1.7,0.6,1.8,0.8,1.8,2.5c0,4.8,0,9.6,0,14.4
		c0,1.6-0.5,2.1-2.1,2.1c-5.8,0-11.6,0-17.4,0c-0.4,0-0.8,0-1.4,0c0,0.4,0,0.8,0,1.2c0,4.1,0,8.2,0,12.3c0,0.8,0.2,1.2,0.8,1.7
		c6.3,4.7,12.6,9.5,18.9,14.2c0.8,0.6,1.1,1.2,1.1,2.2c0,4.9,0,9.8,0,14.6c0,1.6-0.5,2.1-2.1,2.1c-2.2,0-4.5,0-6.7,0
		c-0.8,0-1.1,0.2-1.3,1c-2.7,8.3-8.3,13.3-16.9,14.8c-10.3,1.8-20.4-4.7-23.4-14.8c-0.2-0.8-0.6-1-1.3-1c-2.2,0.1-4.5,0-6.7,0
		c-0.8,0-1.4-0.2-2-0.8C25.6,71.5,14.6,59.9,3.8,48.3c-0.4-0.4-0.6-1.1-0.6-1.6c-0.1-3,0-5.9,0-8.9c0-1.5,0.5-2,2-2
		c4,0,7.9,0,11.9,0c0.4,0,0.8,0,1.3,0c0-0.4,0.1-0.7,0.1-1c0-3.6,0-7.2,0-10.7c0-0.7-0.2-1.1-0.8-1.4c-4.4-2.9-8.8-5.8-13.3-8.6
		c-0.9-0.6-1.3-1.3-1.2-2.3c0.1-3.1,0-6.2,0-9.4c0-1.8,0.4-2.2,2.2-2.3c1.8,0,3.6,0,5.5,0c0.3,0,0.6-0.1,1-0.1C23.6,0,35.5,0,47.5,0
		z M66.6,96.9c9.9,0,17.9-8,17.9-17.8c0-9.8-8-17.9-17.9-17.9c-9.8,0-17.8,8-17.9,17.8C48.8,88.8,56.7,96.8,66.6,96.9z M93.8,20
		c-18.2,0-36.2,0-54.2,0c0,4.2,0,8.3,0,12.5c18.1,0,36.1,0,54.2,0C93.8,28.3,93.8,24.1,93.8,20z M21.5,25.3c0,0.5-0.1,0.8-0.1,1
		c0,3.2,0,6.3,0,9.5c0,0.7,0.2,1.1,0.7,1.5c8.1,6.2,16.1,12.5,24.2,18.8c2.6,2,5.2,4.1,7.8,6.1c0.8-0.5,1.5-1,2.3-1.4
		c0.6-0.3,0.8-0.6,0.8-1.3c0-7.6,0-15.2,0-22.7c0-0.3,0-0.6,0-1c-0.5,0-0.9,0-1.3,0c-5.7,0-11.5,0-17.2,0c-0.8,0-1.6-0.3-2.3-0.7
		c-1.7-1-3.4-2.2-5.1-3.3C28.1,29.6,24.9,27.5,21.5,25.3z M11.7,3.2c0,0.1,0,0.1,0,0.2c0.3,0.2,0.6,0.3,0.9,0.5
		c8.3,4.1,16.6,8.3,24.9,12.4c0.6,0.3,1.2,0.4,1.8,0.4c15.1,0,30.2,0,45.3,0c0.3,0,0.6,0,0.9,0c-0.2-0.3-0.5-0.4-0.7-0.5
		C72.3,12,59.8,7.7,47.3,3.4c-0.5-0.2-1-0.2-1.5-0.2c-10.1,0-20.1,0-30.2,0.1C14.3,3.2,13,3.2,11.7,3.2z M9.1,39
		c0,0.1-0.1,0.2-0.1,0.2c0.1,0.1,0.2,0.1,0.3,0.2c9.6,8.4,19.1,16.8,28.7,25.1c0.3,0.3,0.8,0.4,1.2,0.4c3.6,0,7.2,0,10.8,0
		c0.8,0,1.3-0.2,1.6-0.9c0,0,0-0.1-0.1-0.1C41,55.8,30.4,47.6,19.8,39.3C19.5,39.1,19,39,18.5,39c-2.9,0-5.7,0-8.6,0
		C9.7,39,9.4,39,9.1,39z M6.2,4.2c0,2.4,0,4.7,0,6.9c0,0.3,0.4,0.7,0.6,0.8c9.6,6.3,19.2,12.5,28.8,18.8c0.2,0.1,0.4,0.2,0.6,0.3
		c0-3.6,0-7.1,0-10.6c0-0.8-0.2-1.3-1-1.6c-8.7-4.3-17.4-8.7-26.1-13.1C8.3,5.2,7.3,4.8,6.2,4.2z M72.9,58.8c0-7.7,0-15.4,0-23.1
		c-4.2,0-8.3,0-12.5,0c0,7.8,0,15.5,0,23.2C65.8,57.9,65.8,57.9,72.9,58.8z M36.3,78.4c0-3.7,0-7.2,0-10.6c0-0.3-0.3-0.7-0.5-0.9
		C26.2,58.4,16.6,50,7.1,41.6c-0.2-0.2-0.5-0.4-0.8-0.7c0,1.8,0,3.5,0,5.1c0,0.3,0.3,0.7,0.5,0.9c9,9.5,17.9,19,26.9,28.5
		C34.5,76.4,35.3,77.3,36.3,78.4z M45.7,80.8c-0.3-4.5,0.6-8.7,2.9-12.5c-3.1,0-6.1,0-9.1,0c0,4.2,0,8.4,0,12.5
		C41.6,80.8,43.6,80.8,45.7,80.8z M84.6,68.2c2.3,4,3.2,8.1,3,12.6c2.1,0,4.1,0,6.1,0c0-4.2,0-8.4,0-12.6
		C90.7,68.2,87.8,68.2,84.6,68.2z M90.4,65c0-0.1,0-0.1,0.1-0.2c-4.7-3.5-9.4-7.1-14.4-10.8c0,2.1,0,3.9,0,5.7
		c0,0.3,0.3,0.6,0.6,0.8c1.5,1.2,3.2,2.2,4.6,3.5c0.8,0.7,1.6,1.1,2.6,1C86.1,65,88.2,65,90.4,65z"/>
	<path class="st0" d="M72.7,88.5c0.3,0.4,0.5,0.6,0.6,0.8c0.5,0.7,0.4,1.4-0.2,2c-0.6,0.6-1.3,0.7-1.9,0.1c-1.2-1.1-2.4-2.3-3.6-3.6
		c-0.6-0.6-0.4-1.4,0.2-2c1-1,2.1-2.1,3.1-3.1c0.7-0.7,1.6-0.7,2.3-0.1c0.6,0.6,0.6,1.4,0,2.3c-0.1,0.1-0.2,0.2-0.4,0.5
		c1.5,0,2.8,0,4.3,0c-0.2-0.3-0.3-0.6-0.5-0.8c-1.1-1.8-2.1-3.7-3.2-5.5c-0.6-1-0.4-1.9,0.4-2.4c0.8-0.5,1.7-0.2,2.3,0.8
		c1.6,2.8,3.3,5.6,4.9,8.4c0.9,1.5,0.2,2.7-1.5,2.7C77.2,88.5,75,88.5,72.7,88.5z"/>
	<path class="st0" d="M55.4,80.5c-0.2,0-0.2-0.1-0.3-0.1c-1.3,0.2-2.1-0.1-2.3-1.1c-0.2-1,0.3-1.6,1.7-2c1.2-0.3,2.4-0.6,3.6-0.9
		c1.3-0.3,2,0.1,2.3,1.4c0.3,1.3,0.7,2.5,1,3.8c0.3,1.2-0.1,1.9-1,2.2c-0.9,0.3-1.6-0.2-2-1.3c0-0.1-0.1-0.2-0.2-0.4
		c-0.6,1.1-1.2,2.1-1.9,3.3c2.5,0,4.8,0,7.1,0c0.4,0,0.7,0,1.1,0.1c0.8,0.2,1.3,0.8,1.3,1.6c-0.1,0.8-0.6,1.4-1.4,1.4
		c-3.6,0-7.2,0-10.7,0c-1.3,0-1.8-1.3-1.2-2.4c0.8-1.5,1.7-3,2.6-4.6C55,81.2,55.2,80.9,55.4,80.5z"/>
	<path class="st0" d="M71.2,69c0.2-0.4,0.2-0.7,0.4-0.9c0.4-0.7,1-1,1.8-0.8c0.8,0.2,1.3,0.9,1.1,1.7c-0.3,1.6-0.8,3.2-1.2,4.7
		c-0.3,0.9-1,1.2-1.8,1c-1.4-0.3-2.8-0.7-4.2-1.1c-1.1-0.3-1.6-1-1.4-1.9c0.2-0.9,1-1.4,2.1-1.2c0.2,0,0.3,0.1,0.6,0.1
		c-0.7-1.1-1.2-2.2-1.9-3.3c-0.2,0.3-0.4,0.5-0.5,0.8c-1.1,1.9-2.1,3.7-3.2,5.6c-0.6,1-1.5,1.3-2.3,0.8c-0.8-0.5-0.9-1.4-0.4-2.4
		c1.6-2.8,3.2-5.6,4.9-8.4c0.8-1.4,2.2-1.4,3,0C69.2,65.4,70.2,67.1,71.2,69z"/>
</g>
</svg>
