<?xml version="1.0" encoding="utf-8"?>
<!-- Generator: Adobe Illustrator 19.2.1, SVG Export Plug-In . SVG Version: 6.00 Build 0)  -->
<svg version="1.1" id="Capa_1" xmlns="http://www.w3.org/2000/svg" xmlns:xlink="http://www.w3.org/1999/xlink" x="0px" y="0px"
	 viewBox="0 0 50 50" style="enable-background:new 0 0 50 50;" xml:space="preserve">
<style type="text/css">
	.st0{fill:#808080;}
</style>
<path class="st0" d="M39.3,33.9c-0.6,0-1.2,0.2-1.7,0.4c-0.4-1.4-1.8-2.4-3.3-2.4c-1,0-1.9,0.4-2.5,1.1c-0.2-0.2-0.4-0.3-0.6-0.5
	c2.3-1,4.3-2.5,5.9-4.4c2.7-3.1,4.1-7,4.1-11.1c0-3.6-1.1-7-3.2-9.9c0.9-1.4,0.8-3.4-0.5-4.7c-1.4-1.4-3.8-1.4-5.3,0
	c-1.4,1.4-1.4,3.8,0,5.3c0.7,0.7,1.7,1.1,2.6,1.1c0.6,0,1.1-0.1,1.6-0.4c1.8,2.5,2.7,5.5,2.7,8.6c0,7.1-4.8,13-11.6,14.6v-5.3
	c3.9-1.4,6.5-5.2,6.5-9.4c0-5.5-4.5-10-10-10c-5.5,0-10,4.5-10,10c0,2.2,0.7,4.2,2,6c1.1,1.5,2.7,2.7,4.5,3.4v14.4l-1.2-2
	c-1-1.7-3.2-2.2-4.9-1.3c-1.6,0.9-2.3,3-1.4,4.7l3.6,7.4c0.2,0.3,0.5,0.5,0.9,0.5c0.1,0,0.3,0,0.4-0.1c0.5-0.2,0.7-0.8,0.4-1.3
	l-3.6-7.4c-0.4-0.8-0.1-1.7,0.7-2.2c0.8-0.4,1.8-0.2,2.3,0.6l3,5c0.2,0.4,0.7,0.6,1.1,0.4c0.4-0.1,0.7-0.5,0.7-0.9V21.7
	c0-0.8,0.7-1.5,1.5-1.5c0.8,0,1.5,0.7,1.5,1.5v3.9c0,0,0,0,0,0v14.7c0,0.5,0.4,1,1,1c0.5,0,1-0.4,1-1v-4.9c0-0.8,0.7-1.5,1.5-1.5
	s1.5,0.7,1.5,1.5v5.3c0,0.5,0.4,1,1,1c0.5,0,1-0.4,1-1v-5.3c0-0.8,0.7-1.5,1.5-1.5s1.5,0.7,1.5,1.5v5.3c0,0.5,0.4,1,1,1s1-0.4,1-1
	v-3.3c0-0.8,0.7-1.5,1.5-1.5c0.8,0,1.5,0.7,1.5,1.5V49c0,0.5,0.4,1,1,1c0.5,0,1-0.4,1-1V37.4C42.8,35.4,41.2,33.9,39.3,33.9
	L39.3,33.9z M33.7,6.3c-0.7-0.7-0.7-1.8,0-2.5c0.3-0.3,0.8-0.5,1.2-0.5c0.5,0,0.9,0.2,1.2,0.5c0.7,0.7,0.7,1.8,0,2.5
	C35.5,7,34.3,7,33.7,6.3L33.7,6.3z M16.2,16.9c0-4.4,3.6-8,8-8c4.4,0,8,3.6,8,8c0,3.1-1.8,5.9-4.6,7.2v-2.5c0-0.5-0.1-1.1-0.4-1.5
	c0.9-0.8,1.4-2,1.4-3.2c0-2.5-2-4.5-4.5-4.5c-2.5,0-4.5,2-4.5,4.5c0,1.2,0.5,2.3,1.3,3.2c-0.2,0.5-0.4,1-0.4,1.6v2.4
	C17.9,22.8,16.2,20.1,16.2,16.9L16.2,16.9z M22.4,18.7c-0.5-0.5-0.7-1.1-0.7-1.7c0-1.4,1.1-2.5,2.5-2.5c1.4,0,2.5,1.1,2.5,2.5
	c0,0.7-0.3,1.3-0.7,1.8c-0.5-0.3-1.2-0.5-1.8-0.5C23.5,18.2,22.9,18.4,22.4,18.7L22.4,18.7z M22.4,18.7 M16.1,31.5
	c1.4-1.4,1.4-3.8,0-5.3c-0.7-0.7-1.6-1.1-2.6-1.1c-0.6,0-1.1,0.1-1.6,0.4C10.1,23,9.2,20,9.2,16.9C9.2,9,15.4,2.4,23.3,2
	c0.5,0,1-0.5,0.9-1c0-0.5-0.5-0.9-1-0.9c-9,0.5-16,8-16,16.9c0,3.6,1.1,7,3.2,9.9c-0.9,1.4-0.8,3.4,0.5,4.7c0.7,0.7,1.6,1.1,2.6,1.1
	C14.5,32.6,15.4,32.2,16.1,31.5L16.1,31.5z M12.3,27.6c0.3-0.3,0.8-0.5,1.2-0.5c0.5,0,0.9,0.2,1.2,0.5c0.7,0.7,0.7,1.8,0,2.5
	c-0.7,0.7-1.8,0.7-2.5,0C11.6,29.4,11.6,28.3,12.3,27.6L12.3,27.6z M12.3,27.6 M27.7,2.3c0.3,0,0.5-0.1,0.7-0.3
	c0.2-0.2,0.3-0.4,0.3-0.7c0-0.3-0.1-0.5-0.3-0.7c-0.2-0.2-0.4-0.3-0.7-0.3c-0.3,0-0.5,0.1-0.7,0.3c-0.2,0.2-0.3,0.4-0.3,0.7
	c0,0.3,0.1,0.5,0.3,0.7C27.2,2.2,27.4,2.3,27.7,2.3L27.7,2.3z M27.7,2.3"/>
</svg>
