<?xml version="1.0" encoding="utf-8"?>
<!-- Generator: Adobe Illustrator 19.2.1, SVG Export Plug-In . SVG Version: 6.00 Build 0)  -->
<svg version="1.1" id="Capa_1" xmlns="http://www.w3.org/2000/svg" xmlns:xlink="http://www.w3.org/1999/xlink" x="0px" y="0px"
	 viewBox="0 0 100 100" style="enable-background:new 0 0 100 100;" xml:space="preserve">
<style type="text/css">
	.st0{fill:#FFFFFF;}
</style>
<g>
	<path class="st0" d="M100,95.9c-0.7,1.7-1.8,3.1-3.7,3.4c-0.8,0.1-1.7,0.1-2.5,0.1c-1.8,0-3.6,0-5.4,0c-2.8,0-4.7-1.9-4.8-4.7
		c0-0.3,0-0.7,0-1.1c-22.4,0-44.7,0-67.2,0c0,0.4,0,0.9,0,1.3c-0.1,2.5-2,4.5-4.5,4.5c-2.5,0-4.9,0-7.4,0c-2.5,0-4.5-2-4.5-4.6
		c0-9.3,0-18.7,0-28c0-2.6,2-4.5,4.5-4.5c2.4,0,4.8,0,7.1,0c2.8,0,4.7,1.9,4.7,4.7c0,0.3,0,0.6,0,1.1c5,0,10,0,15,0c0-0.3,0-0.7,0-1
		c0-2.7,0-5.3,0-8c0-1.5,0.5-2,2-2c3.5,0,7.1,0,10.6,0c0.4,0,0.7,0,1.2,0c0-1.4,0-2.8,0-4.1c0-0.2-0.4-0.5-0.7-0.5
		c-5.3-1.2-9.9-3.6-13.6-7.6c-7-7.7-9-16.6-5.7-26.4C28.6,8.7,35.6,2.7,45.7,1c14.6-2.5,28.2,7.6,30.2,22.3
		c1.9,13.6-7.1,26.3-20.6,29.1c-0.2,0-0.4,0.1-0.6,0.2c0,1.5,0,2.9,0,4.5c0.3,0,0.7,0,1,0c3.6,0,7.3,0,10.9,0c1.5,0,2,0.5,2,2.1
		c0,2.6,0,5.3,0,7.9c0,0.3,0,0.7,0,1.1c5,0,9.8,0,14.9,0c0-0.4,0-0.8,0-1.2c0.1-2.6,2-4.6,4.6-4.6c2.3,0,4.6,0,6.9,0
		c2.4,0,3.8,1,4.7,3.3c0,0.1,0.1,0.1,0.2,0.2C100,75.8,100,85.9,100,95.9z M72.4,90.3c0-6.4,0-12.7,0-19c-15,0-29.9,0-44.8,0
		c0,6.4,0,12.7,0,19C42.6,90.3,57.5,90.3,72.4,90.3z M50,3.7c-12.7,0-23,10.3-23,23c0,12.7,10.3,23,23,23.1
		c12.7,0,23.1-10.3,23.1-23C73.1,14.1,62.7,3.7,50,3.7z M3.1,80.8c0,4.5,0,9,0,13.6c0,1.3,0.5,1.8,1.8,1.8c2.2,0,4.4,0,6.5,0
		c1.3,0,1.8-0.5,1.8-1.8c0-9.1,0-18.2,0-27.3c0-1.2-0.5-1.7-1.7-1.7c-2.1,0-4.2,0-6.2,0c-1.8,0-2.2,0.4-2.2,2.1
		C3.1,72,3.1,76.4,3.1,80.8z M86.7,80.8c0,4.6,0,9.1,0,13.7c0,1.2,0.5,1.7,1.7,1.7c2.2,0,4.4,0,6.6,0c1.3,0,1.8-0.5,1.8-1.8
		c0-9.1,0-18.2,0-27.3c0-1.2-0.5-1.7-1.7-1.7c-2.2,0-4.4,0-6.5,0c-1.4,0-1.9,0.4-1.9,1.9C86.7,71.8,86.7,76.3,86.7,80.8z M24.4,90.3
		c0-6.4,0-12.7,0-19c-2.7,0-5.3,0-7.9,0c0,6.4,0,12.7,0,19C19.1,90.3,21.7,90.3,24.4,90.3z M75.7,71.3c0,6.4,0,12.7,0,19
		c2.6,0,5.1,0,7.7,0c0-6.4,0-12.6,0-19C80.8,71.3,78.2,71.3,75.7,71.3z M65.6,60.2c-2.9,0-5.7,0-8.5,0c0,2.7,0,5.2,0,7.8
		c2.9,0,5.7,0,8.5,0C65.6,65.4,65.6,62.9,65.6,60.2z M42.9,68.1c0-2.7,0-5.3,0-7.9c-2.8,0-5.5,0-8.3,0c0,2.6,0,5.2,0,7.9
		C37.4,68.1,40.1,68.1,42.9,68.1z M46.2,60.2c0,2.7,0,5.2,0,7.9c2.6,0,5.1,0,7.7,0c0-2.6,0-5.2,0-7.9C51.3,60.2,48.8,60.2,46.2,60.2
		z M48.5,52.9c0,1.4,0,2.7,0,4c1,0,2,0,3,0c0-1.4,0-2.7,0-4C50.5,52.9,49.5,52.9,48.5,52.9z"/>
	<path class="st0" d="M50,7c10.9,0,19.7,8.8,19.7,19.8c0,11-8.7,19.7-19.8,19.7c-11.1,0-19.7-8.7-19.7-19.7C30.3,15.8,39.1,7,50,7z
		 M51.6,43.2c8.6-0.4,14.9-8.4,14.7-14.9c-0.8,0-1.6,0-2.4,0c-1.1,0-1.8-0.6-1.8-1.5c0-0.9,0.7-1.5,1.7-1.6c0.8,0,1.7,0,2.5,0
		c-0.3-7.4-7-14.5-14.8-14.8c0,0.8,0,1.7,0,2.5c0,1.1-0.6,1.8-1.5,1.8c-0.9,0-1.5-0.7-1.6-1.8c0-0.8,0-1.7,0-2.5
		c-7.9,0.3-14.7,7.7-14.9,14.8c0.8,0,1.6,0,2.4,0c1.2,0,1.9,0.6,1.9,1.5c0,1-0.7,1.6-1.9,1.6c-0.8,0-1.6,0-2.4,0
		c0.4,8.1,7.5,14.6,14.9,14.9c0-0.8,0-1.7,0-2.5c0-1.1,0.6-1.8,1.5-1.8c1,0,1.6,0.7,1.6,1.8C51.6,41.5,51.6,42.3,51.6,43.2z"/>
	<path class="st0" d="M51.6,22.3c0,0.2,0,0.5,0,0.7c-0.1,0.9,0.2,1.4,1,1.9c1.6,1,2.1,3.1,1.5,4.8c-0.6,1.8-2.3,2.9-4.2,2.9
		c-1.9,0-3.4-1.3-4-3.1c-0.5-1.8,0.1-3.8,1.7-4.8c0.7-0.4,0.9-0.9,0.9-1.6c-0.1-0.8,0-1.6,0-2.4c0-0.9,0.7-1.6,1.5-1.6
		c0.8,0,1.5,0.6,1.6,1.6C51.6,21.2,51.6,21.7,51.6,22.3C51.6,22.3,51.6,22.3,51.6,22.3z M49.9,29.5c0.7-0.1,1.2-0.4,1.2-1.1
		c0-0.7-0.4-1.2-1.1-1.2c-0.7,0-1.2,0.4-1.2,1.1C48.8,29,49.2,29.4,49.9,29.5z"/>
</g>
</svg>
