<?xml version="1.0" encoding="utf-8"?>
<!-- Generator: Adobe Illustrator 19.2.1, SVG Export Plug-In . SVG Version: 6.00 Build 0)  -->
<svg version="1.1" id="Capa_1" xmlns="http://www.w3.org/2000/svg" xmlns:xlink="http://www.w3.org/1999/xlink" x="0px" y="0px"
	 viewBox="0 0 100 100" style="enable-background:new 0 0 100 100;" xml:space="preserve">
<style type="text/css">
	.st0{fill:#FFFFFF;}
</style>
<g>
	<path class="st0" d="M77,50.6c0-0.5,0-0.9,0-1.3c0-7.2,0-14.5,0-21.7c0-5.2,0-10.4,0-15.6c0-4.7,0-4.7,2.1-8.7c-0.4,0-0.8,0-1.1,0
		c-15.2,0-30.3,0-45.5,0c-5.5,0-9.1,3.6-9.1,9.1c0,16.6,0,33.3,0,49.9c0,7.1,0,14.3,0,21.4c0,2-0.2,4-1.5,5.9c0.5,0,0.8,0.1,1.2,0.1
		c2.9,0,5.8,0,8.7,0c1.3,0,2.1,0.7,2.1,1.7c0,1-0.8,1.6-2,1.6c-6.7,0-13.3,0-20,0c-4.4,0-7.8-3.4-7.9-7.8C4,78.1,4,71,4,64
		c0-1.4,0.6-2,2.1-2c4.2,0,8.3,0,12.5,0c0.4,0,0.9,0,1.5,0c0-0.5,0-0.9,0-1.4c0-16.1,0-32.1,0-48.2c0-5.9,3.5-10.6,8.9-12
		C30.3,0.1,31.6,0,32.9,0C50,0,67.2,0,84.3,0c1.4,0,2.9,0,4.3,0.3c4.2,0.9,7.2,4.4,7.3,8.7c0.1,5.6,0.1,11.2,0,16.8
		c0,1.2-0.7,1.8-2,1.8c-4.1,0-8.2,0-12.3,0c-0.4,0-0.8,0-1.3,0c0,0.5,0,0.9,0,1.3c0,7.7,0,15.4,0,23.1c0,1.3,0.3,2.2,1.1,3.2
		c13,16.5,3.2,41.3-17.6,44.4C48.5,102,34.5,91.7,32,76.4C29.7,61.9,40,47.5,54.3,45c8.1-1.4,15.4,0.3,22,5.2
		C76.5,50.3,76.7,50.4,77,50.6z M84,72.3C84,58.8,73,47.8,59.5,47.8c-13.5,0-24.5,10.9-24.5,24.4C35,85.6,46,96.6,59.4,96.7
		C73,96.7,83.9,85.8,84,72.3z M7.4,65.4c-0.1,0.2-0.1,0.3-0.1,0.3c0,6.5-0.1,13,0,19.5c0,2.5,1.8,4.1,4.3,4.3c1.2,0.1,2.4-0.1,3.6,0
		c3.1,0.2,5-2.4,4.9-4.9C20,78.5,20.1,72.3,20,66.2c0-0.3-0.1-0.5-0.1-0.8C15.7,65.4,11.6,65.4,7.4,65.4z M80.3,24.2
		c4.2,0,8.2,0,12.3,0c0-1.1,0-2,0-3c0-4,0.1-8,0-11.9c-0.1-3.6-2.9-6.1-6.5-6c-3.3,0.1-5.8,2.8-5.8,6.3c0,3.6,0,7.2,0,10.7
		C80.3,21.6,80.3,22.9,80.3,24.2z"/>
	<path class="st0" d="M45.6,22.9c-5,0-10.1,0-15.1,0c-0.5,0-1.2-0.1-1.5-0.4c-0.4-0.4-0.7-1.1-0.6-1.6c0.1-0.5,0.8-0.9,1.3-1.3
		c0.3-0.2,0.7-0.1,1.1-0.1c9.9,0,19.8,0,29.7,0c0.3,0,0.7,0,1,0c0.9,0.1,1.4,0.7,1.5,1.6c0,0.9-0.5,1.4-1.3,1.6
		c-0.3,0.1-0.7,0.1-1.1,0.1C55.6,22.9,50.6,22.9,45.6,22.9z"/>
	<path class="st0" d="M45.6,12.8c5,0,9.9,0,14.9,0c0.4,0,0.7,0,1.1,0c0.8,0.1,1.3,0.6,1.4,1.4c0.1,0.8-0.3,1.4-1.1,1.7
		c-0.4,0.1-0.8,0.1-1.3,0.2c-10,0-20,0-29.9,0c-0.3,0-0.5,0-0.8,0c-0.9-0.1-1.6-0.8-1.6-1.6c0-0.9,0.7-1.6,1.7-1.6
		c2.2,0,4.5,0,6.7,0C39.7,12.8,42.7,12.8,45.6,12.8z"/>
	<path class="st0" d="M42,36.4c-3.8,0-7.7,0-11.5,0c-1.3,0-2.1-0.6-2.1-1.6c0-1,0.8-1.7,2.1-1.7c7.7,0,15.5,0,23.2,0
		c1,0,1.7,0.3,2,1.3c0.2,0.8-0.1,1.5-0.9,1.8c-0.4,0.2-0.8,0.2-1.3,0.2C49.6,36.4,45.8,36.4,42,36.4z"/>
	<path class="st0" d="M42.1,26.3c3.9,0,7.7,0,11.6,0c1.3,0,2,0.6,2,1.7c0,0.9-0.7,1.6-1.7,1.6c-0.9,0-1.9,0-2.8,0
		c-6.9,0-13.7,0-20.6,0c-0.5,0-1.3-0.1-1.6-0.4c-0.4-0.4-0.5-1.2-0.4-1.7c0.1-0.8,0.8-1.1,1.6-1.1c2.5,0,4.9,0,7.4,0
		C39,26.3,40.6,26.3,42.1,26.3z"/>
	<path class="st0" d="M33.9,43.1c-1.3,0-2.5,0-3.8,0c-1.1,0-1.8-0.7-1.8-1.6c0-0.9,0.7-1.6,1.8-1.7c2.6,0,5.1,0,7.7,0
		c1,0,1.8,0.8,1.7,1.7c0,0.9-0.7,1.6-1.7,1.6C36.5,43.1,35.2,43.1,33.9,43.1z"/>
	<path class="st0" d="M47.1,78.4c0.2-4.6,1.6-8.6,3.5-12.4c2-4,4.5-7.8,7.4-11.2c0.9-1.1,2-1.2,2.9-0.2c4.9,5.8,8.8,12.2,10.5,19.7
		c1.3,5.5,0.1,10.3-4.6,13.8c-4,3-8.4,3.3-12.9,1C49.5,86.9,47.3,83.1,47.1,78.4z M59.5,58.2c-0.8,1.2-1.6,2.2-2.3,3.2
		c-3.2,4.8-5.9,9.8-6.7,15.7c-0.5,3.9,1.4,7.5,4.9,9.2c3.5,1.7,7.6,1.1,10.3-1.6c2.9-2.8,3.2-6.2,2.3-9.8c-1.2-5.1-3.6-9.5-6.5-13.7
		C61,60.2,60.3,59.2,59.5,58.2z"/>
	<path class="st0" d="M55.8,80c0.2,0.2,0.7,0.5,1.1,0.8c0.7,0.5,1.3,1.1,2,1.4c1.1,0.5,1.6,1.2,1.4,2.1c-0.3,1-1.1,1.4-2.2,1.1
		c-1.7-0.4-3-1.4-3.9-2.9C53.5,81.4,54.2,80,55.8,80z"/>
</g>
</svg>
