<?xml version="1.0" encoding="utf-8"?>
<!-- Generator: Adobe Illustrator 19.2.1, SVG Export Plug-In . SVG Version: 6.00 Build 0)  -->
<svg version="1.1" id="Capa_1" xmlns="http://www.w3.org/2000/svg" xmlns:xlink="http://www.w3.org/1999/xlink" x="0px" y="0px"
	 viewBox="0 0 100 100" style="enable-background:new 0 0 100 100;" xml:space="preserve">
<style type="text/css">
	.st0{fill:#FFFFFF;}
</style>
<g>
	<path class="st0" d="M19.6,100c-0.8-0.6-1-1.3-1-2.3c0.1-1.7,0-3.5,0-5.2c0-1.4,0.6-1.9,2-1.9c6.3,0,12.6,0,18.8,0
		c0.4,0,0.7,0,1.1,0c0-11.5,0-22.9,0-34.4c-5.2,0-10.3,0-15.6,0c0,10.4,0,20.8,0,31.3c-1.1,0-2,0-3.2,0c0-0.3,0-0.6,0-0.9
		c0-10.5,0-20.9,0-31.4c0-1.4,0.2-1.7,1.5-2.3c0-0.4,0-0.9,0-1.4c-1.1-0.2-1.5-1-1.7-2c-0.9-4.4-1.8-8.8-2.6-13.3
		c-0.1-0.3-0.2-0.7-0.2-1c-1.3,0.2-2.6,0.4-3.9,0.5c-2.8,0.1-5-1.7-5.6-4.4c-0.5-2.5,0.8-5.1,3.4-6.2c7.1-3,14.2-6.1,21.2-9.1
		c0.7-0.3,1.3-0.7,1.8-1.2c4.6-4.6,9.3-9.2,13.9-13.9c0.3-0.3,0.5-0.6,0.7-0.9c0.8,0.9,1.5,1.6,2.2,2.4C52.4,2.5,52.2,2.8,52,3
		c-4.8,4.8-9.6,9.6-14.4,14.4c-0.5,0.5-1.1,0.9-1.8,1.2c-7.2,3.1-14.5,6.2-21.8,9.3c-1.4,0.6-2,1.9-1.4,3.2c0.4,1,1.2,1.5,2.2,1.4
		c1.2-0.1,2.4-0.3,3.5-0.7c8.5-3.2,17-6.5,25.5-9.7c4.1-1.6,7.7,0.9,7.7,5.3c0,4.7,0,9.5,0,14.2c0,2.1,1.3,3.5,3.1,3.5
		c1.9,0,3.1-1.4,3.1-3.5c0-3.6,0-7.1,0-10.7c0-3.5,1.4-6.4,4.1-8.6c2.7-2.2,5.4-4.3,8.1-6.5c4.4-3.5,6.6-8.1,6.6-13.8
		c0-0.2,0-0.3,0-0.5c0-0.1,0-0.1,0.1-0.3c1,0,2,0,3,0c0.4,9.4-4.8,15.5-12.1,20.3c1.1,1.5,1.4,3,0.9,4.7c1.9,0.1,3.5,0.9,4.4,2.6
		c0.7,1.4,0.7,2.6,0,4.4c0.2,0.2,0.4,0.3,0.5,0.5c1.5,1.4,2,3.3,1.3,5.2c-0.7,1.8-2.3,3-4.3,3c-2.6,0-5.2,0-7.9,0c0-1,0-2,0-3.1
		c0.3,0,0.6,0,0.9,0c2.2,0,4.4,0,6.6,0c1.2,0,1.9-0.6,1.9-1.6c0-1-0.7-1.6-1.8-1.6c-2.6,0-5.2,0-7.7,0c-1.2,0-1.4,0.2-1.4,1.4
		c0,1.6,0,3.1,0,4.7c0,3.6-2.7,6.4-6.2,6.4c-3.5,0-6.3-2.7-6.4-6.3c0-0.2,0-0.4,0-0.8c-1.5,0.6-2.9,1.2-4.3,1.8
		c-0.2,0.1-0.3,0.4-0.3,0.7c0,0.8,0,1.6,0,2.5c0,1.5-0.2,1.7-1.5,2.3c0,1.5,0,3,0,4.6c1.3,0.2,1.6,1.1,1.6,2.3c0,4.3,0,8.6,0,13.1
		c2.5-0.6,4.9-1.1,7.4-1.7c8.3-1.9,16.6-3.8,24.9-5.7c0.4-0.1,0.8-0.1,1.3-0.1c3.1,0,6.2,0,9.3,0c0.3,0,0.6,0,1,0c0-2.2,0-4.3,0-6.4
		c0-0.9-0.7-1.4-1.7-1.4c-4.6-0.1-9.2,0.1-13.7,1c-6.1,1.2-12.2,2.2-18.3,3.2c-0.1,0-0.3,0-0.5,0c-0.2-1-0.3-2-0.5-3
		c3.2-0.6,6.2-1.1,9.3-1.6c5.1-0.9,10.2-1.8,15.4-2.6c1.9-0.3,3.8-0.1,5.8-0.2c1,0,2,0,2.9,0c2.5,0.1,4.6,2.1,4.6,4.6
		c0,4.7,0,9.3,0,14c0,1.2-0.6,1.8-1.8,1.8c-4,0-8,0-12.1,0c-1.2,0-1.8-0.6-1.8-1.8c0-1.3,0-2.6,0-4c-10.5,2.4-20.9,4.7-31.3,7.1
		c0,6.3,0,12.7,0,19.2c0.4,0,0.9,0,1.4,0c1,0,1.7,0.6,1.7,1.6c0,2,0.1,4.1,0,6.1c0,0.6-0.6,1.1-0.9,1.7C37.1,100,28.4,100,19.6,100z
		 M40.6,45.3c0-1,0-2,0-2.9c-0.1-1.1,0.4-1.7,1.5-2.1c1.9-0.7,3.8-1.5,5.7-2.3c0.3-0.1,0.6-0.4,0.7-0.7c0.1-2.2,0-4.4,0-6.7
		c-8.8,1.6-17.6,3.1-26.4,4.7c0.9,4.3,1.7,8.4,2.5,12.6C30,47.1,35.3,46.2,40.6,45.3z M21.8,96.8c7.3,0,14.6,0,21.8,0
		c0-1.1,0-2.1,0-3c-7.3,0-14.6,0-21.8,0C21.8,94.8,21.8,95.8,21.8,96.8z M39,48.8c-4.2,0.7-8.4,1.4-12.5,2.1c0,0.8,0,1.4,0,2
		c4.2,0,8.3,0,12.5,0C39,51.5,39,50.2,39,48.8z M30.8,30.4c0,0.1,0,0.1,0.1,0.2c5.9-1,11.7-2.1,17.5-3.1c0.1-2.1-1.3-3.3-3.2-2.6
		c-4.4,1.7-8.7,3.3-13.1,5C31.7,30.1,31.2,30.3,30.8,30.4z M78.3,67c3.2,0,6.2,0,9.3,0c0-1.1,0-2.1,0-3c-3.1,0-6.2,0-9.3,0
		C78.3,65,78.3,65.9,78.3,67z M67.3,32.5c0.6,0,1.1,0.1,1.7,0c0.8-0.1,1.3-0.6,1.4-1.5c0-0.8-0.6-1.5-1.4-1.6c-0.8-0.1-1.5,0-2.4,0
		C66.8,30.5,67.1,31.5,67.3,32.5z M63,28.1c-1.8,0.3-1.8,0.3-1.9,1.9c-0.1,0.8,0,1.7,0,2.7c1-0.4,1.9-0.8,2.8-1.1
		C63.5,30.3,63.3,29.2,63,28.1z M65.5,25.2c0.1,0,0.2-0.1,0.3-0.1c-0.1-0.5-0.3-1-0.4-1.6c-0.6,0.5-0.9,0.7-1.2,1
		C64.6,24.8,65,25,65.5,25.2z"/>
	<path class="st0" d="M79.8,98.4c-1,0-2,0-3,0c0-8.9,0-17.7,0-26.5c1,0,2,0,3,0C79.8,80.6,79.8,89.5,79.8,98.4z"/>
	<path class="st0" d="M89.2,98.4c-1,0-2,0-3,0c0-8.9,0-17.7,0-26.5c1,0,2,0,3,0C89.2,80.6,89.2,89.5,89.2,98.4z"/>
	<path class="st0" d="M78.7,26.1c-0.3-1-0.6-1.9-0.8-2.9c6.8-2.3,9.2-7.6,9.9-14.2c1,0,2,0,3,0C91.3,16.3,85.4,24.7,78.7,26.1z"/>
	<path class="st0" d="M77.1,21.4c-0.2-1-0.5-1.9-0.7-2.9c4.4-1.7,5.5-5.7,6.7-9.8c1,0.2,2,0.3,2.9,0.5
		C85.5,14.9,81.2,20.7,77.1,21.4z"/>
	<path class="st0" d="M46.6,55.3c1.1-0.2,2.1-0.4,3.1-0.5c0.2,1,0.4,2,0.5,3.1c-1,0.2-2,0.4-3.1,0.5C46.9,57.3,46.8,56.4,46.6,55.3z
		"/>
</g>
</svg>
