<?xml version="1.0" encoding="utf-8"?>
<!-- Generator: Adobe Illustrator 19.2.1, SVG Export Plug-In . SVG Version: 6.00 Build 0)  -->
<svg version="1.1" id="Capa_1" xmlns="http://www.w3.org/2000/svg" xmlns:xlink="http://www.w3.org/1999/xlink" x="0px" y="0px"
	 viewBox="0 0 100 100" style="enable-background:new 0 0 100 100;" xml:space="preserve">
<style type="text/css">
	.st0{fill:#FFFFFF;}
</style>
<g>
	<path class="st0" d="M21.7,0c0.6,0.5,1.2,1,0.8,2c-0.3,0.9-1.1,1-1.9,1c-2.4,0-4.9,0-7.3,0c-1.2,0-1.3,0.1-1.3,1.3
		c0,4.8,0,9.5,0,14.3c0,25.6,0,51.3,0,76.9c0,1.7,0,1.7,1.7,1.7c24.3,0,48.5,0,72.8,0c1.6,0,1.6,0,1.6-1.6c0-4,0-7.9,0-11.9
		c0-0.7,0.1-1.4,0.8-1.7c0.9-0.4,1.9,0.1,2.1,1.1C91,83.4,91,84,91,84.5c0,3.8,0,7.6,0,11.3c0,2.7-1.4,4.1-4.2,4.1
		c-24.5,0-49.1,0-73.6,0c-2.7,0-4.1-1.4-4.1-4.1C9,65.3,9,34.7,9,4.2C9,2.1,9.9,0.8,11.7,0C15,0,18.4,0,21.7,0z"/>
	<path class="st0" d="M73.6,0c5.6,5.6,11.2,11.1,16.7,16.7c0.4,0.4,0.6,1.2,0.6,1.8c0,9.6,0,19.1,0,28.7s0,19.1,0,28.7
		c0,0.4,0,0.9-0.1,1.3c-0.2,0.7-0.7,1.1-1.4,1.1c-0.8,0-1.3-0.5-1.4-1.3c0-0.4,0-0.8,0-1.2c0-18.4,0-36.8,0-55.3c0-0.4,0-0.8,0-1.3
		c-0.4,0-0.8,0-1.1,0c-3.8,0-7.6,0-11.4,0c-2.7,0-4-1.4-4-4c0-3.7,0-7.4,0-11c0-0.4,0-0.7,0-1.2c-0.5,0-0.8,0-1.2,0
		c-13.9,0-27.7,0-41.6,0c-0.2,0-0.5,0-0.7,0c-0.8,0.1-1.6-0.1-1.9-1C25.7,1,26.2,0.5,27,0C42.5,0,58.1,0,73.6,0z M85.4,16.2
		C81.7,12.6,78,8.9,74.4,5.3c0,0,0,0.2,0,0.4c0,3.2,0,6.5,0,9.7c0,0.7,0.4,0.8,1,0.8c1.7,0,3.4,0,5.2,0
		C82.2,16.2,83.8,16.2,85.4,16.2z"/>
	<path class="st0" d="M50,46.2c-8.2,0-15-6.7-14.9-14.9c0-2.8,1.3-5.3,2.8-7.6c2.6-4.2,6-7.9,9.5-11.3c1.4-1.4,3.6-1.4,5,0
		c1.6,1.5,3.1,3.1,4.6,4.7c0.7,0.7,0.6,1.6,0,2.2c-0.6,0.6-1.5,0.5-2.2-0.2c-1.4-1.4-2.8-2.9-4.1-4.3c-0.5-0.5-1-0.6-1.5-0.1
		c-3.5,3.5-6.7,7.1-9.3,11.3c-2.8,4.6-2.3,8.7,0.5,12.6c2.8,3.9,7.8,5.6,12.4,4.4c4.6-1.2,8.1-5,8.9-9.6c0.5-2.7-0.4-5.1-1.7-7.3
		c-0.4-0.7-0.9-1.4-1.3-2.2c-0.4-0.7-0.3-1.4,0.4-1.9c0.7-0.5,1.5-0.5,1.9,0.2c2,2.9,3.8,5.8,3.8,9.5C64.8,39.6,58.1,46.2,50,46.2z"
		/>
	<path class="st0" d="M30.2,65.1c1.3-1.1,2.7-2.4,4.2-3.6c0.9-0.8,1.8-0.8,2.4-0.1c0.6,0.7,0.5,1.5-0.4,2.3c-1.5,1.3-3,2.6-4.5,3.9
		c-0.3,0.3-0.6,0.9-0.6,1.3c-0.1,1.7,0,3.3,0,5c0,2.4-1.5,3.8-3.9,3.9c-2,0-4.1,0-6.1,0c-2.4,0-3.8-1.5-3.8-3.9c0-1.9,0-3.8,0-5.7
		c0-2.2,1.5-3.7,3.7-3.7c2.1,0,4.2-0.1,6.3,0C28.3,64.5,29.1,64.8,30.2,65.1z M28.3,70.6c-0.7,0.6-1.1,1-1.6,1.4
		c-2,1.7-2.1,1.7-4-0.1c-0.9-0.9-1.1-1.7-0.5-2.4c0.6-0.7,1.4-0.7,2.4,0.1c0,0,0.1,0,0.2,0.1c0.8-0.7,1.6-1.4,2.6-2.3
		c-2.3,0-4.3,0-6.3,0c-0.7,0-0.9,0.3-0.9,1c0,1.8,0,3.6,0,5.5c0,0.7,0.3,1,0.9,1c2,0,4,0,6.1,0c0.6,0,1-0.3,1-0.9
		C28.3,72.9,28.3,71.9,28.3,70.6z"/>
	<path class="st0" d="M58.2,85.3c6.7,0,13.4,0,20.1,0c0.3,0,0.7,0,1,0c0.8,0.1,1.2,0.6,1.2,1.4c0,0.8-0.4,1.3-1.2,1.5
		c-0.3,0.1-0.6,0-1,0c-13.5,0-27,0-40.5,0c-0.3,0-0.6,0-0.9,0c-0.8-0.2-1.3-0.7-1.2-1.5c0-0.8,0.5-1.3,1.3-1.4c0.3,0,0.6,0,1,0
		C44.8,85.3,51.5,85.3,58.2,85.3z"/>
	<path class="st0" d="M58.1,53.9c6.7,0,13.5,0,20.2,0c0.3,0,0.7,0,1,0c0.8,0.1,1.2,0.6,1.3,1.4c0,0.7-0.3,1.2-1.1,1.5
		c-0.3,0.1-0.6,0.1-0.9,0.1c-13.6,0-27.3,0-40.9,0c-0.4,0-0.8,0-1-0.2c-0.4-0.4-0.8-0.9-0.9-1.4c-0.1-0.7,0.5-1.2,1.2-1.3
		c0.3,0,0.6,0,1,0C44.7,53.9,51.4,53.9,58.1,53.9z"/>
	<path class="st0" d="M58.1,72.5c-6.7,0-13.4,0-20.1,0c-0.4,0-0.8,0.1-1.1-0.1c-0.5-0.3-1.1-0.8-1.1-1.2c-0.1-0.5,0.4-1.1,0.8-1.4
		c0.3-0.2,0.8-0.2,1.2-0.2c13.5,0,27,0,40.5,0c0.3,0,0.7,0,1,0.1c0.8,0.2,1.2,0.7,1.2,1.5c-0.1,0.8-0.5,1.2-1.3,1.3
		c-0.3,0-0.7,0-1,0C71.6,72.5,64.9,72.5,58.1,72.5z"/>
	<path class="st0" d="M24.3,61.9c-1.1,0-2.1,0-3.2,0c-2.2,0-3.6-1.5-3.7-3.7c0-1.9,0-3.8,0-5.8c0-2.1,1.3-3.6,3.5-3.7
		c2.3-0.1,4.6-0.1,6.9,0c2,0.1,3.4,1.5,3.4,3.6c0.1,2,0.1,4,0,6.1c-0.1,2.1-1.6,3.6-3.7,3.6C26.4,61.9,25.3,61.9,24.3,61.9z
		 M24.2,59c1,0,2.1,0,3.1,0c0.6,0,0.9-0.3,0.9-0.9c0-1.9,0-3.8,0-5.7c0-0.6-0.3-0.9-0.9-0.9c-2,0-4.1,0-6.1,0
		c-0.6,0-0.9,0.3-0.9,0.9c0,1.9,0,3.7,0,5.6c0,0.7,0.3,0.9,1,0.9C22.3,59,23.2,59,24.2,59z"/>
	<path class="st0" d="M24.2,93.4c-1.1,0-2.3,0-3.4,0c-1.9-0.1-3.4-1.5-3.4-3.5c0-2.1,0-4.2,0-6.2c0-1.9,1.4-3.4,3.3-3.4
		c2.3-0.1,4.7-0.1,7,0c2,0.1,3.4,1.5,3.5,3.5c0.1,2,0.1,4.1,0,6.1c-0.1,2.1-1.5,3.5-3.7,3.5C26.4,93.4,25.3,93.4,24.2,93.4
		C24.2,93.4,24.2,93.4,24.2,93.4z M24.2,90.5c1,0,2,0,3,0c0.7,0,1-0.3,1-1c0-1.8,0-3.6,0-5.5c0-0.6-0.3-0.9-1-0.9c-2,0-4,0-6,0
		c-0.6,0-1,0.2-1,0.9c0,1.9,0,3.7,0,5.6c0,0.6,0.3,0.9,0.9,0.9C22.2,90.5,23.2,90.5,24.2,90.5z"/>
</g>
</svg>
