<?xml version="1.0" encoding="utf-8"?>
<!-- Generator: Adobe Illustrator 19.2.1, SVG Export Plug-In . SVG Version: 6.00 Build 0)  -->
<svg version="1.1" id="Capa_1" xmlns="http://www.w3.org/2000/svg" xmlns:xlink="http://www.w3.org/1999/xlink" x="0px" y="0px"
	 viewBox="0 0 100 100" style="enable-background:new 0 0 100 100;" xml:space="preserve">
<style type="text/css">
	.st0{fill:#FFFFFF;}
</style>
<g>
	<path class="st0" d="M100,52.9c-0.2,1.8-0.5,3.5-0.8,5.3C96,78.3,80.8,94.1,61.7,98.5c-2.5,0.6-5.2,0.9-7.8,1.3
		c-0.4,0.1-0.8,0.1-1.1,0.2c-1.8,0-3.6,0-5.5,0c-1.8-0.2-3.7-0.4-5.5-0.7c-2.1-0.4-4.2-0.9-6.3-1.3c0,1-0.6,1.7-1.5,2.1
		c-0.3,0-0.7,0-1,0c-0.5-0.5-1.1-1-1.5-1.6c-0.8-1.1-1.5-2.3-2.3-3.5c-0.9-1.4-0.7-2.4,0.7-3.3c1.3-0.9,2.6-1.7,4-2.5
		c1.2-0.7,2.4-0.6,3,0.4c0.6,1,0.3,2.1-0.9,2.8c-0.4,0.3-0.9,0.6-1.4,1.2c2.3,0.6,4.5,1.3,6.8,1.7c8.4,1.6,16.6,0.9,24.6-2.1
		c8.5-3.2,15.5-8.5,20.9-15.8c4.7-6.3,7.6-13.3,8.7-21c0.6-3.8,0.7-7.7,0.2-11.6c0-0.4-0.1-0.7-0.1-1.1c0-1.1,0.7-1.8,1.7-1.9
		c1-0.1,1.9,0.4,2.1,1.5c0.2,0.9,0.2,1.8,0.3,2.7c0,0.4,0.1,0.8,0.2,1.1C100,49,100,51,100,52.9z"/>
	<path class="st0" d="M100,25c-0.1,0.5-0.2,1.1-0.4,1.6c-1.6,7-7.6,11.9-14.6,11.9c-7-0.1-13.1-5.2-14.4-12.2
		c-0.8-4.2,0-8.2,2.5-11.7C76.5,10,80,5.5,83.5,1c1-1.3,2.4-1.3,3.4,0c3.3,4.4,6.7,8.8,10,13.1c1.6,2.1,2.6,4.5,2.9,7.1
		c0,0.2,0.1,0.3,0.2,0.4C100,22.8,100,23.9,100,25z M85.2,5.3c-0.1,0.1-0.2,0.2-0.3,0.3c-2.8,3.6-5.6,7.2-8.3,10.8
		c-1.9,2.6-2.8,5.5-2.2,8.7c0.8,4.5,3.4,7.7,7.8,9c4.4,1.3,8.2,0.1,11.2-3.4c3-3.5,3.6-7.6,1.8-11.8c-0.7-1.7-2-3.2-3.1-4.7
		C89.8,11.2,87.5,8.3,85.2,5.3z"/>
	<path class="st0" d="M50.1,80.9c-13.2,0-24.7-9.9-26.6-23c-1.1-7.5,0.6-14.3,5.1-20.3c6.5-8.5,13.2-16.9,19.8-25.4
		c1-1.3,2.4-1.3,3.4,0c6.7,8.7,13.6,17.3,20.2,26.1c6.1,8.1,6.6,20.3,1.3,29c-4.1,6.8-10,11.1-17.7,12.8
		C53.8,80.6,51.9,80.6,50.1,80.9z M50.1,16.4c-0.2,0.2-0.3,0.3-0.3,0.4c-6.1,7.8-12.4,15.6-18.3,23.6c-5.1,6.9-5.9,14.7-2.5,22.6
		c5.3,12.3,19.4,17.4,31.4,11.5c11.9-5.8,16.4-21.2,9.3-32.4c-2.3-3.6-5-6.8-7.6-10.1C58.1,26.7,54.1,21.6,50.1,16.4z"/>
	<path class="st0" d="M67.5,3.1c0-0.3,0.1-0.6,0.1-0.8C67.8,1.6,68.3,1,69,0.9c0.8-0.2,1.6,0,2,0.7c1.1,1.7,2.1,3.5,3,5.2
		c0.5,0.9,0.1,1.8-0.8,2.3c-1.6,1-3.2,1.9-4.8,2.8c-0.9,0.5-2,0.2-2.5-0.7c-0.6-0.9-0.4-1.9,0.5-2.6c0.4-0.3,0.9-0.6,1.6-1
		c-1.2-0.5-2.3-0.9-3.4-1.3c-8-2.6-16.1-3.1-24.2-1.3c-10.6,2.3-19.4,7.8-26.2,16.3c-5,6.2-8.1,13.3-9.5,21.1
		C4,46,3.7,49.7,4.1,53.3c0,0.3,0,0.7,0,1c0,1.1-0.8,1.9-1.8,2c-1.1,0.1-1.9-0.6-2.1-1.7c-0.1-0.8-0.2-1.6-0.2-2.3
		c-0.9-23.6,14.5-45,38.2-50.8c9.5-2.3,18.9-1.8,28.1,1.4C66.7,2.9,67,3,67.3,3.1C67.3,3.1,67.4,3.1,67.5,3.1z"/>
	<path class="st0" d="M29.7,82.8c-0.1,8.6-7.2,15.5-15.7,15C5.6,97.4-1,89.3,0.1,81c0.4-2.9,1.5-5.6,3.3-7.9
		c3.2-4.2,6.4-8.4,9.6-12.5c1.2-1.6,2.5-1.6,3.7,0c3.3,4.4,6.7,8.8,10,13.2C28.7,76.3,29.7,79.6,29.7,82.8z M15,64.5
		c-0.2,0.3-0.4,0.4-0.5,0.6c-2.8,3.7-5.7,7.4-8.5,11.2c-1.8,2.4-2.3,5.2-1.9,8.1c0.7,4.5,3.9,8.1,8.3,9.2c4.2,1,8.6-0.7,11.2-4.3
		c2.6-3.7,3-8.9,0.5-12.4C21.2,72.7,18.1,68.7,15,64.5z"/>
	<path class="st0" d="M85.5,31.9c-1.3,0-2.2-0.6-2.3-1.8c-0.1-1,0.7-1.9,1.9-2.1c3.1-0.6,4.1-1.5,4.6-4.7c0.2-1.2,1-1.9,2.1-1.8
		c1,0.1,1.8,0.9,1.8,2.1C93.5,27.9,89.9,31.7,85.5,31.9z"/>
	<path class="st0" d="M69.2,57.6c-0.6,1.6-1.1,3.2-1.9,4.7c-2,3.9-5.1,6.8-9.2,8.6c-1.3,0.6-2.3,0.3-2.9-0.7
		c-0.5-1.1-0.1-2.2,1.2-2.8c3.1-1.4,5.6-3.6,7.3-6.6c0.5-1,0.9-2,1.3-3c0.1-0.4,0.2-0.7,0.4-1.1c0.4-0.9,1.3-1.3,2.2-1.1
		C68.5,55.8,69.1,56.6,69.2,57.6z"/>
	<path class="st0" d="M69.5,49.6c0,1-0.9,1.9-2,1.9c-1.1,0-2-1-1.9-2.1c0.1-1.1,0.9-1.9,2-1.8C68.7,47.7,69.5,48.6,69.5,49.6z"/>
	<path class="st0" d="M15.1,91.2c-1.2,0-2.1-0.6-2.2-1.7c-0.1-1,0.6-1.9,1.7-2.1c0.4-0.1,0.8-0.1,1.2-0.2c1.9-0.5,3.2-2.1,3.4-4.2
		c0.2-1.5,0.9-2.3,2.2-2.1c1.2,0.1,1.8,1.1,1.6,2.5C22.7,87.9,19.4,91.1,15.1,91.2z"/>
</g>
</svg>
