<?xml version="1.0" encoding="utf-8"?>
<!-- Generator: Adobe Illustrator 19.2.1, SVG Export Plug-In . SVG Version: 6.00 Build 0)  -->
<svg version="1.1" id="Capa_1" xmlns="http://www.w3.org/2000/svg" xmlns:xlink="http://www.w3.org/1999/xlink" x="0px" y="0px"
	 viewBox="0 0 100 100" style="enable-background:new 0 0 100 100;" xml:space="preserve">
<style type="text/css">
	.st0{fill:#FFFFFF;}
</style>
<g>
	<path class="st0" d="M75.4,0c0.8,0.5,1.1,1.1,1,2c-0.1,1.2,0,2.3,0,3.6c1.5,0,2.9,0,4.4,0c2.8,0,4.6,1.8,4.6,4.6
		c0,5.9,0,11.8,0,17.7c0,0.2,0,0.4,0,0.6c-0.1,0.8-0.6,1.2-1.4,1.3c-0.7,0-1.3-0.4-1.4-1.1c-0.1-0.4-0.1-0.8-0.1-1.2
		c0-5.6,0-11.3,0-16.9c0-1.7-0.4-2.1-2.1-2.1c-1.3,0-2.5,0-3.9,0c0,14.3,0,28.5,0,42.8c1.9,0,3.9,0,6,0c0-0.4,0-0.7,0-1.1
		c0-4.9,0-9.8,0-14.6c0-0.4,0-0.7,0.1-1.1c0.2-0.8,0.7-1.3,1.5-1.2c0.8,0.1,1.2,0.5,1.3,1.3c0,0.2,0,0.5,0,0.7c0,13.7,0,27.5,0,41.2
		c0,2.3-1,3.9-3,4.6c-0.7,0.2-1.4,0.3-2.2,0.4c-0.2,1.6-0.4,3.2-0.6,5c0.4,0,0.7,0,1.1,0c2.8,0,5.5,0,8.3,0c2.3,0,3.7,1.4,3.7,3.7
		c0,2.1,0,4.1,0,6.2c0,2.2-1.4,3.6-3.6,3.6c-26.1,0-52.2,0-78.3,0c-2.2,0-3.6-1.4-3.7-3.7c0-2.1,0-4.1,0-6.2c0-2.3,1.4-3.6,3.7-3.7
		c0.5,0,1.1,0,1.8,0c0-1.8,0-3.5,0-5.2c0-0.2-0.3-0.4-0.5-0.6c-1-0.7-1.5-1.7-1.5-2.9c0-3.8,0-7.7,0-11.5c0-2,1.2-3.2,3.2-3.5
		c0.2,0,0.4-0.1,0.7-0.1c0-0.4,0-0.9,0-1.3c0-17,0-34,0-51c0-3.1,1.8-4.8,4.8-4.8c0.8,0,1.6,0,2.6,0c0-0.8,0-1.6,0-2.3
		c0-1.6,0.4-2.1,2.1-2.1c11.7,0,23.4,0,35.1,0c1.3,0,2.4,0,3.1-1.2c0.3,0,0.7,0,1,0c0.8,0.4,1.1,1,1,1.9c-0.1,1.2,0,2.4,0,3.6
		c3.1,0,6.1,0,9.1,0c0-1.2,0-2.4,0-3.5c0-0.9,0.2-1.6,1-2.1C74.7,0,75.1,0,75.4,0z M17.6,62.7c0.2,0,0.3,0.1,0.5,0.1
		c2.6,0.2,3.7,1.4,3.7,4c0,1.3,0,2.5,0,3.8c0,2.6,0,5.1,0,7.8c0.5,0,0.8,0,1.2,0c8.2,0,16.3,0,24.5,0c0.4,0,0.7,0,1.1,0
		c0.8,0.1,1.3,0.6,1.3,1.4c0,0.8-0.5,1.3-1.3,1.4c-0.4,0-0.7,0-1.1,0c-5.8,0-11.7,0-17.5,0c-0.3,0-0.9,0.2-1,0.4
		c-0.2,1.5-0.4,3.1-0.5,4.7c1.5,0,2.8,0,4.1,0c0.8,0,1.3,0.5,1.4,1.3c0.1,0.8-0.3,1.3-1,1.6c-0.3,0.1-0.7,0.1-1.1,0.1
		c-6.8,0-13.7,0-20.5,0c-1,0-1.3,0.2-1.3,1.2c0.1,1.7,0.1,3.5,0,5.2c0,1,0.3,1.3,1.3,1.2c10.9,0,21.8,0,32.7,0c14.8,0,29.7,0,44.5,0
		c0.9,0,1.3-0.3,1.2-1.2c-0.1-1.7,0-3.3,0-5c0-1.5,0-1.5-1.4-1.5c-16.2,0-32.4,0-48.5,0c-0.3,0-0.7,0-1,0c-0.8-0.1-1.4-0.7-1.4-1.5
		c0-0.8,0.6-1.4,1.4-1.4c0.3,0,0.7,0,1,0c10.1,0,20.2,0,30.4,0c0.4,0,0.8,0,1.2,0c-0.2-1.8-0.4-3.4-0.6-5.1c-0.5,0-0.9,0-1.3,0
		c-4.6,0-9.2,0-13.9,0c-0.3,0-0.6,0-0.9,0c-0.9-0.1-1.5-0.7-1.5-1.5c0-0.8,0.6-1.4,1.5-1.5c0.3,0,0.7,0,1,0c8.1,0,16.3,0,24.4,0
		c1.8,0,2.2-0.4,2.2-2.2c0-7,0-13.9,0-20.9c0-0.3,0-0.6,0-1c-2,0-4,0-6,0c0,0.4,0,0.8,0,1.1c0,3.2,0,6.3,0,9.5
		c0,1.2-0.5,1.9-1.5,1.9c-0.9,0-1.4-0.7-1.5-1.9c0-0.8,0-1.7,0-2.5c-3.1,0-6.1,0-9.2,0c0,1.1,0,2.1,0,3.1c0,0.8-0.5,1.3-1.3,1.3
		c-0.8,0.1-1.3-0.3-1.5-1.1c-0.1-0.3-0.1-0.7-0.1-1.1c0-3.1,0-6.2,0-9.3c0-0.3,0-0.7-0.1-1c-14.6,0-29.2,0-43.8,0
		C17.6,57.2,17.6,59.9,17.6,62.7z M17.5,51.3c14.7,0,29.2,0,43.8,0c0-14.3,0-28.5,0-42.8c-0.4,0-0.8,0-1.2,0c-13.4,0-26.9,0-40.3,0
		c-2,0-2.3,0.3-2.3,2.3c0,13.1,0,26.2,0,39.2C17.5,50.5,17.5,50.9,17.5,51.3z M18.8,72.2c0-1.8,0-3.6,0-5.5c0-0.7-0.2-1-1-1
		c-1.1,0-2.2,0-3.3,0c-0.7,0-1,0.2-1,1c0,3.6,0,7.2,0,10.8c0,0.7,0.3,1,1,0.9c1.1,0,2.1,0,3.2,0c0.8,0,1.1-0.3,1-1.1
		C18.8,75.6,18.8,73.9,18.8,72.2z M64.4,27.2c3.1,0,6,0,9,0c0-1.7,0-3.3,0-5c-3,0-6,0-9,0C64.4,23.9,64.4,25.5,64.4,27.2z
		 M73.4,35.3c0-1.7,0-3.4,0-5c-3.1,0-6,0-9,0c0,1.7,0,3.3,0,5C67.4,35.3,70.4,35.3,73.4,35.3z M64.4,38.3c0,1.7,0,3.3,0,5
		c3.1,0,6,0,9,0c0-1.7,0-3.4,0-5C70.3,38.3,67.4,38.3,64.4,38.3z M64.4,46.3c0,1.7,0,3.3,0,5c3,0,6,0,9,0c0-1.7,0-3.3,0-5
		C70.4,46.3,67.4,46.3,64.4,46.3z M73.4,14.2c-3.1,0-6,0-9.1,0c0,1.5,0,2.8,0,4.2c0,0.6,0.2,0.8,0.8,0.8c2,0,4.1,0,6.1,0
		c0.7,0,1.4,0,2.1,0C73.4,17.5,73.4,15.9,73.4,14.2z M73.4,54.4c-3.1,0-6,0-9.1,0c0,1.5,0,2.8,0,4.2c0,0.6,0.2,0.8,0.8,0.8
		c2.1,0,4.2,0,6.3,0c0.6,0,1.3,0,1.9,0C73.4,57.7,73.4,56.1,73.4,54.4z M61.3,4.2c-8.7,0-17.2,0-25.7,0c0,0.5,0,0.9,0,1.4
		c8.6,0,17.2,0,25.7,0C61.3,5.1,61.3,4.7,61.3,4.2z M73.4,8.6c-3.1,0-6,0-9,0c0,0.9,0,1.7,0,2.5c3,0,6,0,9,0
		C73.4,10.3,73.4,9.5,73.4,8.6z M19.7,81.4c-1.4,0-2.7,0-4.1,0c0,1.7,0,3.3,0,5c1.6,0,3.1,0,4.6,0C20.1,84.8,19.9,83.1,19.7,81.4z
		 M25.6,86.5c0.2-1.7,0.3-3.4,0.5-5c-1.2,0-2.3,0-3.4,0c0.2,1.7,0.4,3.4,0.6,5C24.1,86.5,24.8,86.5,25.6,86.5z M76.8,86.5
		c0.2-1.7,0.4-3.3,0.5-5c-1.2,0-2.2,0-3.4,0c0.2,1.7,0.4,3.4,0.5,5C75.2,86.5,75.9,86.5,76.8,86.5z M32.5,4.2c-2.6,0-5,0-7.5,0
		c0,0.5,0,0.9,0,1.4c1.3,0,2.5,0,3.8,0c1.2,0,2.5,0,3.7,0C32.5,5.1,32.5,4.7,32.5,4.2z"/>
	<path class="st0" d="M31.5,73.3c-3.4,0-6.1-2.5-6.6-5.9c-0.4-3.2,1.7-6.4,4.9-7.2c3.3-0.9,6.6,0.8,7.9,3.9c0.3,0.6,0.4,1.1,1.3,1.2
		c0.4,0.1,0.9,0.8,1,1.3c0.1,0.7-0.4,1.3-1.1,1.4c-0.7,0.1-0.9,0.4-1.1,1C36.8,71.6,34.3,73.3,31.5,73.3z M34.9,68.1
		c-0.7,0-1.3,0-2,0c-0.9-0.1-1.5-0.7-1.4-1.6c0.1-0.9,0.6-1.3,1.5-1.3c0.6,0,1.2,0,1.8,0c-0.7-1.7-2.3-2.6-4-2.3
		c-1.7,0.3-3.1,1.8-3.1,3.6c0,1.7,1.2,3.3,2.9,3.7C32.4,70.7,34.1,69.9,34.9,68.1z"/>
	<path class="st0" d="M24.6,56.2c1.2,0,1.9,0.6,1.9,1.5c0,0.9-0.8,1.4-1.9,1.4c-1.2,0-1.9-0.6-1.9-1.5
		C22.7,56.7,23.4,56.2,24.6,56.2z"/>
	<path class="st0" d="M51,49.4c-0.5,0-1,0-1.6,0c-0.9-0.1-1.6-0.7-1.6-1.5c0-0.8,0.6-1.4,1.6-1.4c1,0,2.1,0,3.1,0
		c0.9,0,1.5,0.6,1.5,1.4c0,0.8-0.6,1.4-1.5,1.5C52.1,49.4,51.5,49.4,51,49.4C51,49.4,51,49.4,51,49.4z"/>
	<path class="st0" d="M28,46.5c0.6,0,1.1,0,1.7,0c0.8,0,1.3,0.5,1.4,1.3c0.1,0.8-0.4,1.5-1.3,1.6c-1.2,0.1-2.4,0.1-3.6,0
		c-0.8,0-1.4-0.8-1.3-1.5c0-0.8,0.6-1.3,1.5-1.4c0.1,0,0.1,0,0.2,0C27,46.5,27.5,46.5,28,46.5C28,46.5,28,46.5,28,46.5z"/>
</g>
</svg>
