<?xml version="1.0" encoding="utf-8"?>
<!-- Generator: Adobe Illustrator 19.2.1, SVG Export Plug-In . SVG Version: 6.00 Build 0)  -->
<svg version="1.1" id="Capa_1" xmlns="http://www.w3.org/2000/svg" xmlns:xlink="http://www.w3.org/1999/xlink" x="0px" y="0px"
	 viewBox="0 0 100 100" style="enable-background:new 0 0 100 100;" xml:space="preserve">
<style type="text/css">
	.st0{fill:#FFFFFF;}
</style>
<g>
	<path class="st0" d="M69.3,83.9c-8,0-16,0-24,0c-0.2,1.8-1.4,2.7-2.9,3.4c-2.5,1.3-5.3,1.8-8,2.2c-7.8,1.1-15.7,1.1-23.5,0
		c-2.7-0.4-5.4-0.9-7.9-2.1c-2-0.9-3-2.3-2.9-4.7c0.1-3.7,0.1-7.3,0-11c0-1.8,0.7-3,2.2-3.9c2.1-1.3,4.5-1.8,7-2.2
		C19,64,28.7,64,38.4,66.1c1.6,0.4,3.2,1.1,4.7,1.8c1.5,0.7,2.3,2,2.1,3.8c-0.1,0.8,0,1.5,0,2.4c8,0,16.1,0,24.1,0c0-1,0-2,0-3.2
		c-1,0-2,0-2.9,0c-0.8,0-1.5-0.3-1.7-1.1c-0.3-0.8,0-1.4,0.7-1.9c5.2-4.2,10.5-8.4,15.7-12.6c0.9-0.7,1.5-0.7,2.4,0
		C88.7,59.6,94,63.8,99.2,68c0.6,0.5,1,1.1,0.7,1.9c-0.3,0.8-0.9,1.1-1.8,1.1c-0.9,0-1.9,0-3,0c0,0.4,0,0.8,0,1.1c0,5.3,0,10.7,0,16
		c0,1.7-0.5,2.2-2.2,2.2c-7.1,0-14.2,0-21.4,0c-1.7,0-2.2-0.5-2.2-2.2c0-1.3,0-2.6,0-3.9C69.4,84.1,69.3,84,69.3,83.9z M42,74.9
		c-13,3.3-25.8,3.3-38.7,0c0,2.6,0,5.3,0,8.1c0,0.7,0.3,1.2,0.9,1.4c1.3,0.5,2.5,1,3.8,1.3c8.8,1.9,17.7,1.9,26.5,0.5
		c2.2-0.3,4.3-1.1,6.5-1.8c0.4-0.1,1-0.7,1-1.1C42,80.5,42,77.7,42,74.9z M91.9,87c0-5.4,0-10.7,0-16c-6.5,0-12.9,0-19.2,0
		c0,5.4,0,10.7,0,16C79.1,87,85.4,87,91.9,87z M41.8,71.3c0-0.2,0-0.3,0-0.5c-0.6-0.3-1.2-0.7-1.8-0.8c-2-0.5-3.9-1.1-6-1.4
		c-6.7-1.1-13.4-1.2-20.1-0.4c-3.1,0.4-6.1,1.2-9.1,1.9c-0.5,0.1-0.9,0.5-1.4,0.7c0,0.1,0,0.3,0,0.4c1.3,0.4,2.5,1,3.8,1.3
		c10.1,2.3,20.2,2.2,30.3,0.2C39,72.4,40.4,71.8,41.8,71.3z M93.6,67.7c-0.2-0.2-0.2-0.3-0.3-0.3c-3.5-2.8-7-5.6-10.5-8.4
		c-0.5-0.4-0.8-0.3-1.2,0.1c-3.4,2.7-6.7,5.4-10.1,8.1c-0.2,0.2-0.4,0.2-0.7,0.4c0.1,0.1,0.1,0.2,0.2,0.2
		C78.5,67.7,86,67.7,93.6,67.7z M69.3,77.5c-8.1,0-16.1,0-24.1,0c0,1.1,0,2.1,0,3.1c8.1,0,16,0,24.1,0
		C69.3,79.5,69.3,78.5,69.3,77.5z"/>
	<path class="st0" d="M87.9,15.9c0.3-1.2,0.5-2.1,0.7-3.1c0.2-0.9,0.7-1.6,1.7-1.6c1,0,1.5,0.7,1.6,1.6c0.1,0.7,0.3,1.4,0.5,2.1
		c1,3,3,5,6,6c0.8,0.3,1.4,0.6,1.5,1.5c0.1,0.9-0.5,1.3-1.1,1.7c-1.1,0.7-2.2,1.5-3.3,2.3c-0.6,0.4-0.6,0.8-0.3,1.5
		c4.5,9.2-1.8,18.5-10,20.1c-5.7,1.1-10.4-0.7-14.2-5.1c-0.2-0.3-0.4-0.5-0.7-0.8c-1.2,1.4-2,3-2.5,4.7c-0.3,0.9-0.7,1.6-1.7,1.6
		c-1,0-1.4-0.7-1.7-1.6c-1.1-3.6-3.3-6.3-6.6-8c-0.8-0.4-1.4-0.8-1.4-1.8c0.1-1,0.8-1.3,1.7-1.6c3.4-1.1,5.4-3.5,6.2-6.9
		c0.1-0.5,0.1-0.9,0.3-1.4c0.2-0.8,0.7-1.2,1.5-1.2c0.9,0,1.4,0.5,1.6,1.3c0.2,0.9,0.4,1.9,0.8,2.8c0.2-0.6,0.5-1.2,0.7-1.7
		c2.6-5.8,6.3-10.9,10.2-15.9c0.5-0.6,0.9-1.2,1.5-1.8c0.9-1,2-1,2.8,0C85.1,12.2,86.4,14,87.9,15.9z M82.3,13.8
		c-3.5,4.6-6.9,9-9.3,14.1c-0.8,1.6-1.3,3.3-1.8,5c-0.1,0.3,0.1,1,0.4,1.1c0.9,0.6,1.9,1,2.9,1.4c0.8,0.3,1.3,0.7,1.4,1.5
		c0.1,0.8-0.4,1.3-1.1,1.7c-0.7,0.4-1.3,0.8-2,1.1c3,5.4,10.5,7,15.8,3.4c4.9-3.3,6-9.8,4-12.6c-0.2,0.6-0.5,1.2-0.6,1.7
		c-0.2,0.9-0.7,1.6-1.7,1.5c-0.9,0-1.4-0.7-1.6-1.5c-1.1-3.6-3.3-6.3-6.7-8.1c-0.8-0.4-1.4-0.8-1.3-1.8c0.1-1,0.8-1.3,1.6-1.6
		c1.4-0.4,2.6-1.1,3.6-2.2C84.7,17,83.5,15.5,82.3,13.8z M86.2,22.9c1.3,1.5,2.8,3.1,4.1,4.7c1.4-1.5,2.8-3.2,4.1-4.7
		c-1.4-1.4-2.8-2.9-4.1-4.2C89,20,87.5,21.5,86.2,22.9z M70.4,37.3c-0.7-0.6-1.5-1.2-2.3-2c-0.7-0.7-1.3-1.6-1.8-2.2
		c-1.4,1.5-2.9,3-4.2,4.3c1.4,1.5,2.8,3.2,4.1,4.7C67.5,40.5,68.9,38.9,70.4,37.3z"/>
	<path class="st0" d="M23.4,48.4c-8.9,0-15.5-6.6-15.3-14.6c0-2.3,0.9-4.5,1.9-6.5c3-6.2,7-11.6,11.3-16.9c0.8-1,1.9-1,2.7,0
		C28.2,15.6,32.1,21,35.2,27c2.4,4.7,2.8,9.4,0,14.1C32.3,45.9,28.1,48.2,23.4,48.4z M22.6,13.8c-1.1,1.5-2.1,2.8-3.1,4.2
		c-2.8,3.9-5.5,7.9-7.3,12.3c-0.9,2.2-1,4.3-0.4,6.6c1.7,6.2,8.3,9.7,14.5,7.7c5.6-1.8,9.5-8.6,6.7-14.6
		C30.3,24.1,26.5,19,22.6,13.8z"/>
	<path class="st0" d="M18.6,32c-0.7-0.6-1.3-1.1-2-1.7c0.9-0.8,1.7-1.5,2.6-2.3c0.5,0.6,1,1.3,1.5,2c0.1-0.1,0.2-0.1,0.3-0.2
		c0-0.7,0-1.5,0-2.3c1.1,0,2.1,0,3.2,0c0,0.7,0,1.5,0,2.2c0.1,0,0.2,0.1,0.2,0.1c0.6-0.7,1.1-1.4,1.7-2.1c0.9,0.9,1.6,1.7,2.4,2.4
		c-0.6,0.6-1.2,1.3-1.9,2c0.9,0,1.6,0,2.4,0c0,1.1,0,2.1,0,3.2c-0.7,0-1.5,0-2.5,0c0.8,0.8,1.4,1.4,2,2.1c-0.8,0.7-1.5,1.4-2.4,2.3
		c-0.5-0.6-1-1.3-1.6-2c-0.1,0.1-0.2,0.1-0.3,0.2c0,0.7,0,1.5,0,2.3c-1.1,0-2.1,0-3.2,0c0-0.7,0-1.5,0-2.2c-0.1-0.1-0.2-0.1-0.3-0.2
		c-0.6,0.7-1.1,1.4-1.7,2.1c-0.9-1-1.6-1.7-2.4-2.5c0.6-0.6,1.2-1.3,1.9-2c-0.9,0-1.6,0-2.4,0c0-1.1,0-2.1,0-3.2c0.7,0,1.5,0,2.2,0
		C18.5,32.2,18.5,32.1,18.6,32z"/>
</g>
</svg>
