<?xml version="1.0" encoding="utf-8"?>
<!-- Generator: Adobe Illustrator 19.2.1, SVG Export Plug-In . SVG Version: 6.00 Build 0)  -->
<svg version="1.1" id="Capa_1" xmlns="http://www.w3.org/2000/svg" xmlns:xlink="http://www.w3.org/1999/xlink" x="0px" y="0px"
	 viewBox="0 0 100 100" style="enable-background:new 0 0 100 100;" xml:space="preserve">
<style type="text/css">
	.st0{fill:#FFFFFF;}
</style>
<g>
	<path class="st0" d="M0,31.1C0.6,30.2,1.4,30,2.3,30c6.7-0.4,13.4-0.8,20.2-1.2c1.7-0.1,3.4-0.2,5.2-0.3c1.4-0.1,1.8,0.2,2.4,1.4
		c3.2,6.9,6.4,13.9,9.6,20.8c0.4,0.8,0.5,1.6-0.1,2.3c-0.7,0.7-1.4,0.6-2.3,0.3c-2.1-0.8-4.2-1.6-6.4-2.5c-2.7,4.7-5.5,9.5-8.3,14.4
		c0.5,0,0.8,0,1.2,0c3.6,0,7.2,0,10.7,0c1.7,0,2.2,0.6,2.2,2.2c0,7.4,0,14.8,0,22.2c0,1.7-0.6,2.3-2.2,2.2c-2.7,0-5.4,0.1-8.1-0.2
		c-3.8-0.5-6.7-2.7-8.6-6C13.1,77.3,8.4,69.2,3.7,61c-2.1-3.7-2.2-7.6-0.4-11.4c1.8-3.8,3.8-7.6,5.7-11.4c-1.8-1.1-3.5-2.2-5.3-3.3
		c-0.8-0.5-1.6-0.9-2.4-1.5C0.8,33,0.4,32.5,0,32C0,31.7,0,31.4,0,31.1z M14.3,72.7c0.3-0.5,0.5-0.8,0.7-1.1
		c4.4-7.7,8.9-15.4,13.3-23.2c0.9-1.6,1.4-1.8,3.2-1.1c1.1,0.4,2.3,0.9,3.6,1.3c-0.1-0.3-0.2-0.5-0.2-0.6
		c-2.4-5.2-4.8-10.4-7.2-15.6c-0.3-0.6-0.6-0.7-1.2-0.6c-5.8,0.4-11.7,0.7-17.5,1.1c-0.5,0-1,0.1-1.8,0.2c1.6,1,3,1.9,4.4,2.7
		c1.6,1,1.7,1.5,0.9,3.2c-2,4-3.9,7.9-5.9,11.9c-1.5,3-1.4,5.9,0.3,8.8c2.3,3.9,4.5,7.8,6.8,11.7C13.7,71.8,14,72.1,14.3,72.7z
		 M33.3,68.4c-0.2,0-0.3-0.1-0.3-0.1c-3.8,0-7.7,0-11.5,0c-0.3,0-0.7,0.3-0.9,0.6c-1.4,2.1-2.7,4.3-4,6.5c-0.3,0.4-0.3,0.7,0,1.2
		c1.4,2.4,2.7,4.8,4.2,7.1c0.8,1.2,1.8,2.3,3,3.1c2.9,2.1,6.3,1.2,9.6,1.4C33.3,81.6,33.3,75.1,33.3,68.4z"/>
	<path class="st0" d="M61.7,91.7c0,1.3,0,2.5,0,3.7c0,0.4,0,0.7,0,1.1c0,0.8-0.3,1.5-1.1,1.8c-0.8,0.3-1.5-0.1-2-0.7
		c-1.5-2-3-3.9-4.5-5.9c-3.8-5-7.7-10-11.5-15c-1.1-1.4-1-1.9,0.1-3.2c5-5.5,10-11,15-16.5c0.3-0.4,0.7-0.7,1-1.1
		c0.6-0.6,1.2-0.9,2-0.6c0.8,0.3,1,1,1,1.7c0,1.5,0,3.1,0,4.6c0,0.6,0,1.2,0,1.8c5.2,0,10.2,0,15.4,0c-0.2-0.3-0.3-0.6-0.5-0.9
		c-2-3.7-4.1-7.3-6.1-11c-0.8-1.5-0.6-2.2,0.9-3.1c6.3-3.7,12.6-7.4,19-11.1c1.5-0.9,2.3-0.6,3.1,0.9c1.8,3.5,3.6,7.1,5.3,10.6
		c1.9,4,1.7,7.9-0.5,11.6C93.1,68.9,88,77.4,83,86c-2.2,3.8-5.5,5.7-9.9,5.7c-3.4,0-6.8,0-10.2,0C62.6,91.7,62.2,91.7,61.7,91.7z
		 M58.3,91.7c0-0.5,0.1-0.6,0.1-0.8c0.1-2.3,0.4-2.6,2.7-2.6c4.1,0,8.2,0,12.3,0c3,0,5.2-1.3,6.7-3.9c3.3-5.6,6.5-11.2,9.8-16.8
		c0.2-0.3,0.3-0.6,0.5-1c-0.5,0-0.8,0-1.2,0c-9.5,0-19.1,0-28.6,0c-1.7,0-2.2-0.5-2.2-2.2c0-1.1,0-2.1,0-3.2c-0.1,0-0.1-0.1-0.2-0.1
		c-4.2,4.6-8.4,9.3-12.6,13.9C49.7,80.6,53.9,86,58.3,91.7z M90.9,40.7c-5.7,3.3-11.3,6.6-17,9.9c0.1,0.2,0.1,0.3,0.1,0.4
		c2.2,4,4.4,7.9,6.6,11.8c0.1,0.3,0.6,0.5,0.9,0.5c3.4,0,6.8,0,10.2,0c0.3,0,0.8-0.2,0.9-0.5c1-1.5,1.9-3,2.8-4.6
		c1.5-2.6,1.6-5.3,0.2-8c-0.8-1.6-1.6-3.3-2.4-4.9C92.5,43.8,91.7,42.3,90.9,40.7z"/>
	<path class="st0" d="M82.1,17.2c2.3-1.2,4.5-2.3,6.8-3.4c1-0.5,1.9-0.4,2.4,0.2c0.6,0.7,0.4,1.4,0,2.2c-2,4-3.9,8.1-5.9,12.1
		c-1.8,3.7-3.6,7.5-5.4,11.2c-0.8,1.6-1.1,1.8-2.8,1.6c-7.7-0.9-15.4-1.7-23.2-2.6c-0.2,0-0.4-0.1-0.7-0.1c-0.8-0.1-1.4-0.5-1.6-1.3
		c-0.2-0.9,0.2-1.5,1-1.9c1.9-1.1,3.8-2.3,5.8-3.5c0.3-0.2,0.6-0.4,0.9-0.6c-2.5-4.8-5.1-9.5-7.6-14.4c-0.3,0.4-0.4,0.7-0.6,1
		c-2,3.6-4,7.3-6.1,10.9c-0.9,1.7-1.7,1.9-3.3,0.8c-5.7-3.6-11.4-7.3-17.1-10.9c-1.6-1-1.7-1.7-0.8-3.3c1.5-2.5,3.1-5,4.6-7.5
		c2.3-3.8,5.7-6,10.2-6c9.6-0.1,19.1-0.1,28.7,0.1c3.6,0,6.5,1.9,8.4,4.9c2,3.1,3.7,6.3,5.6,9.5C81.6,16.5,81.8,16.8,82.1,17.2z
		 M86.3,18.8c-1.4,0.7-2.5,1.2-3.6,1.8c-1.5,0.8-2.2,0.6-3-0.9c-2-3.4-4-6.8-6-10.3C72,6.4,69.5,5,66.1,5c-5.1,0-10.3,0-15.4,0
		c-0.3,0-0.7,0-1.1,0.1c0.2,0.4,0.4,0.8,0.5,1.1C54.2,14.1,58.4,22,62.6,30c1.1,2,0.9,2.5-1,3.7c-1,0.6-2,1.2-3.2,1.9
		c0.6,0.1,1,0.1,1.4,0.2c5.4,0.6,10.9,1.2,16.3,1.9c0.7,0.1,1.1-0.1,1.4-0.7c2.7-5.7,5.5-11.4,8.2-17C85.9,19.6,86,19.3,86.3,18.8z
		 M42.7,26c2.3-4.2,4.6-8.2,6.8-12.3c0.1-0.2,0-0.6-0.1-0.9c-1.2-2.4-2.3-4.8-3.6-7.1c-0.1-0.3-0.6-0.6-0.9-0.6
		c-2.2,0-4.4-0.1-6.6,0c-2.5,0.1-4.7,1.1-6.1,3.1c-1.8,2.5-3.4,5.2-5.1,7.9C32.4,19.4,37.5,22.7,42.7,26z"/>
</g>
</svg>
