<?xml version="1.0" encoding="utf-8"?>
<!-- Generator: Adobe Illustrator 19.2.1, SVG Export Plug-In . SVG Version: 6.00 Build 0)  -->
<svg version="1.1" id="Capa_1" xmlns="http://www.w3.org/2000/svg" xmlns:xlink="http://www.w3.org/1999/xlink" x="0px" y="0px"
	 viewBox="0 0 100 100" style="enable-background:new 0 0 100 100;" xml:space="preserve">
<style type="text/css">
	.st0{fill:#FFFFFF;}
</style>
<g>
	<path class="st0" d="M56.1,0c0.6,0.2,1.3,0.4,1.9,0.7c2,0.9,3.2,2.5,3.8,4.6c0.2,0.7,0.3,1.3,0.5,2.1c2.4-0.6,4.8-1.2,7.1-1.8
		c3-0.8,6-1.6,9.1-2.3c4.2-0.9,8.4,1.7,9.6,5.8c0.4,1.3,0.7,2.6,1,4c0.4,1.5-0.2,2.4-1.6,2.8c-3.6,0.9-7.2,1.8-10.8,2.8
		c-2.6,0.7-5.1,1.3-7.7,2c0,0.1,0,0.2,0,0.3c1.1,0.1,2.2,0.2,3.3,0.2c4.9-0.1,8.5,2,10.7,6.4c0.1,0.3,0.6,0.5,0.9,0.6
		c0.5,0.1,1.1,0,1.7,0c1.4,0.1,2.1,0.9,2,2.2c-0.2,2.5-0.5,5.1-0.7,7.6c-0.1,1.1-0.2,2.1-0.3,3.2c-0.1,1.3-1,2.2-2.1,2.1
		c-1.2-0.1-1.9-1-1.8-2.4c0.2-2.4,0.5-4.7,0.7-7.1c0-0.5,0.1-1,0.1-1.7c-0.4,0-0.7,0-1.1,0c-19.1,0-38.2,0-57.3,0c-0.3,0-0.6,0-1,0
		c-0.6,0-0.8,0.3-0.7,1c1.3,12.7,2.5,25.4,3.8,38.1c0.4,4.5,0.9,9.1,1.3,13.6c0.2,2.2,1.4,3.2,3.7,3.2c5,0,10,0,15,0
		c9,0,18.1,0,27.1,0c2.7,0,3.8-1,4.1-3.7c0.8-8.6,1.7-17.2,2.5-25.7c0.1-1.3,1-2.1,2.2-2c1.1,0.1,1.8,1,1.7,2.3
		c-0.4,4.3-0.8,8.6-1.2,12.9c-0.4,4.3-0.9,8.5-1.3,12.8c-0.4,4.3-2.4,6.6-6.7,7.3c-0.1,0-0.2,0-0.4,0.1c0,1.9,0,3.7,0,5.6
		c0,1.9-0.7,2.5-2.5,2.5c-12.9,0-25.7,0-38.6,0c-1.9,0-2.5-0.6-2.5-2.5c0-1.9,0-3.7,0-5.7c-0.4-0.1-0.7-0.1-1.1-0.2
		c-3.2-0.5-5.6-3-5.9-6.2c-1.1-10.7-2.1-21.4-3.1-32.1c-0.7-6.7-1.3-13.3-2-20.1c-1.7,0.4-3.4,0.8-5,1.2c-1.3,0.3-2.2-0.2-2.5-1.5
		c-0.4-1.4-0.7-2.9-1.1-4.4c-0.3-1.1,0.3-2.1,1.4-2.4c1.1-0.3,2,0.3,2.4,1.5c0.2,0.8,0.4,1.7,0.6,2.6c23.2-5.9,46.4-11.9,69.5-17.8
		c-0.2-2.9-1.5-4.8-3.8-5.3c-0.8-0.2-1.7-0.1-2.5,0.1C67.3,10.1,56,13,44.7,15.9c-6.1,1.6-12.2,3.1-18.3,4.7
		c-1.4,0.3-2.4-0.2-2.7-1.3c-0.3-1.1,0.4-2.1,1.8-2.4c2.4-0.6,4.8-1.2,7.2-1.9c-0.2-0.8-0.4-1.5-0.5-2.2c-0.9-3.8,1.3-7.4,5-8.4
		c5.4-1.4,10.8-2.8,16.2-4.1c0.2,0,0.3-0.1,0.4-0.2C54.6,0,55.3,0,56.1,0z M71.2,91.8c-11.9,0-23.8,0-35.7,0c0,1.4,0,2.8,0,4.2
		c11.9,0,23.8,0,35.7,0C71.2,94.6,71.2,93.3,71.2,91.8z M78.6,28c-0.1-0.2-0.1-0.3-0.2-0.4c-0.1-0.2-0.3-0.4-0.4-0.5
		c-1.5-1.6-3.4-2.3-5.6-2.2c-2.6,0.1-5-0.4-7.3-1.6c-1.6-0.8-3.3-0.9-5-0.5c-6.4,1.6-12.8,3.3-19.2,4.9c-0.2,0-0.4,0.1-0.7,0.3
		C53.1,28,65.8,28,78.6,28z M58.5,8.4c-0.2-0.8-0.4-1.6-0.6-2.3c-0.5-1.7-2-2.5-3.7-2c-1.4,0.3-2.8,0.7-4.2,1.1c-3.9,1-7.7,2-11.6,3
		c-1.8,0.5-2.7,1.7-2.5,3.3c0.1,0.9,0.4,1.7,0.6,2.6C43.9,12.1,51.1,10.2,58.5,8.4z"/>
	<path class="st0" d="M56.9,50.6c-0.7-1.1-1.2-2.2-1.9-3.2c-0.7-1.1-2.1-1-2.8,0.2c-1.1,1.9-2.2,3.9-3.4,5.8
		c-0.2,0.3-0.3,0.6-0.5,0.8c-0.6,0.8-1.6,0.9-2.5,0.4c-0.8-0.5-1.3-1.5-0.8-2.4c1.4-2.5,2.7-5.2,4.5-7.5c2.1-2.9,6.8-2.5,8.8,0.5
		c0.8,1.2,1.5,2.5,2.3,3.8c0.2-0.3,0.4-0.5,0.6-0.7c0.7-0.7,1.6-0.8,2.4-0.3c0.7,0.5,1.2,1.4,0.8,2.2c-0.6,1.4-1.3,2.8-2.1,4.2
		c-0.4,0.7-1.1,0.9-2,0.8c-1.1-0.2-2.2-0.3-3.3-0.5c-1.4-0.2-2.1-0.8-2.2-1.8C54.8,51.7,55.3,51,56.9,50.6z"/>
	<path class="st0" d="M38.9,62.7c-1.6-0.4-2.1-0.9-2.2-2c0-1,0.5-1.8,1.5-2c1.4-0.2,2.9-0.4,4.4-0.5c0.9-0.1,1.5,0.4,1.9,1.3
		c0.5,1.1,1,2.3,1.5,3.4c0.4,1.1,0.2,2-0.7,2.6c-0.9,0.6-1.8,0.3-2.7-0.6c-0.1-0.1-0.1-0.1-0.3-0.2c-0.6,1-1.2,2-1.7,3
		c-0.7,1.3,0,2.5,1.5,2.5c2.2,0,4.4,0,6.6,0c0.4,0,0.8,0,1.2,0.1c1,0.2,1.6,1.1,1.5,2.1c-0.1,0.9-0.8,1.7-1.8,1.7
		c-2.8,0-5.6,0.1-8.4,0c-3.7-0.2-5.9-4.4-4.3-7.8C37.5,65,38.2,63.9,38.9,62.7z"/>
	<path class="st0" d="M62,74.1c0.1,0.4,0.2,0.6,0.3,0.8c0.2,0.9-0.1,1.7-1,2.2c-0.8,0.5-1.7,0.4-2.3-0.4c-1-1.1-1.8-2.4-2.7-3.6
		c-0.5-0.7-0.3-1.5,0.2-2.2c0.7-1,1.4-1.9,2.2-2.9c0.8-1,1.7-1.3,2.6-0.8c0.9,0.5,1.2,1.3,0.9,2.6c0,0.1,0,0.2,0,0.4
		c1.2,0,2.4,0.1,3.6,0c1.2-0.1,1.7-1.4,1-2.5c-1.1-2-2.3-3.9-3.4-5.9c-0.4-0.7-0.4-1.5,0.1-2.2c0.5-0.6,1.2-0.9,1.9-0.7
		c0.5,0.2,1.1,0.5,1.4,1c1.3,2.1,2.5,4.2,3.6,6.3c1.9,3.6-0.7,7.8-4.8,8C64.4,74.1,63.3,74.1,62,74.1z"/>
	<path class="st0" d="M15.6,20.8c0-1.1,0.8-1.9,1.9-1.9c1.1,0,1.9,0.9,2,1.9c0,1.1-0.9,2-2,2C16.4,22.8,15.6,21.9,15.6,20.8z"/>
	<path class="st0" d="M83.8,51.6c-1.1,0-1.9-0.8-2-1.8c0-1.1,0.8-2,1.9-2c1.1,0,1.9,0.9,1.9,1.9C85.6,50.7,84.8,51.6,83.8,51.6z"/>
</g>
</svg>
