<?xml version="1.0" encoding="utf-8"?>
<!-- Generator: Adobe Illustrator 19.2.1, SVG Export Plug-In . SVG Version: 6.00 Build 0)  -->
<svg version="1.1" id="Capa_1" xmlns="http://www.w3.org/2000/svg" xmlns:xlink="http://www.w3.org/1999/xlink" x="0px" y="0px"
	 viewBox="0 0 100 100" style="enable-background:new 0 0 100 100;" xml:space="preserve">
<style type="text/css">
	.st0{fill:#FFFFFF;}
</style>
<g>
	<path class="st0" d="M6.9,100c-0.9-0.6-2.1-1.1-2.8-2c-0.6-0.8-0.9-2-0.9-3.1c-0.1-6.6,0-13.2,0-19.8c0-0.7-0.1-1.1-0.8-1.4
		c-1.5-0.7-2.2-1.9-2.3-3.6c0-1.1,0-2.3,0-3.4c0-2.5,1.7-4.2,4.2-4.2c0.3,0,0.6,0,1.1,0c0-1,0-2,0-3c0.1-2.5,1.3-4.5,3.3-6
		c0.9-0.7,1.8-0.5,2.3,0.2c0.5,0.7,0.3,1.5-0.6,2.2c-1.5,1.1-2.2,2.5-2.1,4.3c0,0.7,0,1.5,0,2.3c0.9,0,1.7,0,2.6,0
		c0-0.8,0-1.5,0-2.2c0-1.6,0.9-2.4,2.4-2.4c3,0,5.9,0,8.9,0c1.6,0,2.4,0.8,2.4,2.4c0,0.7,0,1.5,0,2.3c0.9,0,1.7,0,2.7,0
		c-0.1-1.4-0.1-2.7-0.4-4c-0.5-2-2.4-3.3-4.6-3.3c-1.9,0-3.7,0-5.6,0c-1.1,0-1.8-0.6-1.8-1.5c0-0.9,0.7-1.4,1.7-1.4
		c2.3,0,4.6-0.1,6.8,0.2c3.7,0.5,6.4,3.6,6.5,7.4c0,0.9,0,1.8,0,2.6c1.3,0.3,2.5,0.6,3.8,0.9c1.1-0.3,2.3-0.6,3.7-0.9
		c0-0.5,0-1.1,0-1.8c0-5,3.3-8.3,8.3-8.3c2.8,0,5.6,0,8.4,0c4.7,0,8,3.2,8.1,7.9c0,0.8,0,1.5,0,2.2c1.3,0.3,2.5,0.6,3.8,0.9
		c1.1-0.3,2.3-0.6,3.7-0.9c0-0.9-0.1-2,0-3.1c0.4-3.7,3-6.5,6.7-6.8c3.8-0.3,7.7-0.3,11.6,0c3.7,0.3,6.4,3.6,6.5,7.4
		c0,0.9,0,1.7,0,2.8c2.6-0.3,4.3,0.7,5.3,3.1c0,1.8,0,3.6,0,5.5c-0.5,1.1-1.1,2.2-2.3,2.7c-0.7,0.3-0.8,0.7-0.8,1.4
		c0,6.6,0,13.3,0,19.9c0,2.3-1.1,3.9-3.1,4.7c-0.2,0.1-0.4,0.2-0.6,0.3c-7.2,0-14.4,0-21.7,0c-0.1-0.1-0.2-0.1-0.3-0.2
		c-2.2-0.8-3.4-2.4-3.4-4.8c0-1.1,0-2.2,0-3.3c0-1.1,0.6-1.8,1.5-1.8c0.9,0,1.4,0.7,1.4,1.7c0,1,0,2,0,3c0,1.8,0.6,2.4,2.4,2.4
		c6.1,0,12.3,0,18.4,0c1.9,0,2.4-0.5,2.4-2.4c0-6.4,0-12.9,0-19.3c0-0.3,0-0.7,0-1c-7.8,0-15.5,0-23.3,0c0,0.4,0,0.8,0,1.1
		c0,3,0,5.9,0,8.9c0,1.2-0.8,1.9-1.8,1.6c-0.9-0.2-1.2-0.9-1.2-1.7c0-2.8-0.1-5.5,0-8.3c0.1-1.3-0.2-2.2-1.5-2.5c-0.1,0-0.1,0,0,0
		c-1.8,0.2-1.8,1.4-1.8,2.7c0,6.1,0,12.1,0,18.2c0,3.3-0.8,4.5-3.8,5.8c-7.2,0-14.3,0-21.5,0c-3.1-1.3-3.8-2.4-3.8-5.8
		c0-2.4,0-4.7,0-7.1c0-4.1,0-8.1,0-12.2c0-0.5-0.2-0.8-0.6-1.1c-1-0.8-1.7,0.1-2.6,0.3c0,0.4,0,0.7,0,1.1c0,6.5,0,13,0,19.5
		c0,0.5,0,1-0.1,1.5c-0.4,2-1.8,3.1-3.6,3.8C21.3,100,14.1,100,6.9,100z M6,74.2c0,0.4,0,0.6,0,0.9c0,6.6,0,13.1,0,19.7
		c0,1.7,0.6,2.3,2.3,2.3c6.2,0,12.4,0,18.6,0c1.7,0,2.3-0.6,2.3-2.4c0-6.5,0-13,0-19.5c0-0.3,0-0.6,0-1C21.5,74.2,13.8,74.2,6,74.2z
		 M38.4,74.3c0,0.3-0.1,0.5-0.1,0.8c0,6.6,0,13.2,0,19.8c0,1.6,0.6,2.2,2.3,2.2c6.2,0,12.4,0,18.5,0c1.9,0,2.5-0.5,2.5-2.5
		c0-6.4,0-12.9,0-19.3c0-0.3,0-0.6,0-1C53.9,74.3,46.2,74.3,38.4,74.3z M17.6,71.3c4.4,0,8.8,0,13.2,0c1.3,0,1.6-0.3,1.6-1.6
		c0-0.8,0-1.7,0-2.5c0-1.3-0.3-1.7-1.7-1.7c-4.1,0-8.3,0-12.4,0c-4.6,0-9.2,0-13.8,0c-1.3,0-1.6,0.3-1.6,1.6c0,0.8,0,1.7,0,2.5
		c0,1.3,0.3,1.7,1.7,1.7C8.9,71.3,13.3,71.3,17.6,71.3z M82.2,71.3c4.4,0,8.8,0,13.3,0c1.2,0,1.6-0.3,1.6-1.6c0-0.9,0-1.9,0-2.8
		c0-1-0.4-1.4-1.4-1.4c-8.9,0-17.8,0-26.6,0c-1,0-1.4,0.4-1.4,1.4c0,0.9,0,1.8,0,2.7c0,1.4,0.3,1.7,1.7,1.7
		C73.6,71.3,77.9,71.3,82.2,71.3z M50,71.3c4.4,0,8.8,0,13.2,0c1.2,0,1.5-0.3,1.5-1.5c0-0.8,0-1.7,0-2.5c0-1.5-0.3-1.8-1.8-1.8
		c-7.8,0-15.7,0-23.5,0c-0.9,0-1.8,0-2.7,0c-0.9,0-1.3,0.4-1.3,1.3c0,1,0,2,0,2.9c0,1.3,0.3,1.6,1.6,1.6
		C41.3,71.3,45.7,71.3,50,71.3z M43.2,62.5c0-0.9,0-1.6,0-2.3c0-1.6,0.8-2.4,2.5-2.5c2.9,0,5.8,0,8.7,0c1.8,0,2.5,0.8,2.5,2.6
		c0,0.7,0,1.4,0,2.1c1,0,1.8,0,2.6,0c0-1,0.1-2,0-3c-0.2-2.5-2.2-4.3-4.8-4.4c-3.1,0-6.2,0-9.4,0c-2.2,0-4.1,1.4-4.5,3.5
		c-0.3,1.2-0.2,2.6-0.3,3.9c0.5,0,0.8,0,1.2,0C42.1,62.5,42.6,62.5,43.2,62.5z M75.5,62.5c0-0.8,0-1.5,0-2.2c0-1.7,0.8-2.5,2.5-2.5
		c2.9,0,5.9,0,8.8,0c1.6,0,2.4,0.9,2.5,2.5c0,0.7,0,1.5,0,2.2c0.9,0,1.7,0,2.6,0c0-0.9,0-1.7,0-2.6c-0.1-2.6-2.1-4.7-4.7-4.7
		c-3.2-0.1-6.3,0-9.5,0c-2.4,0-4.4,1.7-4.7,4.1c-0.1,1,0,2.1,0,3.2C73.8,62.5,74.6,62.5,75.5,62.5z M21.5,60.8c-2.7,0-5.2,0-7.7,0
		c0,0.6,0,1.2,0,1.6c2.6,0,5.2,0,7.7,0C21.5,61.8,21.5,61.3,21.5,60.8z M46.2,60.7c0,0.6,0,1.2,0,1.7c2.6,0,5.2,0,7.7,0
		c0-0.6,0-1.1,0-1.7C51.3,60.7,48.7,60.7,46.2,60.7z M78.5,62.4c2.6,0,5.2,0,7.7,0c0-0.6,0-1.1,0-1.7c-2.6,0-5.1,0-7.7,0
		C78.5,61.4,78.5,61.9,78.5,62.4z"/>
	<path class="st0" d="M45.6,29.4c0-1.5-0.1-2.8,0-4.2c0.1-1.9,1.2-3.2,3-3.8c1.7-0.6,3.5,0,4.7,1.4c0.8,0.9,1,2,1,3.2
		c0,1.1,0,2.3,0,3.4c3.5,0.5,6.6-2.4,6.7-6c0-0.2,0-0.3,0-0.5c0-1,0.6-1.6,1.4-1.6c0.8,0,1.4,0.6,1.5,1.5c0.4,3.6-2,7.6-5.6,9
		c-1.2,0.5-2.5,0.6-3.9,0.9c0,0.3,0,0.8,0,1.4c0.6,0,1.1,0,1.7,0c2.4,0.1,3.7,2.4,2.6,4.5c-2,3.6-4.1,7.1-6.2,10.6
		c-1.2,2.1-3.9,2-5.1,0c-2.1-3.5-4.1-7.1-6.1-10.6c-1.2-2.1,0.2-4.3,2.6-4.5c0.5,0,1.1,0,1.7,0c0-0.6,0-1.1,0-1.6
		c-0.9-0.1-1.7-0.1-2.4-0.3c-6-1.3-8.9-8-5.8-13.3c2-3.4,4-6.7,6.1-10.1c0.4-0.6,0.4-1.1,0.1-1.7c-0.4-0.8-0.8-1.6-1.1-2.5
		c-0.5-1.4-0.1-2.8,1-3.7c1.1-0.9,2.6-1.1,3.8-0.3c2,1.3,3.8,1.3,5.8,0c1.2-0.8,2.7-0.6,3.8,0.3c1,0.9,1.4,2.3,0.9,3.6
		c-0.3,0.9-0.8,1.8-1.2,2.7c-0.3,0.5-0.2,0.9,0.1,1.4c1.4,2.2,2.8,4.5,4.1,6.8c0.2,0.4,0.5,1,0.4,1.4c-0.2,0.5-0.7,1-1.2,1.1
		c-0.5,0-1.2-0.3-1.5-0.8c-1.4-2.1-2.7-4.3-4-6.6c-0.5-0.8-1-1.1-1.9-1.1c-1.8,0.1-3.6,0-5.4,0.1c-0.4,0-0.9,0.3-1.1,0.6
		c-2.1,3.4-4.2,6.8-6.2,10.3c-1.2,2.1-1.1,4.3,0.2,6.4C41.2,28.6,43.1,29.5,45.6,29.4z M56.2,37c-1.1,0-1.9,0-2.8,0
		c-1.5,0-2-0.4-2-2c0-2.9,0-5.7,0-8.6c0-0.4,0-0.7-0.1-1.1c-0.1-0.7-0.6-1.1-1.4-1.1c-0.7,0-1.2,0.4-1.4,1.1
		c-0.1,0.3-0.1,0.7-0.1,1.1c0,2.8,0,5.5,0,8.3c0,1.9-0.3,2.3-2.2,2.3c-0.8,0-1.5,0-2.5,0c2.1,3.7,4.1,7.2,6.2,10.8
		C52.1,44.1,54.1,40.6,56.2,37z M49.9,6.5c1,0,2,0,3,0c0.3,0,0.7-0.2,0.8-0.4c0.4-0.7,0.7-1.5,1.1-2.3c0.1-0.2,0-0.5-0.1-0.7
		c-0.2,0-0.4,0-0.6,0.2c-2.8,1.7-5.5,1.7-8.2,0c-0.2-0.1-0.4-0.1-0.6-0.1c0,0.2-0.1,0.5-0.1,0.7c0.8,2.7,1,2.8,3.7,2.8
		C49.3,6.5,49.6,6.5,49.9,6.5z"/>
	<path class="st0" d="M77.9,30.6c-1.9-2.1-4.1-3.5-6.6-4.4c-2.3-0.9-3.4-3.1-2.8-5.3c0.7-2.5,3.2-3.8,5.7-3
		c5.9,2,10.4,5.8,13.4,11.3c0.4,0.7,0.8,1,1.6,0.9c0.4-0.1,0.8,0,1.3,0c2.4,0,3.8,2.1,2.7,4.3c-1.4,2.8-2.8,5.5-4.2,8.3
		c-0.5,0.9-0.9,1.9-1.4,2.8c-1.1,2.1-3.7,2.2-5,0.3c-2.3-3.4-4.5-6.9-6.8-10.4c-1.2-1.8-0.4-3.8,1.7-4.5
		C77.5,30.8,77.6,30.7,77.9,30.6z M90.5,33c-1,0-1.8,0.1-2.5,0.1c-1.6,0.1-1.8,0-2.5-1.4c-2-4.3-5.2-7.5-9.4-9.7
		c-0.9-0.5-2-0.9-3-1.2c-0.8-0.3-1.6,0.1-1.8,0.8c-0.3,0.8,0.1,1.5,0.9,1.9c0.2,0.1,0.5,0.2,0.7,0.3c3.7,1.4,6.6,3.8,8.8,7.1
		c0.9,1.5,0.4,2.5-1.3,2.7c-0.7,0.1-1.4,0.1-2.3,0.1c2.3,3.5,4.5,6.9,6.8,10.4C86.8,40.3,88.6,36.8,90.5,33z"/>
	<path class="st0" d="M22.2,30.6c2.8,1,3.4,2.8,1.8,5.2c-2.1,3.2-4.1,6.3-6.2,9.5c-1.6,2.4-4.2,2.3-5.5-0.3
		c-1.8-3.4-3.4-6.9-5.3-10.3c-1.3-2.4,0.4-5,2.9-4.6c1.5,0.3,2.2-0.3,3-1.6c2.9-5.1,7.3-8.5,12.8-10.5c2.5-0.9,4.9,0.3,5.7,2.6
		c0.8,2.3-0.3,4.7-2.7,5.7C26.2,27.2,24,28.5,22.2,30.6z M21.9,33.7c-0.9-0.1-1.6-0.1-2.3-0.1c-1.7-0.2-2.3-1.3-1.3-2.6
		c1-1.4,2.2-2.8,3.4-4c1.7-1.6,3.8-2.7,6-3.5c0.9-0.3,1.2-1.1,1-1.9c-0.2-0.8-1-1.1-1.9-0.9c-0.3,0.1-0.5,0.2-0.7,0.3
		c-5.3,2.1-9.2,5.6-11.6,10.8c-0.6,1.2-0.9,1.4-2.3,1.3c-0.8-0.1-1.7-0.1-2.7-0.1c1.9,3.8,3.7,7.4,5.6,11.1
		C17.4,40.6,19.6,37.2,21.9,33.7z"/>
	<path class="st0" d="M82.4,93.2c-1.5,0-3,0-4.5,0c-2.6,0-4-2.4-2.7-4.6c1.5-2.6,3-5.2,4.5-7.8c1.3-2.2,4-2.2,5.3,0
		c1.6,2.6,3.1,5.3,4.6,7.9c1.2,2.2-0.2,4.5-2.7,4.6C85.4,93.2,83.9,93.2,82.4,93.2z M87.1,90.2c-1.6-2.8-3.2-5.5-4.8-8.3
		c-1.6,2.8-3.2,5.5-4.8,8.3C80.8,90.2,83.9,90.2,87.1,90.2z"/>
	<path class="st0" d="M17.7,93.4c-4.1,0-7.3-3.2-7.4-7.3c0-4.1,3.3-7.4,7.3-7.4c4,0,7.3,3.3,7.3,7.4C25,90.1,21.7,93.4,17.7,93.4z
		 M17.7,90.5c2.4,0,4.4-2,4.4-4.4c0-2.4-2-4.5-4.5-4.4c-2.4,0-4.4,2-4.3,4.5C13.3,88.6,15.2,90.5,17.7,90.5z"/>
	<path class="st0" d="M56.8,86.1c0,1.2,0,2.4,0,3.6c0,1.9-1.3,3.2-3.2,3.2c-2.4,0-4.9,0-7.3,0c-1.8,0-3.1-1.4-3.1-3.2
		c0-2.5,0-4.9,0-7.4c0-1.8,1.3-3.1,3.1-3.1c2.5,0,5,0,7.5,0c1.7,0,3,1.3,3,3C56.9,83.6,56.8,84.9,56.8,86.1
		C56.8,86.1,56.8,86.1,56.8,86.1z M53.8,90c0-2.6,0-5.2,0-7.7c-2.6,0-5.2,0-7.7,0c0,2.6,0,5.1,0,7.7C48.7,90,51.2,90,53.8,90z"/>
</g>
</svg>
