<?xml version="1.0" encoding="utf-8"?>
<!-- Generator: Adobe Illustrator 19.2.1, SVG Export Plug-In . SVG Version: 6.00 Build 0)  -->
<svg version="1.1" id="Capa_1" xmlns="http://www.w3.org/2000/svg" xmlns:xlink="http://www.w3.org/1999/xlink" x="0px" y="0px"
	 viewBox="0 0 100 100" style="enable-background:new 0 0 100 100;" xml:space="preserve">
<style type="text/css">
	.st0{fill:#FFFFFF;}
</style>
<g>
	<path class="st0" d="M0,28.9c0.6-0.7,1.2-1.3,1.8-2c0.2-0.3,0.4-0.7,0.5-1c1.9-5,3.8-10,5.7-15c0.9-2.5,2.2-3.3,4.8-3.3
		c4.7,0,9.4,0,14,0c0.3,0,0.7,0,1,0.1c0.7,0.1,1.1,0.6,1.1,1.4c0,0.7-0.4,1.2-1.1,1.4c-0.3,0.1-0.7,0.1-1.1,0.1c-3.5,0-7,0-10.5,0
		c-0.4,0-0.8,0-1.3,0c0,0.7,0,1.2,0,1.8c0,2.5,0,4.9,0,7.4c0,1.2,0.2,1.4,1.4,1.4c1.9,0,3.8,0,5.7,0c1.1,0,1.8,0.6,1.8,1.5
		c0,0.9-0.7,1.4-1.8,1.4c-2,0-3.9,0-5.9,0c-2.6,0-4.1-1.5-4.1-4.1c0-2.8,0-5.5,0-8.3c0-0.3,0-0.7,0-1c-0.1,0-0.2-0.1-0.3-0.1
		c-0.3,0.3-0.6,0.5-0.8,0.9c-1.9,5-3.8,10-5.7,14.9c0,0.1,0,0.1,0,0.3c0.3,0,0.7,0,1,0c4.1,0,8.1,0,12.2,0c0.4,0,0.8,0,1.2,0.1
		c0.7,0.2,1,0.7,1,1.5c-0.1,0.7-0.4,1.1-1.1,1.3c-0.3,0.1-0.7,0.1-1.1,0.1c-4.8,0-9.6,0-14.3,0c-0.4,0-0.8,0-1.2,0c0,1,0,1.9,0,2.9
		c0.4,0,0.8,0,1.2,0c4.8,0,9.6,0,14.4,0c0.4,0,0.9-0.1,1.1,0.1c0.4,0.4,0.9,1,0.9,1.4c0,0.5-0.6,0.9-1.1,1.3c-0.2,0.2-0.7,0.1-1,0.1
		c-4.2,0-8.5,0-12.7,0c-0.4,0-0.7,0-1.2,0c0.2,2.1,0.3,4,0.5,6C5.7,47.7,6.3,54,6.8,60.4c0.3,3.4,0.6,6.9,0.9,10.3
		c0,0.2,0.1,0.5,0.1,0.7c0,0.9-0.6,1.5-1.4,1.6C5.6,73,5,72.4,4.9,71.5c-0.3-2.8-0.5-5.7-0.8-8.5c-0.6-7.2-1.3-14.3-1.9-21.5
		c-0.2-1.8-0.3-3.6-0.5-5.4c-0.1-0.5-0.4-0.9-0.7-1.4c-0.3-0.5-0.7-1-1.1-1.5C0,31.8,0,30.4,0,28.9z"/>
	<path class="st0" d="M38.4,10.5c0,2.5,0,4.9,0,7.3c0,0.7,0,1.4,0,2.1c0,0.8,0.3,1.2,1.2,1.2c2.5,0,5,0,7.5,0c4.3,0,8.6,0,13,0
		c1.2,0,1.4-0.2,1.4-1.3c0-3.1,0-6.1,0-9.3c-0.5,0-0.8,0-1.2,0c-3.8,0-7.7,0-11.5,0c-0.4,0-0.7,0-1.1-0.1c-0.8-0.1-1.2-0.7-1.2-1.4
		c0-0.8,0.5-1.3,1.2-1.4c0.3,0,0.6,0,0.9,0c5,0,10,0,15,0c2.6,0,3.9,0.9,4.8,3.3c1.9,5,3.8,10,5.7,15c0.2,0.5,0.6,0.9,1,1.3
		c0.1,0.1,0.3,0.2,0.4,0.3c1.5,1.4,1.3,5.8-0.2,7.2c-0.3,0.3-0.5,0.7-0.6,1.1C74,43.9,73.3,52,72.6,60c-0.7,7.8-1.4,15.5-2.1,23.3
		c-0.1,1.6-0.2,3.1-0.4,4.7c-0.3,2.4-2.2,4.2-4.6,4.4c-0.3,0-0.6,0-1,0c-9.7,0-19.3,0-29,0c-3.5,0-5.5-1.8-5.8-5.3
		c-0.9-9.7-1.7-19.5-2.6-29.2c-0.6-7.4-1.3-14.8-2-22.1c0-0.3-0.2-0.7-0.5-1c-2-1.8-1.8-6.3,0.4-7.8c0.3-0.2,0.5-0.6,0.7-1
		c1.9-5,3.8-10,5.7-15c1-2.6,2.2-3.4,4.9-3.4c1.7,0,3.3,0,5,0c1.2,0,1.8,0.5,1.8,1.5c0,0.9-0.6,1.4-1.8,1.5
		C40.4,10.5,39.5,10.5,38.4,10.5z M28.2,35.5c0,0.2,0,0.4,0,0.6c0.5,6.2,1.1,12.4,1.6,18.5c0.9,10.7,1.9,21.5,2.8,32.2
		c0.2,1.9,0.9,2.6,2.8,2.6c9.7,0,19.4,0,29.1,0c1.9,0,2.6-0.7,2.8-2.6c0.1-1.3,0.2-2.5,0.3-3.8c0.6-7.1,1.2-14.2,1.9-21.3
		c0.6-6.4,1.1-12.7,1.7-19.1c0.2-2.4,0.4-4.8,0.6-7.2C57.2,35.5,42.7,35.5,28.2,35.5z M64.6,10.5c-0.1,0-0.1,0.1-0.2,0.1
		c0,0.3,0,0.6,0,0.9c0,2.8,0,5.6,0,8.4c0,2.6-1.5,4.1-4.1,4.1c-6.9,0-13.8,0-20.7,0c-2.5,0-4.1-1.5-4.1-4.1c0-2.8,0-5.7,0-8.5
		c0-0.3,0-0.6-0.1-0.9c-0.1,0-0.2-0.1-0.3-0.1c-0.3,0.4-0.6,0.8-0.8,1.3c-1.8,4.7-3.6,9.4-5.4,14.1c-0.1,0.2-0.1,0.5-0.2,0.7
		c14.2,0,28.3,0,42.3,0c0-0.1,0-0.1,0-0.2c-1.9-5-3.8-10-5.7-15C65.3,11.1,64.9,10.8,64.6,10.5z M26.5,32.4c15.7,0,31.3,0,47,0
		c0-0.6,0-1,0-1.5c0-1.3,0-1.3-1.3-1.3c-14.5,0-28.9,0-43.4,0C26.1,29.6,26.1,29.6,26.5,32.4z"/>
	<path class="st0" d="M95.2,35.4c-0.5,0-0.9,0-1.3,0c-4.2,0-8.3,0-12.5,0c-0.4,0-0.7,0-1.1,0c-0.7-0.1-1.2-0.6-1.2-1.3
		c0-0.8,0.3-1.3,1.1-1.5c0.3-0.1,0.7-0.1,1.1-0.1c4.8,0,9.6,0,14.3,0c0.4,0,0.8,0,1.2,0c0-1,0-1.9,0-2.9c-0.4,0-0.8,0-1.2,0
		c-4.8,0-9.6,0-14.3,0c-0.3,0-0.7,0-1,0c-0.8-0.1-1.2-0.6-1.3-1.4c0-0.8,0.4-1.3,1.2-1.5c0.3-0.1,0.7-0.1,1.1-0.1c4,0,8.1,0,12.1,0
		c0.4,0,0.7,0,1.2,0c-0.3-0.7-0.5-1.2-0.7-1.7c-1.6-4.3-3.3-8.7-4.9-13c-0.2-0.5-0.6-0.9-0.9-1.4c-0.1,0.1-0.2,0.1-0.4,0.2
		c0,0.6,0,1.2,0,1.8c0,2.5,0,5,0,7.5c0,2.6-1.5,4.1-4.1,4.1c-2,0-3.9,0-5.9,0c-1.1,0-1.8-0.6-1.8-1.5c0-0.9,0.7-1.4,1.8-1.5
		c2,0,3.9,0,5.9,0c0.6,0,1.2-0.1,1.2-0.9c0-3.2,0-6.4,0-9.8c-0.5,0-0.8,0-1.2,0c-3.5,0-7,0-10.5,0c-0.4,0-0.7,0-1.1-0.1
		C71.3,10.3,70.9,9.7,71,9c0-0.7,0.4-1.2,1.2-1.3c0.3-0.1,0.6,0,1,0c4.6,0,9.3,0,13.9,0c2.7,0,3.9,0.9,4.8,3.4c1.9,5,3.8,10,5.7,15
		c0.2,0.5,0.6,0.8,1,1.2c0.1,0.1,0.3,0.2,0.4,0.3c1.5,1.4,1.3,5.8-0.1,7.2c-0.3,0.3-0.6,0.8-0.6,1.3c-0.3,2.5-0.4,5-0.7,7.5
		c0,0.1,0,0.3-0.1,0.4c-0.2,0.9-0.8,1.4-1.6,1.3c-0.8-0.1-1.3-0.7-1.3-1.7c0.2-2.2,0.4-4.3,0.5-6.5C95.2,36.6,95.2,36.1,95.2,35.4z"
		/>
	<path class="st0" d="M81.4,92.4c-2.4,0-4.9,0-7.3,0c-0.9,0-1.5-0.3-1.7-1.2c-0.1-0.9,0.5-1.6,1.6-1.7c1.3,0,2.7,0,4,0
		c3.3,0,6.7,0,10,0c1.9,0,2.6-0.7,2.8-2.6c0.7-8.5,1.5-17.1,2.3-25.6c0.3-3.7,0.6-7.3,1-11c0.1-1.2,0.7-1.8,1.7-1.7
		c0.9,0.1,1.3,0.8,1.2,2.1c-0.6,7.1-1.2,14.2-1.9,21.3c-0.5,5.3-0.9,10.6-1.4,15.8c-0.3,2.8-2.4,4.6-5.2,4.7
		C86.1,92.5,83.7,92.4,81.4,92.4z"/>
	<path class="st0" d="M18.5,92.4c-2.2,0-4.4,0-6.6,0c-3.4,0-5.4-1.9-5.6-5.3c-0.2-3-0.5-6-0.8-8.9c-0.1-1.2,0.4-1.8,1.3-1.9
		c0.9-0.1,1.5,0.5,1.6,1.7c0.3,2.9,0.5,5.9,0.8,8.8c0.2,2,0.9,2.6,2.9,2.6c4.4,0,8.8,0,13.3,0c1.6,0,2.3,0.4,2.3,1.5
		c0,1-0.6,1.4-2.3,1.4C23,92.4,20.7,92.4,18.5,92.4z"/>
	<path class="st0" d="M49.6,66.1c-0.2-0.3-0.5-0.6-0.4-0.8c0.1-0.6,0.1-1.2,0.5-1.6c0.5-0.6,1.2-0.5,1.7,0c1,1,2,2,3,3.1
		c0.5,0.6,0.4,1.3-0.1,1.9c-0.8,0.9-1.6,1.8-2.5,2.6c-0.7,0.7-1.6,0.8-2.2,0.3c-0.7-0.6-0.7-1.3-0.2-2.1c0.1-0.1,0.1-0.2,0.2-0.4
		c-0.5,0-1,0-1.5,0c-2.2,0-4.4,0-6.6-0.1c-1.7-0.1-2.7-1.3-3.3-2.8c-0.5-1.6,0-3,1-4.2c0.5-0.6,1.2-0.6,1.8-0.2
		c0.6,0.4,0.8,1,0.6,1.7c0,0.1-0.1,0.2-0.1,0.3c-0.9,1.9-0.6,2.5,1.5,2.5c2.1,0,4.2,0,6.2,0C49.4,66.1,49.5,66.1,49.6,66.1z"/>
	<path class="st0" d="M45.6,57.1c0.4,0,0.6-0.1,0.8,0c0.8,0.1,1.3,0.5,1.4,1.3c0.1,0.8-0.3,1.4-1.1,1.6c-1.3,0.3-2.7,0.6-4,0.8
		c-0.8,0.1-1.4-0.3-1.6-1.1c-0.3-1.3-0.7-2.6-0.9-3.9c-0.2-0.8,0.2-1.3,0.9-1.6c0.8-0.3,1.3,0,1.8,0.6c0.1,0.2,0.2,0.4,0.3,0.7
		c1-1.6,2-3.2,3-4.8c1-1.7,2.4-2.6,4.3-2.4c2,0.2,3,1.6,3.8,3.2c0.3,0.7,0.2,1.4-0.5,1.8c-0.7,0.4-1.4,0.3-1.9-0.3
		c-0.3-0.3-0.5-0.7-0.7-1.1c-0.6-0.9-1.6-0.9-2.2,0C47.9,53.5,46.8,55.2,45.6,57.1z"/>
	<path class="st0" d="M58.2,57.6c1.1,1.8,2.2,3.5,3.2,5.2c1.5,2.7-0.1,5.8-3.1,6.2c-1,0.1-1.8-0.3-1.9-1.2c-0.1-0.9,0.3-1.5,1.4-1.7
		c1.1-0.2,1.6-1,1.1-1.9c-0.9-1.6-1.9-3.2-3-4.9c-0.2,0.3-0.3,0.7-0.5,0.8c-0.5,0.2-1.1,0.5-1.5,0.4c-0.4-0.1-1-0.9-0.9-1.3
		c0.2-1.5,0.6-3.1,1-4.5c0.2-0.7,0.9-0.9,1.6-0.8c1.2,0.2,2.4,0.4,3.5,0.7c1,0.2,1.5,0.8,1.4,1.6c-0.1,0.9-0.8,1.3-1.8,1.3
		C58.6,57.6,58.5,57.6,58.2,57.6z"/>
</g>
</svg>
