<?xml version="1.0" encoding="utf-8"?>
<!-- Generator: Adobe Illustrator 19.2.1, SVG Export Plug-In . SVG Version: 6.00 Build 0)  -->
<svg version="1.1" id="Capa_1" xmlns="http://www.w3.org/2000/svg" xmlns:xlink="http://www.w3.org/1999/xlink" x="0px" y="0px"
	 viewBox="0 0 100 100" style="enable-background:new 0 0 100 100;" xml:space="preserve">
<style type="text/css">
	.st0{fill:#FFFFFF;}
</style>
<g>
	<path class="st0" d="M57.6,0c1.6,2.1,3.1,4.3,4.7,6.3c0.2,0.2,0.7,0.3,1,0.3c5.6,0,11.1,0,16.7,0c0.8,0,1.1,0.2,1.5,0.9
		c1.3,2.8,2.7,5.5,4.1,8.2c0.3,0.7,0.7,0.9,1.5,0.9c0.9-0.1,1.9,0,2.9,0c0,1.1,0,2.2,0,3.3c-26.6,0-53.3,0-79.9,0c0-1.1,0-2.1,0-3.3
		c1,0,2-0.1,2.9,0c0.8,0.1,1.2-0.2,1.5-0.9c1.3-2.8,2.7-5.5,4.1-8.2c0.3-0.7,0.7-0.9,1.5-0.9c5.6,0,11.1,0,16.7,0
		c0.6,0,1-0.2,1.4-0.7c1.4-2,2.9-4,4.4-6C47.5,0,52.6,0,57.6,0z M17.7,16.6c21.6,0,43,0,64.5,0c-1-2-1.9-3.8-2.8-5.7
		c-0.3-0.7-0.7-1-1.5-1c-18.6,0-37.2,0-55.9,0c-0.2,0-0.5,0-0.7,0c-0.2,0-0.4,0.1-0.5,0.3C19.9,12.4,18.8,14.4,17.7,16.6z M58.3,6.6
		c-0.8-1-1.4-2-2.1-2.8c-0.2-0.3-0.6-0.5-1-0.5c-3.5,0-7,0-10.4,0c-0.3,0-0.6,0.1-0.8,0.2c-0.8,0.9-1.5,1.9-2.3,3
		C47.3,6.6,52.7,6.6,58.3,6.6z"/>
	<path class="st0" d="M78.2,100c-18.8,0-37.6,0-56.4,0c-2.3-26.1-4.6-52.1-7-78.2c23.4,0,46.8,0,70.3,0
		C82.9,47.8,80.5,73.9,78.2,100z M75.2,96.7c1.8-20.6,3.6-41.1,5.5-61.6c-20.5,0-40.8,0-61.3,0c1.8,20.6,3.7,41.1,5.5,61.6
		C41.6,96.7,58.3,96.7,75.2,96.7z M19.1,31.6c20.6,0,41.2,0,61.9,0c0.2-2.2,0.4-4.4,0.6-6.6c-21.1,0-42,0-63,0
		C18.7,27.3,18.9,29.4,19.1,31.6z"/>
	<path class="st0" d="M63.9,85.8c-8.4,5.6-19.4,5.6-27.8,0c2.7-4.8,5.5-9.5,8.3-14.4c1.7,1.1,3.5,2,5.6,1.9c2.1,0,3.9-0.8,5.6-2
		C58.4,76.2,61.1,81,63.9,85.8z M40.6,84.6c6.3,2.8,12.5,2.8,18.7,0c-1.6-2.8-3.1-5.5-4.7-8.2c-0.1-0.2-0.6-0.4-0.8-0.3
		c-2.5,0.8-5,0.8-7.6,0c-0.2-0.1-0.7,0.1-0.8,0.3C43.8,79.1,42.3,81.8,40.6,84.6z"/>
	<path class="st0" d="M39,42.6c2.8,4.8,5.5,9.5,8.3,14.4c-4.1,1.9-6,5.1-5.6,9.6c-5.6,0-11.1,0-16.6,0C24.4,58.5,28.4,47.9,39,42.6z
		 M37.8,47.2c-5.6,3.4-9.4,11-9.2,16.1c3.3,0,6.5,0,9.9,0c0.5-3,2-5.5,4.3-7.4C41.1,53,39.5,50.1,37.8,47.2z"/>
	<path class="st0" d="M61,42.6c10,5.1,14.5,15.1,13.9,24.1c-5.5,0-11,0-16.6,0c0.3-4.5-1.4-7.7-5.6-9.6C55.5,52.2,58.2,47.4,61,42.6
		z M62.2,47.2c-1.7,3-3.3,5.8-5,8.7c2.4,2,3.8,4.5,4.3,7.4c3.4,0,6.6,0,10,0C70.9,56.5,67.8,51.2,62.2,47.2z"/>
	<path class="st0" d="M50,70c-2.8,0-5-2.2-5-5c0-2.7,2.2-5,5-5c2.7,0,5.1,2.3,5,5C55,67.8,52.8,70,50,70z M51.6,65
		c0-0.9-0.7-1.6-1.6-1.7c-0.9,0-1.7,0.7-1.7,1.6c0,0.9,0.7,1.6,1.6,1.6C50.9,66.7,51.6,66,51.6,65z"/>
</g>
</svg>
