<?xml version="1.0" encoding="utf-8"?>
<!-- Generator: Adobe Illustrator 19.2.1, SVG Export Plug-In . SVG Version: 6.00 Build 0)  -->
<svg version="1.1" id="Capa_1" xmlns="http://www.w3.org/2000/svg" xmlns:xlink="http://www.w3.org/1999/xlink" x="0px" y="0px"
	 viewBox="0 0 100 100" style="enable-background:new 0 0 100 100;" xml:space="preserve">
<style type="text/css">
	.st0{fill:#FFFFFF;}
</style>
<g>
	<path class="st0" d="M15.3,72.1c-2.8,0-5.4,0-8,0c-1.6,0-2-0.4-2-2c0-17.3,0-34.5,0-51.8c0-0.7,0.3-1.5,0.7-2
		c4.1-5.1,8.2-10.1,12.3-15.2C19,0.3,19.7,0,20.7,0c11.8,0,23.7,0,35.5,0c1.8,0,2.2,0.4,2.2,2.2c0,2.8,0,5.6,0,8.5
		c1.4,0,2.8,0,4.1,0c1.2,0,2.4,0,3.6,0c2,0,2.3,0.3,2.3,2.3c0,2.1,0,4.3,0,6.4c0,0.4,0,0.8,0,1.3c2.7,0,5.3,0,7.8,0
		c1.8,0,2.2,0.4,2.2,2.2c0,12,0,24.1,0,36.1c0,0.3,0,0.5,0,0.8c-0.1,0.8-0.6,1.3-1.4,1.3c-0.8,0-1.3-0.4-1.4-1.2
		c-0.1-0.4,0-0.7,0-1.1c0-11.2,0-22.5,0-33.7c0-0.4,0-0.9,0-1.4c-0.4,0-0.8-0.1-1.1-0.1c-10.9,0-21.9,0-32.8,0
		c-0.7,0-1.2,0.2-1.7,0.8c-3,3.8-6.1,7.5-9.2,11.3c-0.3,0.4-0.6,0.7-1,1.2c3.8,0,7.5,0,11.2,0c0-2,0-4,0-6c0-0.5,0-1,0-1.4
		c0.1-0.8,0.6-1.3,1.4-1.2c0.8,0,1.3,0.5,1.3,1.3c0,2.9,0,5.9,0,8.8c0,1-0.6,1.4-1.8,1.4c-4.2,0-8.3,0-12.5,0c-0.4,0-0.9,0-1.3,0
		c0,16.8,0,33.4,0,50.2c0.4,0,0.9,0,1.3,0c8.4,0,16.9,0,25.3,0c0.4,0,0.7,0,1.1,0c0.8,0.2,1.2,0.7,1.1,1.5c-0.1,0.8-0.5,1.2-1.3,1.3
		c-0.7,0-1.4,0-2.1,0c-8.8,0-17.6,0-26.3,0c-1.6,0-2.1-0.4-2.1-2.1c0-2.6,0-5.1,0-7.8c-0.4,0-0.8-0.1-1.2-0.1c-2.3,0-4.6,0-6.9,0
		c-1.4,0-1.8-0.5-1.9-1.9c0-2.5,0-5,0-7.5C15.3,73.1,15.3,72.7,15.3,72.1z M55.4,10.7c0-2.7,0-5.2,0-7.8c-0.2,0-0.3,0-0.4,0
		c-11.2,0-22.5,0-33.7,0c-0.4,0-0.9,0.3-1.2,0.6c-3.8,4.6-7.6,9.2-11.3,13.9c-0.4,0.5-0.6,1.2-0.6,1.9c0,16.2,0,32.5,0,48.7
		c0,0.4,0,0.8,0,1.3c2,0,3.9-0.1,5.8,0c1.1,0.1,1.4-0.3,1.4-1.4c0-12.9,0-25.8,0-38.7c0-1,0.3-1.8,0.9-2.6c4-4.9,8.1-9.8,12-14.8
		c0.7-0.9,1.4-1.2,2.5-1.2c7.8,0,15.6,0,23.4,0C54.6,10.7,55,10.7,55.4,10.7z M65.6,20.7c0-2.1,0-4.1,0-6c0-0.9-0.3-1.2-1.2-1.2
		c-10.9,0-21.9,0-32.8,0c-0.7,0-1.1,0.2-1.6,0.7c-3.7,4.6-7.5,9.2-11.2,13.9c-0.4,0.5-0.6,1.2-0.6,1.8c0,16.3,0,32.5,0,48.8
		c0,0.4,0,0.8,0.1,1.2c2.4,0,4.8,0,7.1,0c0-0.5,0-1,0-1.4c0-13.1,0-26.1,0-39.2c0-1,0.3-1.7,0.9-2.5c4.1-5,8.1-9.9,12.2-14.9
		c0.6-0.8,1.3-1.1,2.3-1.1c7.8,0,15.6,0,23.5,0C64.6,20.7,65.1,20.7,65.6,20.7z"/>
	<path class="st0" d="M57.9,81.9c0.1-10.3,8.2-18.2,18.4-18c3.7,0.1,7,1.3,9.9,3.4c1,0.7,1.2,1.5,0.7,2.2c-0.5,0.7-1.3,0.7-2.3,0.1
		C78,65.2,70.3,65.9,65,71.3c-4.3,4.4-5.5,11.2-2.9,17c2.5,5.5,8.1,9.1,14,8.9c8.7-0.3,15.5-8.3,14.3-17c-0.1-0.9-0.1-1.6,0.8-2.1
		c0.9-0.4,1.8,0.2,2,1.4c0.7,4.7-0.4,9.1-3.1,12.9c-4.2,6-11.5,8.8-18.5,7.1c-7.1-1.7-12.5-7.6-13.5-14.8C58,83.8,58,82.9,57.9,81.9
		z"/>
	<path class="st0" d="M75,85.3c3.3-3.2,6.4-6.3,9.6-9.4c2.5-2.4,4.9-4.8,7.4-7.3c0.8-0.8,1.6-0.9,2.2-0.3c0.7,0.6,0.7,1.5-0.2,2.3
		c-1.8,1.8-3.7,3.6-5.5,5.4c-3.7,3.6-7.3,7.2-11,10.8c-1.8,1.7-3.3,1.7-5,0c-1.5-1.5-3-3-4.4-4.4c-0.8-0.8-0.9-1.5-0.2-2.2
		c0.6-0.6,1.4-0.6,2.2,0.2C71.7,82,73.3,83.6,75,85.3z"/>
	<path class="st0" d="M51.9,46c5.1,0,10.2,0,15.3,0c0.6,0,1.3,0.3,1.7,0.7c0.6,0.7,0,1.7-0.9,2c-0.4,0.1-0.8,0.1-1.2,0.1
		c-9.9,0-19.8,0-29.7,0c-0.3,0-0.5,0-0.8,0c-1-0.1-1.6-0.6-1.5-1.5c0.1-1,0.7-1.3,1.6-1.3c3.8,0,7.6,0,11.5,0
		C49.2,46,50.5,46,51.9,46z"/>
	<path class="st0" d="M51.8,58.3c-4.8,0-9.7,0-14.5,0c-0.4,0-0.7,0-1.1,0c-0.9-0.1-1.4-0.6-1.4-1.5c0-0.9,0.6-1.3,1.4-1.3
		c1.7,0,3.5,0,5.2,0c8.5,0,17,0,25.6,0c0.3,0,0.8-0.1,1,0.1c0.4,0.3,1,0.8,1,1.3c0,0.5-0.5,1-1,1.4c-0.3,0.2-0.9,0.1-1.3,0.1
		C61.7,58.3,56.8,58.3,51.8,58.3z"/>
	<path class="st0" d="M47.8,67.7c-3.3,0-6.6,0-9.9,0c-0.3,0-0.7,0-1,0c-0.8-0.1-1.2-0.6-1.2-1.4c0-0.8,0.5-1.3,1.3-1.3
		c1.1-0.1,2.3,0,3.4,0c5.9,0,11.7,0,17.6,0c0.1,0,0.3,0,0.4,0c0.9,0.1,1.5,0.5,1.5,1.4c0,0.9-0.6,1.4-1.5,1.4c-2.5,0-4.9,0-7.4,0
		C50,67.7,48.9,67.7,47.8,67.7z"/>
	<path class="st0" d="M44.7,74.2c2.4,0,4.8,0,7.1,0c1.2,0,1.8,0.5,1.8,1.4c0,0.9-0.7,1.4-1.8,1.4c-4.8,0-9.5,0-14.3,0
		c-0.1,0-0.3,0-0.4,0c-0.9-0.1-1.5-0.5-1.4-1.5c0-0.9,0.6-1.3,1.5-1.3C39.8,74.2,42.2,74.2,44.7,74.2z"/>
</g>
</svg>
