<?xml version="1.0" encoding="utf-8"?>
<!-- Generator: Adobe Illustrator 19.2.1, SVG Export Plug-In . SVG Version: 6.00 Build 0)  -->
<svg version="1.1" id="Capa_1" xmlns="http://www.w3.org/2000/svg" xmlns:xlink="http://www.w3.org/1999/xlink" x="0px" y="0px"
	 viewBox="0 0 100 100" style="enable-background:new 0 0 100 100;" xml:space="preserve">
<style type="text/css">
	.st0{fill:#FFFFFF;}
</style>
<g>
	<path class="st0" d="M30.6,0c2.3,0.8,3.3,2.5,3.1,4.9c-0.1,1.4,0,2.8,0,4.2c0,1.2-0.5,1.6-1.7,1.7c-0.8,0-1.6,0-2.5,0
		c0.1,2.2-0.5,4.2,1.2,6.2c2.4,2.9,4.5,6.1,6.8,9.1c1.7,2.2,2.9,4.5,3.3,7.4c1.2-0.3,2.3-0.6,3.4-0.9c2.1-0.5,2.1-0.5,2.1-2.6
		c0-5.5,0-10.9,0-16.4c0-3.1,1.5-4.6,4.6-4.6c2.5,0,4.9,0,7.4,0c2.6,0,4.1,1.6,4.1,4.1c0,6.9,0,13.8,0,20.7c0,1.3,1.1,2.6,2.4,2.6
		c4.7,0.1,9.4,0,14.3,0c0-0.5,0-0.8,0-1.2c0-7.2,0-14.5,0-21.7c0-3.2,1.4-4.6,4.6-4.6c2.5,0,5,0,7.5,0c2.4,0,4,1.6,4.1,3.9
		c0,0.2,0,0.4,0,0.6c0,26.4,0,52.9,0,79.3c0,0.9-0.1,1.8-0.3,2.7c-0.8,2.6-3.3,4.5-6,4.5c-12.1,0-24.2,0-36.3,0
		c-3.3,0-6.1-2.6-6.3-5.9c-0.2-2.9-0.1-5.7-0.1-8.6c0-0.7-0.1-1.1-1-1.2c-1.5-0.2-2.9-0.7-4.4-1c0,2.7,0,5.4,0,8.1
		c0,5.2-3.4,8.6-8.6,8.6c-6.4,0-12.8,0-19.1,0c-5.1,0-8.5-3.4-8.5-8.5c0-18.6,0-37.1,0-55.7c0-3.4,1-6.5,3.1-9.2
		c2.6-3.4,5.2-6.8,7.7-10.2c0.3-0.5,0.5-1.1,0.6-1.7c0.1-1.3,0-2.5,0-3.9c-0.8,0-1.6,0-2.4,0c-1,0-1.5-0.5-1.5-1.5
		c0-1.9,0-3.7,0-5.6c0-2,1.3-3,3-3.7C20.3,0,25.5,0,30.6,0z M14.5,97.1c-0.6-1-1.2-2-1.7-2.9c-0.5-0.9-0.4-1.8,0.3-2.2
		c0.7-0.4,1.5-0.2,2.1,0.8c0.8,1.3,1.5,2.6,2.3,3.8c0.2,0.3,0.4,0.6,0.7,0.6c1.2,0.1,2.4,0,3.7,0c0-1.2,0-2.3,0-3.3
		c0-1.4,0.4-2,1.4-2c1,0,1.4,0.6,1.4,2.1c0,1.1,0,2.1,0,3.3c1.3,0,2.5,0,3.6,0c0.2,0,0.5-0.3,0.7-0.6c0.8-1.2,1.5-2.5,2.3-3.8
		c0.6-1,1.3-1.3,2.1-0.8c0.8,0.4,0.9,1.3,0.4,2.3c-0.5,0.9-1.1,1.8-1.7,2.8c0.3,0,0.4,0.1,0.6,0.1c3.3,0,5.6-2.2,5.6-5.5
		c0-2.9,0-5.7,0-8.6c0-0.8-0.2-1.2-0.9-1.6C27.7,76.3,22.2,65.7,23.6,55c1.2-8.8,5.8-15.5,13.6-19.8c0.7-0.4,0.9-0.9,0.8-1.6
		c-0.3-1.9-1.1-3.5-2.2-5c-2.8-3.8-5.7-7.6-8.4-11.5c-0.4-0.5-0.8-0.7-1.4-0.7c-2,0-4,0-6,0c-0.7,0-1.1,0.2-1.5,0.7
		c-2.8,3.8-5.6,7.5-8.5,11.2c-1.7,2.3-2.6,4.8-2.6,7.7c0,4.9,0,9.8,0,14.6c0,0.3,0,0.7,0,1.1c0.5,0,0.8,0,1.2,0c3.7,0,7.4,0,11,0
		c0.5,0,1.2,0.3,1.5,0.6c0.3,0.3,0.2,0.9,0.1,1.3c-0.2,0.7-0.8,0.8-1.5,0.8c-3.7,0-7.5,0-11.2,0c-0.3,0-0.7,0-1.1,0
		c0,3.7,0,7.2,0,10.9c2.6,0,5.1,0,7.6,0c1.7,0,3.3,0,5,0c0.9,0,1.5,0.6,1.4,1.4c-0.1,0.8-0.5,1.3-1.4,1.4c-0.3,0-0.6,0-0.9,0
		c-3.5,0-7.1,0-10.6,0c-0.3,0-0.7,0-1.1,0c0,0.4-0.1,0.6-0.1,0.9c0,7.6,0,15.2,0,22.8c0,0.4,0,0.8,0.1,1.3
		C8.4,96,10.9,97.5,14.5,97.1z M92.5,90.8c0-0.3,0-0.6,0-0.9c0-25.5,0-51,0-76.5c0-1.3-0.3-1.6-1.6-1.6c-2.4,0-4.8,0-7.1,0
		c-1.7,0-2,0.5-1.7,2.2c0.2,0,0.4,0,0.7,0c1.8,0,3.5,0,5.3,0c0.8,0,1.3,0.5,1.4,1.3c0,0.8-0.5,1.4-1.4,1.4c-0.5,0-1,0-1.6,0
		c-1.5,0-3,0-4.5,0c0,0.5,0,0.9,0,1.2c0,6.8,0,13.6,0,20.4c0,4-2.5,6.5-6.5,6.5c-1,0-1.9,0-2.9,0c4.7,9.1,5,18-0.2,26.7
		c-5.2,8.7-13.2,12.9-23.2,13.1c0,2.1,0,4.1,0,6.1C63.6,90.8,78,90.8,92.5,90.8z M26.7,58.3c0,12.8,10.3,23.1,23.1,23.1
		C62.5,81.4,73,71,72.9,58.4c0-12.8-10.4-23.2-23.1-23.2C37,35.2,26.7,45.5,26.7,58.3z M59.7,33.7c0-6.9,0-13.8,0-20.6
		c0-0.9-0.4-1.3-1.4-1.3c-2.4,0-4.9,0-7.3,0c-1.6,0-2,0.5-1.6,2.2c1.8,0,3.7,0,5.5,0c1.2,0,1.7,0.5,1.8,1.4c0,0.9-0.6,1.4-1.8,1.4
		c-1.1,0-2.1,0-3.2,0c-0.8,0-1.6,0-2.4,0c0,5.1,0,10.1,0,15c1.8,0.2,3.6,0.3,5.3,0.6C56.2,32.7,57.9,33.2,59.7,33.7z M49.2,93.8
		c0.3,2.3,1.7,3.4,4.3,3.4c11.6,0,23.1,0,34.7,0c0.5,0,0.9,0,1.4-0.1c1.6-0.3,2.8-1.6,2.9-3.3C78,93.8,63.6,93.8,49.2,93.8z
		 M30.9,7.9c0-1.3,0-2.6,0-3.8c0-0.8-0.4-1.3-1.3-1.3c-1.1,0-2.2,0-3.3,0c-3.3,0-6.5,0-9.8,0c-0.7,0-1.4,0.1-1.5,0.9
		c-0.1,1.4,0,2.8,0,4.2C20.3,7.9,25.5,7.9,30.9,7.9z M79,39.3c-3.6,0-7.2,0-10.8,0c0.8,0.9,1.5,1.7,2.2,2.5c0.1,0.2,0.4,0.3,0.6,0.3
		c1.9,0,3.7,0,5.6-0.1C77.9,41.9,78.9,40.7,79,39.3z M26.7,10.9c-2.6,0-5.2,0-7.7,0c0,0.9,0,1.7,0,2.6c2.6,0,5.1,0,7.7,0
		C26.7,12.6,26.7,11.7,26.7,10.9z"/>
	<path class="st0" d="M60.8,53.5c-1.2-5.1-6.5-9-11.9-8.6c-4.1,0.2-7.3,2.1-9.6,5.5c-0.1,0.1-0.1,0.2-0.2,0.2c-0.6,0.8-1.3,1-2,0.5
		c-0.7-0.4-0.8-1.2-0.4-2.1c2.7-4.7,8.8-7.8,14.2-7c6.6,0.9,10.7,4.7,12.8,11c0.7-0.1,1.4-0.1,2.1-0.2c0.7-0.1,1.4,0.1,1.5,0.8
		c0.1,0.5,0,1.2-0.3,1.7c-0.8,1.2-1.8,2.3-2.8,3.4c-0.7,0.8-1.4,0.9-2.3,0.3c-1.2-0.9-2.4-1.7-3.6-2.7c-0.4-0.3-0.7-1.1-0.6-1.6
		c0.1-0.4,0.8-0.8,1.3-1C59.7,53.5,60.3,53.5,60.8,53.5z"/>
	<path class="st0" d="M35.8,63.8c-0.7,0.1-1.3,0.1-1.9,0.1c-1.2,0-1.9-1.2-1.1-2.2c0.9-1.2,1.9-2.4,2.9-3.5c0.5-0.6,1.2-0.7,1.8-0.2
		c1.2,0.9,2.4,1.7,3.6,2.7c0.3,0.3,0.6,1,0.5,1.4c-0.1,0.4-0.7,0.8-1.1,1c-0.5,0.2-1.1,0.2-1.7,0.3c0.1,0.4,0.2,0.7,0.4,1
		c2.1,4.4,5.6,6.9,10.5,7.1c4.7,0.2,8.3-1.9,10.7-5.9c0.1-0.2,0.2-0.3,0.3-0.5c0.5-0.8,1.2-1,1.9-0.6c0.7,0.4,1,1.2,0.5,2
		c-1,1.9-2.3,3.5-4,4.8c-8,6.1-19.6,2.7-22.9-6.8C36,64.3,35.9,64.1,35.8,63.8z"/>
</g>
</svg>
