<?xml version="1.0" encoding="utf-8"?>
<!-- Generator: Adobe Illustrator 19.2.1, SVG Export Plug-In . SVG Version: 6.00 Build 0)  -->
<svg version="1.1" id="Capa_1" xmlns="http://www.w3.org/2000/svg" xmlns:xlink="http://www.w3.org/1999/xlink" x="0px" y="0px"
	 viewBox="0 0 100 100" style="enable-background:new 0 0 100 100;" xml:space="preserve">
<style type="text/css">
	.st0{fill:#FFFFFF;}
</style>
<g>
	<path class="st0" d="M100,54.1c-0.4,0.5-0.3,1.1-0.3,1.6c-0.2,1-0.8,1.7-1.7,1.8c-3.9,0.7-7.7,1.4-11.6,2c-1.7,0.3-2.7-0.8-2.3-2.5
		c1.6-8.2,0.5-16.1-3.4-23.5c-0.9-1.8-2-3.4-3.3-5c-0.5-0.7-0.7-1.5-0.3-2.3c0.7-1.4,2.4-1.4,3.4-0.1c2.7,3.4,4.7,7.2,6.1,11.3
		c1.8,5.4,2.4,11,1.8,16.6c-0.1,1.1-0.1,1.1,1,0.9c2-0.3,3.9-0.7,5.9-1c0.6-0.1,0.8-0.4,0.8-0.9c0.6-8.7-1.1-17-5.2-24.6
		C84,15.9,73.6,7.9,59.6,5C46,2.1,33.4,5,22.2,13.3c-0.2,0.1-0.3,0.2-0.5,0.4c-1.4,1.1-2.4,1-3.5-0.4c-1-1.3-2.1-2.6-3.2-4
		c-3.1,7.3-6.2,14.5-9.3,22c7.9-1.4,15.6-2.8,23.5-4.1c-1.2-1.5-2.2-2.8-3.3-4.1c-1-1.3-0.9-2.3,0.4-3.3C38.2,10.8,51.1,9,64.9,14.4
		c1.2,0.5,1.6,1.1,1.5,2.1c-0.1,0.9-0.6,1.5-1.5,1.7c-0.5,0.2-1,0-1.4-0.2c-5.1-2.2-10.5-3-16-2.7c-6.2,0.4-11.8,2.4-16.9,5.8
		c-0.6,0.4-0.5,0.7-0.1,1.1c1.2,1.5,2.4,3,3.6,4.5c1.3,1.6,0.7,3.1-1.3,3.5c-7.6,1.4-15.2,2.7-22.8,4c-2.3,0.4-4.5,0.8-6.8,1.2
		c-2,0.3-3.1-1.1-2.3-2.9c3.9-9.2,7.8-18.5,11.7-27.7c0.8-1.8,2.4-2,3.7-0.5c1.2,1.5,2.5,3,3.6,4.6c0.4,0.5,0.7,0.7,1.3,0.2
		C27.3,4.8,34,1.9,41.5,0.7C58.7-1.9,73.7,2.8,86,15.3c7.6,7.7,12,17.2,13.6,27.9c0.1,0.9,0,1.8,0.4,2.6c0,0.2,0,0.4,0,0.6
		c-0.1,0.1-0.1,0.3-0.1,0.4c0,0.1,0,0.2,0,0.4c0,0.1,0,0.2,0,0.4c0,0.2-0.1,0.4,0.1,0.6c0,0.5,0,1,0,1.6c-0.2,0.5-0.2,1,0,1.6
		c0,0.3,0,0.7,0,1c-0.1,0.1-0.1,0.3-0.1,0.4c0,0.1,0,0.3,0.1,0.4C100,53.4,100,53.7,100,54.1z"/>
	<path class="st0" d="M100,51.3c-0.3-0.5-0.3-1,0-1.6C100,50.3,100,50.8,100,51.3z"/>
	<path class="st0" d="M48.6,100c0.4-0.3,0.8-0.3,1.2,0C49.4,100,49,100,48.6,100z"/>
	<path class="st0" d="M51.6,100c0.2-0.3,0.5-0.2,0.8-0.2c0.1,0,0.1,0.1,0,0.1c0,0,0,0.1-0.1,0.1C52.1,100,51.8,100,51.6,100z"/>
	<path class="st0" d="M100,48.2c-0.2-0.1-0.2-0.4-0.2-0.6c0.1-0.1,0.1-0.1,0.2,0C100,47.8,100,48,100,48.2z"/>
	<path class="st0" d="M46.9,100c0.1-0.3,0.4-0.2,0.6-0.2c0.1,0,0.1,0.1,0.1,0.1c0,0,0,0.1-0.1,0.1C47.3,100,47.1,100,46.9,100z"/>
	<path class="st0" d="M47.5,100c0-0.1,0-0.1,0-0.2c0.2,0,0.5-0.1,0.6,0.2C47.9,100,47.7,100,47.5,100z"/>
	<path class="st0" d="M99.8,46.8c0-0.2-0.1-0.3,0.2-0.4c0,0.1,0,0.3,0,0.4C99.9,46.9,99.9,46.9,99.8,46.8z"/>
	<path class="st0" d="M99.8,46.8c0.1,0,0.1,0,0.2,0c0,0.1,0,0.3,0,0.4c-0.1,0.1-0.1,0.1-0.2,0C99.8,47.1,99.8,47,99.8,46.8z"/>
	<path class="st0" d="M99.8,47.2c0.1,0,0.1,0,0.2,0c0,0.1,0,0.3,0,0.4c-0.1,0-0.1,0-0.2,0C99.8,47.5,99.8,47.4,99.8,47.2z"/>
	<path class="st0" d="M99.8,52.7c0-0.2,0-0.3,0.2-0.4c0,0.1,0,0.3,0,0.4C99.9,52.8,99.9,52.8,99.8,52.7z"/>
	<path class="st0" d="M99.8,52.7c0.1,0,0.1,0,0.2,0c0,0.1,0,0.3,0,0.4C99.8,53,99.8,52.9,99.8,52.7z"/>
	<path class="st0" d="M52.3,100c0-0.1,0-0.1,0-0.2c0.1,0,0.3,0,0.4,0c0.1,0,0.1,0.1,0.1,0.1c0,0,0,0.1-0.1,0.1
		C52.6,100,52.5,100,52.3,100z"/>
	<path class="st0" d="M52.7,100c0-0.1,0-0.1,0-0.2c0.2,0,0.3-0.1,0.4,0.2C53,100,52.9,100,52.7,100z"/>
	<path class="st0" d="M72.2,18.9c1.1,0,2,0.9,2,2c0,1-0.9,1.9-1.9,1.9c-1.1,0-2-0.9-2-2C70.3,19.8,71.1,18.9,72.2,18.9z"/>
	<path class="st0" d="M98.2,64.5c-0.6-0.2-1.2-0.1-1.8,0c-2.5,0.4-4.9,0.9-7.4,1.3c-7.3,1.3-14.6,2.6-21.9,3.9
		c-1.9,0.3-2.4,1.9-1.3,3.4c1.2,1.6,2.4,3.1,3.7,4.6c0.4,0.5,0.3,0.7-0.2,1c-5,3.4-10.5,5.3-16.5,5.8c-0.7,0.1-0.9,0-0.9-0.8
		c0-8,0-15.9,0-23.9c0-0.8,0.2-0.8,0.9-0.7c6.4,1.3,12.4,0.4,17.6-3.8c4.5-3.6,6.8-8.4,7.8-14c0.2-1-0.3-1.8-1.3-2.1
		c-0.7-0.3-1.5-0.5-2.2-0.7c-10.3-2.8-19.6,1.3-24.5,10.7c-0.1,0.1-0.1,0.3-0.3,0.3c0-0.1-0.1-0.2-0.1-0.2
		c-5.2-10.6-16.1-13.9-26.7-10.1c-1.1,0.4-1.6,1.2-1.4,2.3c0.8,4.2,2.4,8,5.2,11.3c5.5,6.2,12.4,7.9,20.2,6.3c0.8-0.2,0.9,0,0.9,0.7
		c0,7.6,0,15.1,0,22.7c0,2.1,0,2.2-2.1,1.9c-11.8-1.6-20.7-7.6-26.4-17.9c-4-7.2-5.1-14.9-3.5-23c0.4-2.3-0.5-3.3-2.7-3
		c-3.7,0.6-7.4,1.3-11.1,2c-1.2,0.2-1.7,0.8-1.8,1.9C-0.3,49.5,0,54.6,0.9,59.7c4,20.7,21,36.8,41.8,39.8c1.1,0.2,2.2,0.1,3.2,0.5
		c0.3,0,0.7,0,1,0c0.2-0.2,0.4-0.1,0.6-0.1c0.2,0,0.4-0.1,0.6,0.1c0.2,0,0.4,0,0.6,0c0.4-0.2,0.8-0.2,1.2,0c0.6,0,1.2,0,1.8,0
		c0.2-0.2,0.5-0.1,0.7-0.1c0.1,0,0.2,0,0.4,0c0.2,0,0.3,0,0.5,0.1c0.2,0,0.4,0,0.6,0c0.1-0.3,0.3-0.2,0.5-0.2c1.3-0.2,2.7-0.3,4-0.5
		c7.6-1.3,14.5-4.1,20.8-8.6c0.6-0.4,0.8-0.3,1.1,0.2c1.1,1.5,2.3,2.9,3.5,4.4c1.5,1.9,3.1,1.7,4-0.5c2.1-4.9,4.2-9.8,6.2-14.7
		c1.8-4.2,3.6-8.5,5.4-12.7C99.7,66.1,99.3,64.9,98.2,64.5z M52.4,54.4c2.5-8.9,9.5-13.6,17.9-12.7c1.1,0.1,2.1,0.3,3.2,0.5
		c0.3,0.1,0.6,0.1,0.5,0.6c-1.9,6.2-5.5,10.8-12.2,12.4c-0.6,0.1-1.1,0.3-1.7,0.3c-0.8,0.1-1.6,0.1-2,0.1c-2,0-3.6-0.2-5.2-0.6
		C52.4,55,52.3,54.9,52.4,54.4z M47.1,55.1c-1.6,0.4-3.3,0.6-5.2,0.6c-8.4,0-13.8-5.7-15.8-12.8c-0.2-0.5,0.1-0.6,0.5-0.7
		c9.5-2.4,18.1,2,21,12.1C47.7,54.9,47.5,55,47.1,55.1z M85,90.8c-1-1.3-2-2.5-3-3.7c-1.4-1.8-2.2-1.9-4-0.5
		C69.5,93,59.9,96.1,49.3,96C28.2,95.8,9.6,80.8,5,60.1c-1-4.4-1.4-8.9-1-13.4c0-0.6,0.2-0.8,0.8-0.9c2-0.3,4.1-0.6,6-1.1
		c1.1-0.2,0.8,0.4,0.8,0.9c-0.4,3.6-0.4,7.2,0.3,10.7c2.4,12.7,9.2,22.4,20.9,28c14.2,6.8,27.9,5.3,40.7-4c1.4-1,1.5-2,0.4-3.5
		c-1-1.3-2.1-2.6-3.2-4.1c7.9-1.4,15.6-2.7,23.5-4.1C91.2,76.2,88.1,83.4,85,90.8z"/>
</g>
</svg>
