<?xml version="1.0" encoding="utf-8"?>
<!-- Generator: Adobe Illustrator 19.2.1, SVG Export Plug-In . SVG Version: 6.00 Build 0)  -->
<svg version="1.1" id="Capa_1" xmlns="http://www.w3.org/2000/svg" xmlns:xlink="http://www.w3.org/1999/xlink" x="0px" y="0px"
	 viewBox="0 0 100 100" style="enable-background:new 0 0 100 100;" xml:space="preserve">
<style type="text/css">
	.st0{fill:#FFFFFF;}
</style>
<g>
	<path class="st0" d="M71.2,87.1c-1.1-0.7-2.6-0.4-3.2,0.7c-0.7,1.1-0.4,2.6,0.7,3.2c1.3,0.9,2.9,1.3,4.6,1.3c1.7,0,3.3-0.6,4.7-1.4
		c1-0.8,1.3-2.2,0.6-3.2c-0.8-1-2.2-1.3-3.2-0.6C74,87.8,72.3,87.9,71.2,87.1L71.2,87.1z"/>
	<path class="st0" d="M82,64.9c1.3,0,2.3-1,2.3-2.3c0-1.1-0.8-2-1.9-2.2c-1-14.5-11-25.4-24.5-26.5l-0.1-4c0-1.2-1.1-2.3-2.3-2.3
		h-1.1v-5.1c0-1.3-1-2.3-2.3-2.3h-6.3v-3.7c1.3-0.4,2.6-1.1,3.6-2.1h14.8c3.1,0,5.7-2.6,5.7-5.7s-2.4-5.7-5.7-5.7H49.6
		C48.1,1.1,45.8,0,43.4,0c-2.4,0-4.7,1.1-6.2,2.9H22.7c-3.1,0-5.7,2.6-5.7,5.7s2.6,5.7,5.7,5.7h14.8c1,1,2.2,1.7,3.6,2.1V20h-6.7
		C33,20,32,21,32,22.4s1,2.3,2.3,2.3h15.5v2.8H31.6c-1.3,0-2.3,1-2.3,2.3v3.9H17.1c0-1.2-1-2.2-2.3-2.2s-2.3,1-2.3,2.3v23.8
		c0,1.3,1,2.3,2.3,2.3s2.3-1,2.3-2.3v-2.6h14c3,3.7,7.6,5.9,12.5,5.9c4.8,0,9.4-2.2,12.5-5.9c3.2,0.1,5.9,2.3,6.8,5.2
		c-1.1,0.1-2,1.1-2,2.2c0,1.3,1,2.3,2.3,2.3H71c-2.6,3-11.9,14.3-11.9,20.8c0,7.9,6.3,14.3,14.3,14.3s14.3-6.3,14.3-14.3
		c0-6.7-9.4-17.8-11.9-20.8L82,64.9z M51.7,7.6h12.5c0.6,0,1.1,0.4,1.1,1.1c0,0.6-0.4,1.1-1.1,1.1H51.7c0.1-0.4,0.1-0.8,0.1-1.2
		C51.8,8.2,51.7,7.9,51.7,7.6z M22.7,9.8c-0.6,0-1.1-0.4-1.1-1.1c0-0.6,0.4-1.1,1.1-1.1h12.5c0,0.3-0.1,0.6-0.1,0.9
		c0,0.4,0.1,0.9,0.1,1.2H22.7L22.7,9.8z M39.7,8.5c0-2,1.7-3.7,3.7-3.7S47,6.5,47,8.5s-1.7,3.7-3.7,3.7S39.7,10.6,39.7,8.5z
		 M67.7,60.2c-1.1-5.6-6-9.8-11.9-9.8h-0.9c-0.8,0-1.4,0.3-1.9,1c-2.1,3.1-5.7,4.9-9.4,4.9s-7.2-1.9-9.4-4.9c-0.4-0.7-1.1-1-1.9-1
		H17.1v-12h14.5c1.3,0,2.3-1,2.3-2.3v-3.9h18.3h1.1l0.1,3.9c0,1.2,1.1,2.3,2.3,2.3c11.9,0,21.2,9.2,22.2,21.8H67.7z M82.8,85.7
		c0,5.2-4.3,9.6-9.6,9.6s-9.6-4.3-9.6-9.6c0-3.7,5.3-11.2,9.6-16.4C77.4,74.5,82.8,82.2,82.8,85.7z"/>
</g>
</svg>
