<?xml version="1.0" encoding="utf-8"?>
<!-- Generator: Adobe Illustrator 19.2.1, SVG Export Plug-In . SVG Version: 6.00 Build 0)  -->
<svg version="1.1" id="Capa_1" xmlns="http://www.w3.org/2000/svg" xmlns:xlink="http://www.w3.org/1999/xlink" x="0px" y="0px"
	 viewBox="0 0 100 100" style="enable-background:new 0 0 100 100;" xml:space="preserve">
<style type="text/css">
	.st0{fill:#FFFFFF;}
</style>
<g>
	<path class="st0" d="M50,0c24.2,0.2,45.1,17.8,49.1,41.7c0.1,0.3,0.1,0.7,0.1,1c0.1,1.1-0.5,1.9-1.5,2c-0.9,0.2-1.8-0.4-2-1.5
		c-0.6-2.3-0.9-4.8-1.7-7C87.8,18,75.1,7,55.9,4.3C31.2,0.8,8.4,18,4.3,42.5c-3.6,21.9,8.6,43.1,29.4,51c0.3,0.1,0.6,0.2,0.8,0.3
		c1,0.4,1.4,1.3,1.1,2.2c-0.3,1-1.3,1.5-2.3,1.1c-2.5-1.1-5.1-2-7.5-3.4C11.6,85.5,3.1,73.3,0.7,57.1C-3.2,30.9,14.3,6.4,40.3,1.2
		C43.5,0.6,46.8,0.4,50,0z"/>
	<path class="st0" d="M99.9,70.7c0,6.6,0,13.1,0,19.7c0,1.9-0.6,2.4-2.5,2.5c-2.6,0-5.2,0-7.8,0c-1.6,0-2.2-0.6-2.2-2.2
		c0-13.4,0-26.7,0-40.1c0-1.6,0.6-2.2,2.2-2.2c2.7,0,5.3,0,8,0c1.6,0,2.2,0.6,2.2,2.2C99.9,57.3,99.9,64,99.9,70.7z M91.1,51.9
		c0,12.5,0,24.9,0,37.3c1.8,0,3.5,0,5.2,0c0-12.5,0-24.8,0-37.3C94.5,51.9,92.8,51.9,91.1,51.9z"/>
	<path class="st0" d="M48.2,28.5c0-4.4,0-8.8,0-13.2c0-0.3,0-0.6,0-0.9c0.1-1,0.8-1.7,1.8-1.7c0.9,0,1.7,0.7,1.8,1.7
		c0.1,0.8,0,1.6,0,2.3c0,8.5,0,17,0,25.5c0,0.7,0.2,1.1,0.9,1.4c3,1.2,4.9,4.4,4.4,7.5c-0.5,3.3-3,5.8-6.3,6.2
		c-3.1,0.4-6.2-1.4-7.4-4.4c-0.3-0.7-0.6-0.9-1.4-0.9c-6,0-11.9,0-17.9,0c-0.3,0-0.7,0-1,0c-1-0.1-1.7-0.8-1.7-1.8
		c0-0.9,0.7-1.7,1.7-1.8c0.3,0,0.7,0,1,0c6,0,12,0,18,0c0.6,0,1-0.1,1.2-0.8c0.7-1.9,2-3.3,3.9-4c0.8-0.3,0.9-0.7,0.9-1.4
		C48.2,37.6,48.2,33.1,48.2,28.5z M53.6,50.1c0-1.9-1.6-3.5-3.5-3.6c-2,0-3.6,1.6-3.6,3.6c0,1.9,1.6,3.5,3.6,3.5
		C52,53.7,53.6,52,53.6,50.1z"/>
	<path class="st0" d="M71.4,75.9c0-4.9,0-9.7,0-14.6c0-1.7,0.6-2.3,2.3-2.3c2.6,0,5.3,0,7.9,0c1.6,0,2.2,0.6,2.2,2.2
		c0,9.8,0,19.6,0,29.4c0,1.6-0.6,2.2-2.2,2.2c-2.7,0-5.3,0-8,0c-1.6,0-2.2-0.6-2.2-2.2C71.4,85.7,71.4,80.8,71.4,75.9z M75,62.6
		c0,8.9,0,17.8,0,26.6c1.8,0,3.5,0,5.2,0c0-8.9,0-17.7,0-26.6C78.5,62.6,76.8,62.6,75,62.6z"/>
	<path class="st0" d="M67.8,80.5c0,3.4,0,6.8,0,10.1c0,1.6-0.6,2.3-2.2,2.3c-2.7,0-5.4,0-8.1,0c-1.5,0-2.1-0.7-2.1-2.2
		c0-6.9,0-13.7,0-20.6c0-1.5,0.6-2.1,2.2-2.2c2.7,0,5.4,0,8.1,0c1.5,0,2.1,0.7,2.2,2.2C67.8,73.6,67.8,77,67.8,80.5z M64.2,89.3
		c0-6,0-11.8,0-17.7c-1.8,0-3.5,0-5.2,0c0,5.9,0,11.8,0,17.7C60.7,89.3,62.4,89.3,64.2,89.3z"/>
	<path class="st0" d="M69.7,100c-9.2,0-18.4,0-27.6,0c-0.4,0-0.7,0-1.1,0c-1-0.1-1.7-0.9-1.6-1.8c0.1-1,0.6-1.6,1.6-1.7
		c0.3-0.1,0.7,0,1,0c18.4,0,36.9,0,55.3,0c0.1,0,0.2,0,0.3,0c1.5,0,2.3,0.7,2.3,1.8c0,1.1-0.8,1.7-2.3,1.7C88.3,100,79,100,69.7,100
		z"/>
	<path class="st0" d="M39.3,83.9c0-2.2,0-4.5,0-6.7c0-1.5,0.6-2.2,2.2-2.2c2.7,0,5.4,0,8.1,0c1.5,0,2.2,0.6,2.2,2.2
		c0,4.5,0,9,0,13.5c0,1.5-0.6,2.2-2.2,2.2c-2.7,0-5.4,0-8.1,0c-1.5,0-2.2-0.6-2.2-2.2C39.3,88.4,39.3,86.2,39.3,83.9z M48.2,89.3
		c0-3.6,0-7.1,0-10.6c-1.8,0-3.5,0-5.2,0c0,3.6,0,7.1,0,10.6C44.7,89.3,46.4,89.3,48.2,89.3z"/>
</g>
</svg>
