<?xml version="1.0" encoding="utf-8"?>
<!-- Generator: Adobe Illustrator 19.2.1, SVG Export Plug-In . SVG Version: 6.00 Build 0)  -->
<svg version="1.1" id="Capa_1" xmlns="http://www.w3.org/2000/svg" xmlns:xlink="http://www.w3.org/1999/xlink" x="0px" y="0px"
	 viewBox="0 0 100 100" style="enable-background:new 0 0 100 100;" xml:space="preserve">
<style type="text/css">
	.st0{fill:#FFFFFF;}
</style>
<g>
	<path class="st0" d="M0,49.6c0.2-0.3,0.4-0.6,0.7-0.8c1.1-0.8,2.4-0.1,2.6,1.4c0.1,1.7,0.2,3.5,0.3,5.2c0,1.1-0.6,1.8-1.5,1.8
		c-0.9,0.1-1.6-0.5-1.7-1.6C0.2,54.9,0.1,54,0,53.1C0,52,0,50.8,0,49.6z"/>
	<path class="st0" d="M52.1,0c0.3,0.1,0.7,0.1,1,0.2c0.8,0.3,1.2,0.8,1.1,1.6c0,0.8-0.5,1.4-1.3,1.5c-2,0.1-4.1,0.1-6.1,0
		c-0.9,0-1.3-0.7-1.4-1.5c0-0.9,0.4-1.4,1.3-1.6C47.2,0.1,47.6,0.1,48,0C49.4,0,50.8,0,52.1,0z"/>
	<path class="st0" d="M59,61.1c-0.6,0-1.2-0.1-1.8,0c-0.2,0-0.5,0.3-0.7,0.6C54.2,66,50.6,68,45.8,68c-2.1,0-4.2,0-6.3,0
		c-0.3,0-0.6,0-1.2,0c0.3,1.2,0.6,2.3,1,3.3c0.2,0.7,0.5,1.5-0.2,2.1c-0.7,0.6-1.4,0.4-2.1,0.1c-3-1.4-5.7-3.2-7.3-6.3
		c-0.2-0.3-0.6-0.5-0.9-0.7c-4-2.4-6.1-7-5.3-11.9c0.7-4.5,4.3-8.2,8.8-9.1c0.1,0,0.3-0.1,0.4-0.1c1.8,0.3,2.2-0.7,2.8-2.3
		c1.9-5.4,5.9-8.8,11.6-9.1c6.2-0.3,12.4-0.3,18.6,0.1c7.1,0.5,12.4,7.4,11.7,14.4c-0.5,4.9-2.9,8.5-7.2,10.9
		c-0.3,0.2-0.6,0.4-0.8,0.7c-1.6,3.2-4.3,5.2-7.3,6.8c-0.8,0.4-1.6,0.8-2.4,1c-0.5,0.1-1.3,0-1.7-0.3c-0.3-0.3-0.4-1.1-0.3-1.7
		c0.3-1.3,0.8-2.5,1.1-3.8C59.1,61.9,59,61.6,59,61.1z M62,63.6c1.7-0.7,4-2.8,4.7-4.6c0.4-1.1,1.2-1.7,2.2-2.2
		c3.8-1.9,6.1-6.3,5.6-10.4c-0.7-5.5-5.1-9.6-10.6-9.6c-5.2-0.1-10.4-0.1-15.6,0c-4.3,0.1-7.5,2.2-9.5,6c-1.4,2.7-1.5,5.6-0.4,8.5
		c0.3,1,0,1.8-0.7,2c-0.9,0.3-1.7-0.1-2-1.2c-0.3-1-0.6-2.1-0.7-3.1c-0.1-0.6-0.3-0.9-1-0.8c-3.6,0.3-6.6,2.9-7.4,6.5
		c-0.8,3.6,0.9,7.5,4,9.2c1,0.5,1.6,1.2,2.1,2.2c0.6,1.3,1.7,2.3,3,3.1c0-0.9,0-1.6,0-2.4c0-1.4,0.5-1.8,1.9-1.8c2.9,0,5.8,0,8.7,0
		c1.1,0,2.3-0.2,3.3-0.6c1.6-0.6,2.9-1.7,3.9-3.3c-1.6,0-3.1,0.1-4.6,0c-1.8-0.2-3.5-0.5-5.3-0.9c-1.1-0.2-1.5-1-1.2-1.9
		c0.3-0.8,1-1.2,2.1-0.9c1.8,0.6,3.7,0.7,5.6,0.7c3.4,0,6.7,0,10.1,0c1.4,0,1.8,0.4,1.9,1.8C62,61.2,62,62.5,62,63.6z"/>
	<path class="st0" d="M79.3,20.1c-1.8,1.7-2.7,3.5-2.9,5.7c-0.1,1.5,0,3-0.1,4.5c0,0.7,0.3,0.9,1,0.9c6,0,11.9,0,17.9,0
		c0.7,0,1-0.2,1-1c-0.1-2.1-0.2-4.1-0.4-6.2c-0.1-1.1,0.2-1.8,1-2c0.9-0.2,1.5,0.3,1.8,1.3c0.8,2.6,0.6,5.3,0.4,8
		c-0.1,1.7-1.7,2.8-3.7,2.8c-5.7,0-11.5,0-17.2,0c-0.4,0-0.8,0-1.2,0c-2.1-0.1-3.5-1.5-3.5-3.6c0-1.9,0-3.9,0.2-5.8
		c0.3-2.7,1.7-4.9,3.7-6.8c0.3-0.2,0.4-0.8,0.4-1.1C76.5,10,82.6,4.7,89.2,7c3.2,1.1,5.6,4.6,5.5,8.1c0,3.6-2.4,6.9-5.7,8
		c-3.7,1.2-6.8,0.3-9.5-2.5C79.5,20.5,79.5,20.4,79.3,20.1z M80.5,15c0,3.1,2.6,5.7,5.7,5.7c3.1,0,5.7-2.6,5.7-5.6
		c0-3.1-2.6-5.7-5.7-5.7C83,9.4,80.5,11.9,80.5,15z"/>
	<path class="st0" d="M6.9,20.1c-1.8,1.8-2.8,3.7-3,5.9c-0.1,1.3,0,2.7-0.1,4c0,0.9,0.3,1.2,1.2,1.2c4.6,0,9.1,0,13.7,0
		c1.3,0,2.7,0,4,0c0.7,0,1-0.3,1-1c-0.2-2.1-0.3-4.2-0.4-6.3c-0.1-1,0.2-1.7,1.1-1.9c0.9-0.2,1.5,0.2,1.8,1.2
		c0.8,2.7,0.6,5.4,0.4,8.1c-0.1,1.6-1.7,2.7-3.6,2.7c-3,0-6,0-9,0c-3,0-6,0-9,0c-2.6,0-4-1.4-4-4c0-2,0-4,0.3-5.9
		c0.4-2.5,1.7-4.5,3.6-6.2c0.4-0.4,0.6-0.7,0.5-1.2C4,10,10.1,4.8,16.7,7c3.3,1.1,5.6,4.5,5.6,8c0,3.5-2.3,6.9-5.5,8
		c-3.6,1.3-7,0.4-9.6-2.4C7.1,20.5,7,20.4,6.9,20.1z M19.3,15c0-3.1-2.5-5.6-5.6-5.6C10.6,9.4,8,11.9,8,15c0,3.1,2.6,5.7,5.7,5.7
		C16.8,20.7,19.3,18.1,19.3,15z"/>
	<path class="st0" d="M6.8,79.8c-1.7,1.6-2.6,3.5-2.8,5.8c-0.1,1.4,0,2.9-0.1,4.3c0,0.7,0.3,0.9,0.9,0.9c6,0,12,0,18,0
		c0.6,0,1-0.3,0.9-0.9c-0.1-2.1-0.3-4.2-0.4-6.3c-0.1-1.1,0.2-1.8,1.1-2c0.8-0.2,1.5,0.3,1.8,1.3c0.8,2.6,0.6,5.4,0.4,8
		c-0.1,1.4-1.1,2.3-2.5,2.6c-0.5,0.1-1,0.1-1.5,0.1c-5.8,0-11.5,0-17.3,0c-3,0-4.3-1.3-4.2-4.2C1,87.4,1,85.2,1.4,83.1
		c0.4-2.2,1.7-4.1,3.4-5.5c0.4-0.4,0.5-0.7,0.4-1.3c-0.8-4.1,1.3-8.1,5-9.7c3.7-1.6,7.9-0.4,10.3,2.9c1.9,2.6,2.2,5.4,0.9,8.3
		c-1.3,3-3.6,4.7-6.8,5.1c-3,0.4-5.5-0.6-7.5-2.8C7.1,80.1,6.9,80,6.8,79.8z M13.7,68.9c-3.1,0-5.6,2.5-5.6,5.6
		c0,3.1,2.5,5.6,5.6,5.7c3.1,0,5.7-2.6,5.7-5.7C19.3,71.4,16.8,68.9,13.7,68.9z"/>
	<path class="st0" d="M79.2,79.8c-1.7,1.7-2.7,3.7-2.9,6c-0.1,1.3,0,2.5,0,3.8c0,0.9,0.3,1.2,1.2,1.2c4.1,0,8.3,0,12.4,0
		c1.7,0,3.5,0,5.2,0c0.8,0,1.1-0.3,1.1-1.1c-0.2-2.1-0.3-4.1-0.5-6.2c-0.1-1,0.2-1.7,1.1-1.9c0.8-0.2,1.5,0.2,1.8,1.2
		c0.8,2.6,0.6,5.4,0.4,8c-0.1,1.4-1.1,2.3-2.5,2.7c-0.5,0.1-1,0.1-1.5,0.1c-5.8,0-11.6,0-17.4,0c-2.9,0-4.2-1.3-4.1-4.2
		c0.1-2.1,0.1-4.3,0.5-6.4c0.4-2.2,1.7-4.1,3.4-5.5c0.5-0.4,0.5-0.8,0.4-1.3c-0.9-4.6,1.8-8.8,6.4-10c4-1.1,8.7,1.4,10,5.3
		c1.5,4.5-0.4,9.2-4.7,11c-3.3,1.4-7.1,0.6-9.6-2C79.7,80.3,79.5,80,79.2,79.8z M86.1,68.9c-3.1,0-5.6,2.5-5.6,5.6
		c0,3.1,2.5,5.6,5.6,5.7c3.1,0,5.7-2.6,5.7-5.7C91.8,71.4,89.2,68.9,86.1,68.9z"/>
	<path class="st0" d="M100,51.8c-0.1,1.1-0.2,2.5-0.3,3.9c-0.1,1.1-0.8,1.6-1.7,1.6c-0.9-0.1-1.5-0.8-1.4-1.8
		c0.1-1.8,0.1-3.6,0.3-5.3c0.1-1.1,0.8-1.8,1.7-1.7c0.9,0.1,1.5,0.8,1.5,1.9C100,50.7,100,51.2,100,51.8z"/>
	<path class="st0" d="M0.3,44.2c0.4-1.9,0.7-3.8,1.1-5.6c0.2-0.9,1-1.4,1.8-1.2c0.8,0.2,1.4,0.9,1.3,1.8c-0.3,1.9-0.6,3.8-1,5.7
		c-0.2,0.8-1,1.3-1.8,1.2C0.8,45.9,0.3,45.3,0.3,44.2z"/>
	<path class="st0" d="M36.2,5.3c-0.9-0.1-1.5-0.4-1.7-1.2c-0.2-0.8,0.1-1.5,0.8-1.8c2-0.6,4.1-1.1,6.1-1.5c0.8-0.2,1.4,0.4,1.6,1.3
		c0.2,0.8-0.1,1.5-0.9,1.7C40.2,4.4,38.1,4.9,36.2,5.3z"/>
	<path class="st0" d="M68.8,3.9c0.6,0.2,1,0.3,1.3,0.4c1.5,0.7,3,1.5,4.5,2.3c1,0.6,1.4,1.5,0.9,2.3c-0.4,0.9-1.4,1.1-2.4,0.5
		C71.5,8.6,70,7.9,68.4,7c-0.8-0.4-1.1-1.1-0.8-1.9C67.8,4.6,68.4,4.3,68.8,3.9z"/>
	<path class="st0" d="M1.2,61.3c0.2-0.9,0.6-1.4,1.4-1.6c0.8-0.2,1.5,0.1,1.8,0.8c0.7,2,1.3,3.9,1.8,6c0.2,0.8-0.3,1.4-1,1.6
		c-0.7,0.2-1.6,0.1-1.8-0.7C2.5,65.5,1.8,63.4,1.2,61.3z"/>
	<path class="st0" d="M41.9,96.2c1.8,0.2,3.7,0.4,5.5,0.6c0.9,0.1,1.5,0.9,1.4,1.7c-0.1,0.9-0.8,1.6-1.7,1.5
		c-1.9-0.2-3.8-0.4-5.7-0.7c-1-0.2-1.5-0.9-1.4-1.8C40.2,96.6,40.9,96.1,41.9,96.2z"/>
	<path class="st0" d="M58.5,0.7c2,0.5,4,1,6,1.6c0.8,0.2,1.1,1,0.9,1.8c-0.2,0.8-1,1.3-1.8,1.2c-1.9-0.4-3.8-0.9-5.7-1.3
		c-0.9-0.2-1.3-1-1.1-1.8C56.9,1.3,57.6,0.8,58.5,0.7z"/>
	<path class="st0" d="M99.7,44.2c-0.1,1-0.7,1.6-1.5,1.7c-0.8,0.1-1.6-0.4-1.7-1.2c-0.4-1.8-0.7-3.7-1-5.5c-0.2-1,0.4-1.8,1.3-1.9
		c0.9-0.1,1.6,0.4,1.8,1.4C99,40.5,99.4,42.4,99.7,44.2z"/>
	<path class="st0" d="M58.6,96.1c0.7,0,1.3,0.5,1.4,1.4c0.1,0.9-0.3,1.6-1.3,1.8c-1.9,0.3-3.9,0.5-5.8,0.7c-0.9,0.1-1.7-0.7-1.7-1.5
		c0-0.8,0.5-1.6,1.4-1.7C54.5,96.5,56.4,96.3,58.6,96.1z"/>
	<path class="st0" d="M36.1,98.1c-0.4-0.1-0.9-0.2-1.3-0.4c-1.5-0.5-2.9-1-4.4-1.6c-1-0.4-1.4-1.3-1-2.1c0.3-0.8,1.2-1.2,2.2-0.9
		c1.7,0.6,3.4,1.2,5.1,1.9c0.8,0.3,1.2,1,1,1.9C37.5,97.6,37,97.9,36.1,98.1z"/>
	<path class="st0" d="M25.6,10c-0.4-0.4-1-0.7-1.3-1.1C24,8.2,24.1,7.4,24.7,7c1.9-1,3.8-2,5.7-2.9c0.7-0.3,1.4,0.1,1.8,0.8
		c0.4,0.7,0.3,1.5-0.4,1.9c-1.8,1-3.7,1.9-5.6,2.9c-0.1,0.1-0.3,0-0.4,0C25.7,9.9,25.7,9.9,25.6,10z"/>
	<path class="st0" d="M63.7,98.2c-0.5-0.4-1.1-0.8-1.3-1.3c-0.3-0.7,0-1.5,0.7-1.8c1.9-0.8,3.9-1.5,5.8-2.1c0.8-0.3,1.5,0.2,1.8,1
		c0.3,0.8-0.1,1.7-1,2c-1.7,0.7-3.5,1.3-5.3,1.9c-0.2,0.1-0.3,0.1-0.5,0.1C63.9,98.1,63.8,98.2,63.7,98.2z"/>
</g>
</svg>
