<?xml version="1.0" encoding="utf-8"?>
<!-- Generator: Adobe Illustrator 19.2.1, SVG Export Plug-In . SVG Version: 6.00 Build 0)  -->
<svg version="1.1" id="Capa_1" xmlns="http://www.w3.org/2000/svg" xmlns:xlink="http://www.w3.org/1999/xlink" x="0px" y="0px"
	 viewBox="0 0 100 100" style="enable-background:new 0 0 100 100;" xml:space="preserve">
<style type="text/css">
	.st0{fill:#FFFFFF;}
</style>
<g>
	<path class="st0" d="M66,93.5c-1.4,4.2-4.2,6.5-8,6.5c-3.8,0-6.5-2.2-7.9-6.4c-8.1,0-16.2,0-24.4,0c-1.3,4.2-4.1,6.5-8.6,6.4
		c-3.4-0.1-6-2.4-7.4-6.4c-2.5,0-5.1,0-7.6,0C0.6,93.5,0,93,0,91.4c0-2.7-0.2-5.4,0.2-8c0.7-4.6,3.5-7.7,7.9-8.9
		c4.2-1.2,8.4-2,12.6-3.1c0.6-0.2,1.2-0.5,1.7-0.9c1.7-1.6,3.3-3.2,4.9-4.8c2.9-2.9,6.4-4.3,10.5-4.3c3.8,0,7.7,0,11.5,0
		c4.1,0,7.5,1.4,10.4,4.3c1.7,1.6,3.3,3.3,5,5c0.3,0.3,0.8,0.5,1.2,0.6c1.5,0.4,3,0.6,4.5,1c2.2,0.5,3.7,2.4,3.7,4.6
		c0,5,0,9.9,0,14.9c0,1.3-0.6,1.9-1.9,1.9C70.3,93.6,68.2,93.5,66,93.5z M50.1,90.3c1.7-4.3,4.2-6.4,7.9-6.4c3.8,0,6.3,2,8,6.4
		c1.6,0,3.3,0,4.9,0c0-4.5,0-8.9,0-13.4c0-1-0.7-1.5-1.6-1.7c-1.4-0.3-2.9-0.5-4.3-0.9c-0.8-0.2-1.6-0.6-2.1-1.1
		c-1.8-1.6-3.4-3.4-5.2-5.1c-2.3-2.3-5-3.5-8.3-3.5c-3.9,0-7.8,0-11.7,0c-3.3,0-6.1,1.2-8.4,3.5c-1.7,1.7-3.3,3.4-5.1,5
		c-0.6,0.5-1.3,1-2,1.1c-4.2,1-8.4,1.9-12.6,2.9c-3,0.7-5.2,2.5-5.9,5.6c-0.5,2.4-0.4,5-0.6,7.5c2.2,0,4.1,0,6,0c0.2,0,0.5,0,0.7,0
		c1.5-4.1,4.1-6.3,7.6-6.4c1.7,0,3.3,0.4,4.7,1.3c1.9,1.2,3,3,3.6,5.1C33.9,90.3,42,90.3,50.1,90.3z M22.6,91.9
		c0-2.7-2.2-4.8-4.9-4.8c-2.6,0-4.8,2.2-4.8,4.9c0,2.7,2.2,4.8,4.9,4.8C20.5,96.7,22.6,94.5,22.6,91.9z M53.3,91.8
		c-0.1,2.7,2.1,4.9,4.8,5c2.6,0.1,4.9-2.1,4.9-4.7c0.1-2.7-2-4.9-4.6-5C55.6,87,53.3,89.1,53.3,91.8z"/>
	<path class="st0" d="M52.1,4.4c-0.3-1-0.6-2-0.8-3C65.2-2.7,83.7,2,94,18c10,15.5,7.7,38.7-9.2,51.6c1.2,0,2.2,0,3.2,0
		c0,1.2,0,2.2,0,3.3c-0.6,0-1.1,0-1.6,0c-2.1-0.1-4.2-0.1-6.2-0.2c-1.3-0.1-2-0.9-1.6-2.1c0.8-2.5,1.6-5,2.4-7.7c1,0.3,2,0.6,3.1,1
		c-0.3,0.9-0.5,1.8-0.8,2.7c10.4-7.5,17.6-23.9,11.4-40.3C88.2,9.5,70.3-0.2,52.1,4.4z"/>
	<path class="st0" d="M39,7.1C37.9,7,36.9,7,36,6.9c0-1.1,0-2,0-3.1c0.2,0,0.4-0.1,0.5-0.1c2.4,0.1,4.8,0.1,7.2,0.2
		c1.6,0.1,2.1,1,1.7,2.4c-0.8,2.4-1.6,4.8-2.4,7.3c-1-0.3-2-0.6-3-1c0.3-0.9,0.6-1.8,0.9-2.9c-12.4,8.2-20.4,27.5-10.8,45.8
		c-0.9,0.5-1.8,1-2.7,1.6C18.8,42.3,21.4,19.8,39,7.1z"/>
	<path class="st0" d="M43.5,79c-5.1,0-10.2,0-15.3,0c-0.9,0-1.8,0-2.2-1c-0.4-1,0.2-1.6,0.9-2.3c1.8-1.8,3.6-3.6,5.4-5.4
		c1.7-1.7,3.8-2.6,6.2-2.6c3.4,0,6.8,0,10.2,0c2.4,0,4.5,0.8,6.2,2.5c1.9,1.9,3.8,3.8,5.7,5.7c0.6,0.6,1,1.2,0.6,2.1
		c-0.4,0.9-1.1,1-2,1C54,79,48.7,79,43.5,79z M41.9,75.8c0-1.6,0-3.2,0-4.7c-4.9-0.5-8.6,1.2-10.3,4.7C35,75.8,38.4,75.8,41.9,75.8z
		 M45.2,75.7c3.5,0,6.9,0,10.4,0c-4-4.6-5.7-5.4-10.4-4.6C45.2,72.6,45.2,74.1,45.2,75.7z"/>
	<path class="st0" d="M64.8,30.3c2,0,3.9,0,5.7,0c0.8,0,1.5,0.1,1.9,1c0.4,0.8,0,1.4-0.5,2c-4.7,5.7-9.3,11.4-14,17.1
		c-0.6,0.7-1.2,1.2-2.2,0.8c-0.9-0.4-1-1.2-0.9-2.1c0.4-3,0.9-5.9,1.3-9c-1.4,0-2.8,0-4.1,0c-0.8,0-1.5-0.1-1.9-0.9
		c-0.4-0.8-0.1-1.4,0.4-2c4.1-5.7,8.3-11.4,12.4-17c0.7-1,1.4-1.3,2.2-0.9c1,0.5,1,1.3,0.9,2.2C65.6,24.3,65.2,27.2,64.8,30.3z
		 M67.6,33.5c-1.5,0-2.9,0-4.2,0c-1.7,0-2.3-0.7-2-2.4c0.2-1.3,0.4-2.6,0.5-3.8c-0.1,0-0.1-0.1-0.2-0.1c-2.3,3.1-4.6,6.3-6.9,9.6
		c1,0,1.9,0,2.7,0c1.8,0,2.4,0.7,2.1,2.4c-0.2,1.5-0.4,3.1-0.7,4.6c0.1,0,0.1,0.1,0.2,0.1C61.9,40.5,64.7,37.1,67.6,33.5z"/>
</g>
</svg>
