<?xml version="1.0" encoding="utf-8"?>
<!-- Generator: Adobe Illustrator 19.2.1, SVG Export Plug-In . SVG Version: 6.00 Build 0)  -->
<svg version="1.1" id="Capa_1" xmlns="http://www.w3.org/2000/svg" xmlns:xlink="http://www.w3.org/1999/xlink" x="0px" y="0px"
	 viewBox="0 0 100 100" style="enable-background:new 0 0 100 100;" xml:space="preserve">
<style type="text/css">
	.st0{fill:#FFFFFF;}
</style>
<g>
	<path class="st0" d="M28.3,93.4c0,1.6,0,3.1,0,4.6c0,1.3-0.6,1.9-1.9,1.9c-5.4,0-10.8,0-16.1,0c-1.3,0-1.9-0.6-1.9-2
		c0-1.5,0-3,0-4.6c-0.3,0-0.5-0.1-0.8-0.1c-1.7,0-3.4,0-5.1,0c-2,0-2.4-0.5-2.4-2.5c0,0,0-0.1,0-0.1c0-21.7,0-43.3,0-65
		C0,21.9,1.9,20,5.8,20c16.5,0,33.1,0,49.6,0c0.4,0,0.8,0,1.3,0c0-1.1,0-2.1,0-3.3c-0.5,0-1,0-1.5,0c-1.1,0-1.8-0.7-1.8-1.8
		c0-2.2,0-4.3,0-6.5c0-1.2,0.7-1.8,2.1-1.8c5,0,9.9,0,14.9,0c4.6,0,9.2,0,13.7,0c2.2,0,2.6,0.4,2.6,2.6c0,0.2,0,0.4,0,0.7
		c0.4,0,0.7,0,1,0c1.7,0,2.3-0.5,2.3-2.2c0-2.2,0-4.4,0-6.7c0-0.3,0-0.7,0-1.1c1.1,0,2.2,0,3.3,0c0,0.9,0,1.8,0,2.7
		c0,1.7,0,3.5,0,5.2c0,3.3-2.1,5.4-5.4,5.4c-0.4,0-0.8,0-1.1,0c-0.2,1-0.2,2.1-0.8,2.7c-0.6,0.6-1.7,0.6-2.7,0.9c0,0.9,0,1.9,0,3.1
		c2.1,0,4.1,0,6.2,0c1.7,0,3.4,0,5.1,0c3.3,0,5.3,2.1,5.3,5.3c0,18.4,0,36.7,0,55.1c0,3.4,0,6.8,0,10.2c0,2.3-0.4,2.7-2.7,2.7
		c-1.8,0-3.7,0-5.6,0c0,1.6,0,3.1,0,4.5c0,1.6-0.6,2.1-2.1,2.1c-5.2,0-10.5,0-15.7,0c-1.6,0-2.1-0.6-2.1-2.1c0-1.5,0-2.9,0-4.4
		C57.2,93.4,42.8,93.4,28.3,93.4z M14.9,65c0-7.8,0-15.6,0-23.3c-1.5,0-3,0-4.4,0c-1.6,0-2.1-0.6-2.2-2.1c0-1.9,0-3.7,0-5.6
		c0-1.7,0.5-2.3,2.2-2.3c1.4,0,2.9,0,4.4,0c0-0.9,0-1.7,0-2.5c0-2.1,0.4-2.5,2.6-2.5c22.7,0,45.5,0,68.2,0c2.1,0,2.6,0.4,2.6,2.5
		c0,16.5,0,33,0,49.5c0,0.4,0,0.8,0,1.3c2.8,0,5.5,0,8.3,0c0-0.4,0-0.7,0-1.1c0-17.7,0-35.4,0-53.1c0-1.9-0.5-2.4-2.4-2.4
		c-29.5,0-59,0-88.5,0c-2,0-2.4,0.5-2.4,2.5c0,17.7,0,35.3,0,53c0,0.4,0,0.7,0,1.1c4,0,7.8,0,11.6,0c0-1.7,0-3.2,0-4.9
		c-1.6,0-3.1,0-4.6,0c-1.4,0-2-0.6-2-1.9c0-2,0-4.1,0-6.1c0-1.3,0.6-1.9,1.9-1.9C11.8,65,13.3,65,14.9,65z M84.9,79.9
		c0-16.7,0-33.3,0-49.9c-10,0-20,0-29.9,0c0,16.7,0,33.2,0,49.9C65,79.9,74.9,79.9,84.9,79.9z M18.4,30c0,16.7,0,33.3,0,49.9
		c7.8,0,15.5,0,23.2,0c0-16.7,0-33.2,0-49.9C33.9,30,26.2,30,18.4,30z M3.4,89.9c31.1,0,62.2,0,93.2,0c0-2.2,0-4.4,0-6.5
		c-31.1,0-62.1,0-93.2,0C3.4,85.6,3.4,87.7,3.4,89.9z M45.1,30c0,16.7,0,33.3,0,49.9c2.2,0,4.4,0,6.5,0c0-16.7,0-33.2,0-49.9
		C49.4,30,47.3,30,45.1,30z M83.3,10c-8.9,0-17.7,0-26.6,0c0,1.1,0,2.2,0,3.2c8.9,0,17.7,0,26.6,0C83.3,12.1,83.3,11.1,83.3,10z
		 M11.7,96.6c4.5,0,8.9,0,13.2,0c0-1.1,0-2.2,0-3.2c-4.5,0-8.8,0-13.2,0C11.7,94.5,11.7,95.5,11.7,96.6z M75.1,93.3
		c0,1.1,0,2.2,0,3.2c4.4,0,8.8,0,13.2,0c0-1.1,0-2.2,0-3.2C83.8,93.3,79.5,93.3,75.1,93.3z M73.3,20c0-1.1,0-2.2,0-3.2
		c-2.2,0-4.4,0-6.5,0c0,1.1,0,2.2,0,3.2C68.9,20,71.1,20,73.3,20z M60.1,16.7c0,1.1,0,2.2,0,3.2c1.1,0,2.2,0,3.2,0
		c0-1.1,0-2.2,0-3.2C62.2,16.7,61.2,16.7,60.1,16.7z M76.7,19.9c1.2,0,2.2,0,3.2,0c0-1.1,0-2.1,0-3.2c-1.1,0-2.2,0-3.2,0
		C76.7,17.8,76.7,18.8,76.7,19.9z M14.9,38.3c0-1.1,0-2.2,0-3.2c-1.1,0-2.2,0-3.2,0c0,1.1,0,2.2,0,3.2
		C12.8,38.3,13.9,38.3,14.9,38.3z M11.7,71.6c1.2,0,2.2,0,3.2,0c0-1.1,0-2.1,0-3.2c-1.1,0-2.2,0-3.2,0
		C11.7,69.5,11.7,70.5,11.7,71.6z"/>
	<path class="st0" d="M74.6,41.6c1.8,0,3.4,0,5,0c0.8,0,1.4,0.2,1.8,0.9c0.4,0.8,0.2,1.4-0.3,2c-3.8,4.8-7.5,9.7-11.3,14.5
		c-0.5,0.7-1.1,1.1-2,0.8c-0.9-0.3-1.2-1-1.2-1.9c0-2.1,0-4.2,0-6.4c-1.8,0-3.6-0.1-5.4,0c-2.7,0.2-3.6-1.2-2.1-3.6
		c2.6-4.4,5-8.9,7.4-13.3c0.5-1,1.2-1.4,2.4-1.4c2.4,0.1,4.8,0,7.2,0c2.1,0,2.7,1.2,1.7,3C76.8,38,75.8,39.7,74.6,41.6z M76.6,45
		c-1.7,0-3.3,0-4.8,0c-1.5,0-2.2-1.3-1.5-2.6c0.2-0.4,0.5-0.8,0.7-1.3c0.9-1.4,1.7-2.9,2.7-4.5c-1.3,0-2.5,0-3.6,0
		c-0.6,0-0.9,0.2-1.2,0.7c-1.5,2.8-3.1,5.6-4.7,8.5c-0.4,0.8-0.9,1.6-1.4,2.5c1.8,0,3.4,0,5,0c1.6,0,2.1,0.6,2.1,2.1
		c0,0.9,0,1.8,0,2.7c0.1,0,0.1,0,0.2,0C72.3,50.5,74.4,47.8,76.6,45z"/>
	<path class="st0" d="M75,76.6c0-1.2,0-2.2,0-3.3c1.1,0,2.1,0,3.3,0c0-2.8,0-5.5,0-8.3c1.1,0,2.2,0,3.4,0c0,0.4,0,0.8,0,1.3
		c0,2.7,0,5.5,0,8.2c0,1.5-0.6,2.1-2.1,2.1C78.1,76.6,76.6,76.6,75,76.6z"/>
	<path class="st0" d="M61.7,73.3c1.1,0,2.1,0,3.2,0c0,1.1,0,2.1,0,3.2c-1.1,0-2.1,0-3.2,0C61.7,75.6,61.7,74.5,61.7,73.3z"/>
	<path class="st0" d="M71.6,73.4c0,1.1,0,2.1,0,3.2c-1,0-2.1,0-3.2,0c0-1,0-2.1,0-3.2C69.4,73.4,70.5,73.4,71.6,73.4z"/>
	<path class="st0" d="M21.7,41.6c0-2.1,0-4.2,0-6.4c0-1.4,0.6-2,2-2c4.2,0,8.5,0,12.7,0c1.4,0,2,0.6,2,2c0,4.2,0,8.5,0,12.7
		c0,1.4-0.6,2-2,2c-4.2,0-8.5,0-12.7,0c-1.4,0-2-0.6-2-2C21.7,45.9,21.7,43.8,21.7,41.6z M35,36.7c-3.4,0-6.6,0-9.9,0
		c0,3.3,0,6.6,0,9.9c3.3,0,6.6,0,9.9,0C35,43.2,35,40,35,36.7z"/>
	<path class="st0" d="M38.3,56.6c-5.5,0-11,0-16.5,0c0-1,0-2.1,0-3.2c5.5,0,11,0,16.5,0C38.3,54.4,38.3,55.4,38.3,56.6z"/>
	<path class="st0" d="M28.3,63.3c-2.2,0-4.3,0-6.5,0c0-1.1,0-2.1,0-3.2c2.1,0,4.3,0,6.5,0C28.3,61.1,28.3,62.1,28.3,63.3z"/>
	<path class="st0" d="M38.3,63.3c-2.2,0-4.3,0-6.5,0c0-1.1,0-2.1,0-3.2c2.2,0,4.3,0,6.5,0C38.3,61.1,38.3,62.1,38.3,63.3z"/>
</g>
</svg>
