<?xml version="1.0" encoding="utf-8"?>
<!-- Generator: Adobe Illustrator 19.2.1, SVG Export Plug-In . SVG Version: 6.00 Build 0)  -->
<svg version="1.1" id="Capa_1" xmlns="http://www.w3.org/2000/svg" xmlns:xlink="http://www.w3.org/1999/xlink" x="0px" y="0px"
	 viewBox="0 0 100 100" style="enable-background:new 0 0 100 100;" xml:space="preserve">
<style type="text/css">
	.st0{fill:#FFFFFF;}
</style>
<g>
	<path class="st0" d="M26.4,74.9c7.9,0,15.7,0,23.5,0c0.2-1.3,0.3-2.6,0.5-3.9c0.7-4.5,2.3-8.7,4.6-12.6c1.4-2.4,2.9-4.8,3.4-7.7
		c0.2-1,0.3-2,0.3-3c0.1-1.2,0.7-1.8,1.7-1.8c1,0,1.5,0.7,1.5,2c-0.1,3.5-1.1,6.7-2.8,9.7c-1.3,2.4-2.7,4.8-3.8,7.4
		c-1.7,3.9-2.2,8.2-2.3,12.4c0,1.1,0,2.2-0.1,3.3c-0.1,1.6-0.8,3-2.2,3.7c-1.2,0.6-1.4,1.4-1.4,2.6c0.1,2.4-1,4.2-3.2,5.2
		c-0.2,0.1-0.5,0.5-0.5,0.8c-0.1,0.9,0,1.9-0.2,2.8c-0.5,2.3-2.5,4-4.8,4.1c-1.7,0.1-3.4,0.1-5.1,0c-2.7-0.1-4.9-2.2-5.1-5
		c0-0.2,0-0.3,0-0.5c0.2-1.2-0.1-2-1.4-2.7c-1.5-0.8-2.3-2.3-2.3-4.1c0-0.5-0.1-0.9,0-1.4c0.1-0.7-0.2-1.1-0.8-1.5
		c-1.9-1-2.7-2.6-2.8-4.7c-0.2-3.1-0.3-6.2-0.7-9.3c-0.5-3.7-1.9-7.1-3.8-10.3c-1.5-2.6-3.1-5.2-3.8-8.1c-3.1-13.3,5.1-26.2,18-29.1
		c3.7-0.8,7.4-0.8,11,0.1c1.4,0.4,2,1.1,1.8,2.1c-0.3,1-1.1,1.4-2.5,1.1c-7.8-1.7-14.5,0.2-20.1,5.9c-6.1,6.2-7.6,16.6-2.9,24.2
		c2.7,4.3,4.9,8.9,5.6,14C26,72.1,26.2,73.5,26.4,74.9z M26.5,78.2c0,0.3,0,0.6-0.1,0.9c0,2.5,0.5,3.1,3,3.1c3,0,6,0,9,0
		c3,0,5.9,0,8.9,0c1.3,0,2.1-0.4,2.3-1.3c0.2-0.8,0.1-1.7,0.2-2.7C42,78.2,34.3,78.2,26.5,78.2z M30.1,85.5c0,0.6,0,1.2,0,1.8
		c0,1.3,0.8,2.1,2,2.1c4,0,8,0,12,0c1,0,1.8-0.5,2-1.5c0.1-0.8,0-1.6,0-2.5C40.8,85.5,35.5,85.5,30.1,85.5z M33.8,92.8
		c0,0.8-0.1,1.5,0,2.1c0.1,1.1,0.9,1.8,2,1.8c1.5,0,3.1,0,4.6,0c1.2,0,2-0.8,2-1.9c0.1-0.7,0-1.3,0-2C39.6,92.8,36.8,92.8,33.8,92.8
		z"/>
	<path class="st0" d="M92.6,10.8c-0.5,1.1-0.8,2-1.3,3c-0.3,0.6-0.3,1,0,1.6c0.5,0.9,0.9,1.9,1.2,2.9c0.3,0.9,0.7,1.3,1.6,1.6
		c3.3,1.2,3,1,3,4.3c0,1.4,0,2.7,0,4.1c0,0.9-0.4,1.6-1.2,1.8c-2.3,0.5-3.3,1.9-4.1,4c-0.6,1.5-0.7,2.7,0.1,4.2
		c0.9,1.8,0.8,2-0.6,3.4c-1.2,1.2-2.4,2.4-3.6,3.6c-0.7,0.7-1.5,0.9-2.3,0.4c-1.8-1.2-3.5-1-5.4-0.1c-1.6,0.7-2.7,1.5-3.1,3.3
		c-0.4,1.6-0.9,1.8-2.6,1.8c-1.7,0-3.4,0-5.1,0c-1.1,0-1.9-0.4-2.1-1.4c-0.4-2-1.6-3-3.6-3.7c-1.8-0.7-3.2-0.9-4.9,0.1
		c-1.2,0.7-1.7,0.5-2.7-0.5c-1.3-1.3-2.5-2.6-3.8-3.8c-0.7-0.7-1-1.5-0.5-2.3c1.1-1.8,1-3.4,0.1-5.4c-0.8-1.7-1.6-2.8-3.4-3.3
		c-1.5-0.4-1.7-0.9-1.7-2.4c0-1.7,0-3.5,0-5.2c0-1.1,0.3-1.9,1.4-2.1c2-0.4,2.9-1.7,3.8-3.6c0.8-1.9,0.9-3.3-0.2-5
		c-0.6-1-0.4-1.8,0.5-2.6c1.4-1.3,2.7-2.6,4-4c0.7-0.7,1.4-0.9,2.3-0.4c1.8,1.2,3.5,1,5.4,0.1c1.6-0.7,2.7-1.5,3.1-3.3
		C67.4,0.1,67.8,0,69.5,0c1.8,0,3.5,0,5.3,0c1,0,1.7,0.4,1.9,1.3c0.4,2.1,1.8,3.1,3.8,3.9c1.7,0.7,3,0.8,4.6-0.1
		c1.4-0.8,1.8-0.6,2.9,0.5c1.3,1.3,2.6,2.5,3.8,3.8C92.1,9.8,92.4,10.3,92.6,10.8z M85.9,42.3c0.1,0.1,0.2,0.2,0.3,0.2
		c0.4-0.5,0.7-1,1.1-1.4c1.7-1.7,1.8-1.8,0.7-3.9c-0.5-1-0.4-1.8,0.1-2.7c0.6-1.2,1.3-2.4,1.6-3.7c0.4-1.5,1.1-2.4,2.6-2.8
		c1.7-0.5,1.7-0.6,1.7-2.4c0-2.4,0-2.4-2.3-3.2c-1-0.4-1.5-1-1.8-2c-0.4-1.3-0.8-2.6-1.5-3.8c-0.8-1.3-0.8-2.4-0.1-3.7
		c0.8-1.6,0.8-1.6-0.5-2.9C86,8.2,86,8.2,83.9,9.2C82.8,9.7,82,9.6,81,9c-1.2-0.7-2.5-1.3-3.8-1.6c-1.4-0.4-2.2-1.1-2.6-2.5
		c-0.5-1.8-0.6-1.7-2.5-1.7c-2.3,0-2.4,0-3.2,2.2c-0.4,1.1-1,1.6-2.1,1.9c-1.3,0.4-2.6,0.8-3.7,1.5c-1.3,0.8-2.5,0.8-3.8,0.1
		c-1.6-0.8-1.6-0.7-2.8,0.5c-1.7,1.7-1.8,1.7-0.7,4c0.4,0.9,0.3,1.7-0.1,2.5c-0.7,1.2-1.3,2.5-1.7,3.8c-0.4,1.5-1.1,2.3-2.5,2.7
		c-1.7,0.5-1.7,0.6-1.7,2.4c0,2.4,0,2.4,2.2,3.2c1,0.4,1.5,1,1.8,2c0.4,1.3,0.9,2.7,1.6,3.9c0.7,1.2,0.8,2.3,0.1,3.5
		c-0.9,1.7-0.8,1.7,0.5,3c1.6,1.6,1.7,1.7,3.8,0.7c1-0.5,1.9-0.4,2.8,0.1c1.1,0.6,2.3,1.2,3.5,1.5c1.7,0.4,2.7,1.2,3,2.9
		c0.2,1.2,0.9,1.5,2.1,1.5c2.6-0.1,2.6,0,3.6-2.5c0.3-0.8,0.9-1.2,1.7-1.5c1.5-0.5,3-1.1,4.4-1.8c1-0.5,1.8-0.7,2.8-0.1
		C84.5,41.7,85.2,42,85.9,42.3z"/>
	<path class="st0" d="M48.9,40.5c-0.3,6.2-2,10.6-6.9,13.2c-0.4,0.2-0.9,0.5-1.3,0.8c-2.8,1.5-4.4,4-3.1,8.6c0.5,1.7,1.2,3.3,1.9,5
		c0.5,1.2,0.2,2.1-0.7,2.5c-0.9,0.4-1.8,0-2.3-1.2c-0.7-1.8-1.4-3.7-2.1-5.5c-0.2-0.5-0.5-0.9-0.9-1.2c-4.6-3.6-6.6-8.3-5.5-14.1
		c0.6-3.1,2.5-5.2,5.2-6.7c3-1.6,6-3.3,9-5.1c0.9-0.6,1.7-1.3,2.6-2c1.2-0.9,2.3-0.6,2.8,0.7C48.1,37.4,48.6,39.4,48.9,40.5z
		 M35.7,54.2c1.5-1,2.9-2.2,4.5-3.1c2.9-1.6,4.5-3.9,5.1-7.1c0.3-1.8,0.4-3.6-0.2-5.4c-1.5,1-2.8,1.9-4.2,2.8
		c-1.4,0.8-3,1.5-4.4,2.3c-0.9,0.5-1.7,0.9-2.5,1.4c-3.5,2.3-4.3,8.5-1.4,11.7c0-0.1,0.1-0.1,0.1-0.2c0-0.6-0.1-1.3-0.1-1.9
		c-0.2-3.5,0.8-6.4,4-8.1c2-1,3.7-2.2,5-4.1c0.4-0.6,1.1-0.9,1.7-0.6c0.5,0.3,0.9,0.9,1.1,1.4c0.1,0.3-0.2,0.9-0.4,1.3
		c-1.4,2-3.1,3.5-5.4,4.5C36.2,50.3,35.4,52.1,35.7,54.2z"/>
	<path class="st0" d="M19,15.1c0.2,0.2,0.8,0.5,1.1,0.9c0.9,1.4,1.7,2.9,2.6,4.4c0.5,0.9,0.2,1.8-0.5,2.3c-0.8,0.5-1.7,0.2-2.2-0.7
		c-0.9-1.5-1.8-3-2.6-4.5C16.8,16.4,17.5,15.1,19,15.1z"/>
	<path class="st0" d="M4.5,29c2.1,1.3,4.1,2.5,5.9,3.8c0.6,0.4,0.4,1.4-0.2,1.8C9.8,35,8.9,35.3,8.4,35c-1.7-0.8-3.3-1.8-4.9-2.8
		c-0.6-0.4-0.9-1.1-0.5-1.8C3.3,30,3.9,29.6,4.5,29z"/>
	<path class="st0" d="M39.8,14.1c0,0.9,0,1.7,0,2.6c0,1-0.7,1.6-1.6,1.6c-0.9,0-1.6-0.6-1.6-1.6c0-1.8,0-3.5,0-5.3
		c0-0.9,0.8-1.6,1.6-1.6c0.9,0,1.5,0.7,1.6,1.6C39.8,12.4,39.8,13.3,39.8,14.1z"/>
	<path class="st0" d="M72.2,38.1c-6.9,0.3-12.8-5.3-13.1-12.4c-0.3-6.9,5.3-12.9,12.4-13.1c6.9-0.3,12.9,5.3,13.1,12.4
		C85,31.9,79.4,37.8,72.2,38.1z M71.9,34.8c5.3,0,9.6-4.3,9.6-9.6c0-5.3-4.4-9.6-9.6-9.5c-5.2,0-9.5,4.3-9.5,9.5
		C62.3,30.5,66.6,34.8,71.9,34.8z"/>
</g>
</svg>
