<?xml version="1.0" encoding="utf-8"?>
<!-- Generator: Adobe Illustrator 19.2.1, SVG Export Plug-In . SVG Version: 6.00 Build 0)  -->
<svg version="1.1" id="Capa_1" xmlns="http://www.w3.org/2000/svg" xmlns:xlink="http://www.w3.org/1999/xlink" x="0px" y="0px"
	 viewBox="0 0 100 100" style="enable-background:new 0 0 100 100;" xml:space="preserve">
<style type="text/css">
	.st0{fill:#FFFFFF;}
</style>
<g>
	<path class="st0" d="M81.8,100c-21.3,0-42.4,0-63.7,0c0-0.6,0-1.1,0-1.7c0-12.1,0-24.2,0-36.2c0-0.9-0.2-1.5-1.1-2
		c-2.3-1.4-3.5-3.6-3.5-6.3c0-15.3,0-30.7,0-46c0-4.5,3.4-7.7,8.1-7.7c17.9,0,35.7,0,53.6,0c1.2,0,2.4,0,3.6,0
		c4.2,0.1,7.5,3.4,7.5,7.5c0,15.4,0,30.9,0,46.3c0,2.7-1.2,4.9-3.5,6.3c-0.8,0.5-1,1.1-1,1.9c0,12,0,24.1,0,36.1
		C81.8,98.7,81.8,99.3,81.8,100z M49.9,56.9c9.2,0,18.5,0,27.7,0c3.2,0,4.2-1,4.2-4.1c0-14.7,0-29.4,0-44c0-3.1-1-4.1-4.2-4.1
		c-18.4,0-36.9,0-55.3,0c-3.2,0-4.2,1-4.2,4.1c0,14.7,0,29.4,0,44c0,3.1,1,4.1,4.2,4.1C31.6,56.9,40.7,56.9,49.9,56.9z M55.7,68.1
		c-3.9,0-7.6,0-11.4,0c0-2.3,0-4.4,0-6.6c-1.5,0-3,0-4.6,0c0,2.3,0,4.5,0,6.7c-3.8,0-7.5,0-11.3,0c0-2.3,0-4.5,0-6.6
		c-2,0-3.8,0-5.6,0c0,11.4,0,22.6,0,33.9c18.2,0,36.3,0,54.4,0c0-11.4,0-22.7,0-33.9c-1.9,0-3.7,0-5.6,0c0,2.3,0,4.4,0,6.6
		c-3.8,0-7.5,0-11.4,0c0-2.3,0-4.5,0-6.7c-1.6,0-3,0-4.5,0C55.7,63.7,55.7,65.9,55.7,68.1z M33,61.5c0,0.8,0,1.5,0,2.1
		c0.8,0,1.4,0,2.1,0c0-0.8,0-1.4,0-2.1C34.4,61.5,33.7,61.5,33,61.5z M51.1,63.6c0-0.7,0-1.4,0-2.1c-0.8,0-1.4,0-2.1,0
		c0,0.8,0,1.4,0,2.1C49.7,63.6,50.4,63.6,51.1,63.6z M67,61.5c-0.8,0-1.5,0-2.2,0c0,0.8,0,1.4,0,2.1c0.8,0,1.5,0,2.2,0
		C67,62.8,67,62.2,67,61.5z"/>
	<path class="st0" d="M50,31.8c-6.4,0-12.8,0-19.2,0c-5,0-8.1-3.1-8.1-8c0-2.4,0-4.7,0-7.1c0.1-4.3,3.2-7.6,7.5-7.6
		c13.2,0,26.3,0,39.5,0c4.3,0,7.5,3.3,7.5,7.6c0,2.4,0,4.8,0,7.2c0,4.7-3.2,7.9-7.8,7.9C63,31.9,56.5,31.8,50,31.8z M50,27.3
		c6.4,0,12.9,0,19.3,0c2.3,0,3.4-1.1,3.4-3.4c0-2.3,0-4.6,0-7c0-2.1-1.2-3.3-3.2-3.3c-13,0-26,0-38.9,0c-2.2,0-3.3,1.2-3.3,3.4
		c0,2.1,0,4.3,0,6.4c0,2.9,1,3.9,3.8,3.9C37.4,27.3,43.7,27.3,50,27.3z"/>
	<path class="st0" d="M48.4,44.7c-1.2,0-2,0.1-2.8,0c-1.8-0.2-2.7-1.9-1.7-3.4c1.5-2.2,3.1-4.4,4.7-6.6c0.8-1.1,2.1-1.1,3.2-0.3
		c1,0.7,1.2,1.9,0.6,3c-0.5,0.8-1.1,1.6-1.9,2.7c1,0,1.9,0,2.7,0c1.1,0,2,0.4,2.4,1.4c0.4,1,0.1,1.8-0.6,2.6c-1.7,2-3.4,4.1-5.1,6.1
		c-1,1.2-2.4,1.4-3.4,0.5c-1-0.8-1.1-2.2-0.1-3.4C46.9,46.6,47.5,45.8,48.4,44.7z"/>
	<path class="st0" d="M36.4,90.9c0-4.5,0-9,0-13.5c9,0,18,0,27.1,0c0,4.4,0,8.9,0,13.5C54.6,90.9,45.5,90.9,36.4,90.9z M41,81.9
		c0,1.5,0,2.9,0,4.4c2.9,0,5.8,0,8.7,0c0-1.5,0-2.9,0-4.4C46.8,81.9,43.9,81.9,41,81.9z M59.1,81.9c-1.6,0-3.1,0-4.6,0
		c0,1.5,0,3,0,4.4c1.6,0,3.1,0,4.6,0C59.1,84.8,59.1,83.5,59.1,81.9z"/>
	<path class="st0" d="M50,18.2c5.2,0,10.3,0,15.5,0c1.6,0,2.5,0.7,2.7,2c0.2,1.4-0.9,2.5-2.5,2.5c-3.2,0-6.3,0-9.5,0
		c-7.1,0-14.2,0-21.3,0c-0.7,0-1.7-0.1-2.1-0.6c-0.5-0.6-0.8-1.6-0.7-2.4c0.2-1.2,1.2-1.6,2.4-1.6c4.5,0,8.9,0,13.4,0
		C48.5,18.2,49.2,18.2,50,18.2z"/>
</g>
</svg>
