<?xml version="1.0" encoding="utf-8"?>
<!-- Generator: Adobe Illustrator 19.2.1, SVG Export Plug-In . SVG Version: 6.00 Build 0)  -->
<svg version="1.1" id="Capa_1" xmlns="http://www.w3.org/2000/svg" xmlns:xlink="http://www.w3.org/1999/xlink" x="0px" y="0px"
	 viewBox="0 0 100 100" style="enable-background:new 0 0 100 100;" xml:space="preserve">
<style type="text/css">
	.st0{fill:#FFFFFF;}
</style>
<g>
	<path class="st0" d="M48.4,86.1c-2.7,0-5.5,0-8.2,0c-1.5,0-2-0.5-2.1-2c-0.1-2.1,0-4.2-0.2-6.3c-0.3-2.6-1.8-4.7-3.6-6.7
		c-9.2-10.1-5-26.5,8-30.8c8.1-2.7,17.1,0.3,21.8,7.4c4.9,7.3,4.4,16.8-1.5,23.2c-2.8,3.1-4.2,6.5-4,10.7c0,0.7,0,1.5,0,2.2
		c0,1.9-0.4,2.3-2.3,2.3C53.7,86.1,51,86.1,48.4,86.1z M55.4,82.9c0-0.4,0.1-0.7,0.1-1c-0.3-5.1,1.4-9.5,4.9-13.3
		c4.6-5,5.1-12.4,1.7-18.1c-3.5-5.9-10.1-9-16.7-7.7c-5.9,1.2-10,4.7-12,10.4c-2,5.7-1,11.1,3.1,15.6c3.3,3.7,5,7.8,4.8,12.7
		c0,0.5,0,0.9,0.1,1.4C46.1,82.9,50.7,82.9,55.4,82.9z"/>
	<path class="st0" d="M15.8,99.5c-3.1,0-6.2,0-9.3,0c-4.2,0-6.5-2.4-6.5-6.6c0-5.3,0-10.5,0-15.8c0-4.7,3-7.7,7.7-7.7
		c5.6,0,11.2,0,16.9,0c0.4,0,1-0.1,1.3,0.1c0.5,0.4,1.1,1,1.1,1.5c0,0.5-0.7,1.1-1.2,1.4c-0.3,0.2-0.8,0.1-1.3,0.1
		c-5.5,0-11,0-16.5,0c-3.2,0-4.7,1.5-4.7,4.7c0,5.2,0,10.4,0,15.6c0,2.5,1,3.5,3.5,3.5c6.1,0,12.3,0,18.4,0c0.3,0,0.5,0,0.8,0
		c1.6-0.1,2.6-1.2,2.7-2.7c0-1.5-1-2.7-2.5-2.8c-0.8-0.1-1.6,0-2.4,0c-4.3,0-8.5,0-12.8,0c-1.4,0-2.1-0.6-2.1-1.6c0-1,0.7-1.5,2-1.6
		c5,0,10,0,15,0c3.2,0,5.8,2.5,5.9,5.6c0.1,3.3-2.2,6.1-5.6,6.2C22.7,99.6,19.2,99.5,15.8,99.5C15.8,99.5,15.8,99.5,15.8,99.5z"/>
	<path class="st0" d="M65.6,33.7c3.4,0,6.9,0,10.3,0c0.6,0,1.4-0.3,1.8-0.7c3.6-3.5,7.2-7.1,10.8-10.7c1.7-1.7,3.8-2.2,6.2-1.4
		c2.3,0.8,3.7,2.4,4.1,4.8c0.4,2.3-0.5,4.1-2.1,5.6c-4.8,4.8-9.6,9.6-14.4,14.4c-1,1-1.4,1.9-1.4,3.3c0.1,2.7,0,5.4,0,8.1
		c0,1.3-0.6,2-1.6,2c-1,0-1.6-0.7-1.6-2c0-3.4-0.1-6.8,0-10.2c0-0.7,0.5-1.6,1-2.1c5.1-5.2,10.2-10.3,15.3-15.4
		c0.3-0.3,0.7-0.7,1-1.1c0.9-1.2,0.8-2.8-0.2-3.8c-1-1-2.6-1.1-3.8-0.2c-0.3,0.3-0.6,0.6-1,0.9c-3.6,3.6-7.1,7.2-10.8,10.7
		c-0.6,0.5-1.5,0.9-2.3,0.9c-7.2,0.1-14.4,0-21.6,0c-0.2,0-0.4,0-0.7,0c-1-0.1-1.7-0.6-1.6-1.7c0-1,0.7-1.5,1.6-1.5
		c2.5,0,5.1,0,7.6,0C63.5,33.7,64.6,33.7,65.6,33.7z"/>
	<path class="st0" d="M70.6,72.6c0-6.2,5-11.1,11.1-11.1c6.1,0,11,5,11,11.1c0,6.1-5.1,11.2-11.2,11.1
		C75.5,83.7,70.6,78.7,70.6,72.6z M81.8,64.6c-4.3-0.1-8,3.5-8,7.8c0,4.4,3.5,8,7.9,8.1c4.3,0,7.9-3.5,8-7.9
		C89.6,68.3,86.1,64.7,81.8,64.6z"/>
	<path class="st0" d="M15.1,67C9,67,4,62.1,4,56c0-6.1,5-11.2,11.1-11.2c6.1,0,11.1,5,11.1,11.2C26.1,62.1,21.2,67,15.1,67z
		 M15.1,63.8c4.3,0,7.9-3.5,7.9-7.9c0-4.4-3.6-8-8-8c-4.3,0-7.9,3.6-7.9,8C7.1,60.3,10.7,63.8,15.1,63.8z"/>
	<path class="st0" d="M31.8,22.6c-6.1,0-11.1-4.9-11.1-11c0-6.2,4.9-11.1,11-11.2c6.1,0,11.2,5,11.1,11.1
		C42.8,17.6,37.8,22.6,31.8,22.6z M31.7,19.4c4.4,0,7.9-3.5,7.9-7.9c0-4.4-3.5-7.9-7.9-7.9c-4.4,0-8,3.5-8,7.9
		C23.8,15.9,27.4,19.4,31.7,19.4z"/>
	<path class="st0" d="M78.5,20.3c0,6.1-5,11-11.1,11.1c-6.1,0-11.2-5.1-11.1-11.2c0-6.1,5.1-11.1,11.2-11
		C73.6,9.2,78.5,14.2,78.5,20.3z M75.3,20.2c0-4.3-3.6-7.9-7.9-7.9c-4.3,0-7.9,3.6-7.9,7.9c0,4.4,3.7,8,8,8
		C71.8,28.1,75.3,24.5,75.3,20.2z"/>
	<path class="st0" d="M32,25.8c3.6,0,7.2,0,10.8,0c5.2,0,8.3,3.5,7.9,8.7c-0.1,1-0.6,1.6-1.5,1.6c-1,0-1.6-0.6-1.6-1.7
		c0-0.5,0-1,0-1.6c-0.1-2.2-1.7-3.8-3.9-3.8c-7.7,0-15.4,0-23.1,0c-2.3,0-3.8,1.6-3.9,3.9c0,2.5,0,5,0,7.5c0,0.9-0.2,1.8-1.3,2
		c-1,0.3-1.9-0.5-1.9-1.7c0-2.7-0.1-5.4,0-8.1c0.1-3.7,2.9-6.5,6.6-6.7C24.1,25.7,28.1,25.8,32,25.8C32,25.8,32,25.8,32,25.8z"/>
	<path class="st0" d="M81.2,86.9c3.7,0,7.5,0,11.2,0c4.8,0,8.2,4.1,7.4,8.8c-0.2,0.9-0.7,1.4-1.6,1.4c-0.9,0-1.4-0.6-1.5-1.5
		c0-0.5,0-1,0-1.6c-0.1-2.4-1.7-4-4.1-4c-7.6,0-15.2,0-22.7,0c-2.4,0-4,1.6-4.1,4c0,0.7,0.1,1.4-0.2,1.9c-0.3,0.5-1,1.1-1.5,1.1
		c-0.5,0-1.3-0.7-1.4-1.2c-1.1-4.4,2.3-8.9,6.9-9C73.5,86.8,77.4,86.9,81.2,86.9C81.2,86.9,81.2,86.9,81.2,86.9z"/>
	<path class="st0" d="M48.2,97.9c-1,0-1.9,0.1-2.9,0c-4.4-0.3-7.6-4.8-6.4-9c0.1-0.5,1-1.1,1.5-1.1c0.5,0,1.2,0.6,1.5,1.2
		c0.3,0.5,0.1,1.3,0.1,1.9c0.1,2.3,1.6,3.9,3.9,3.9c1.6,0,3.2,0,4.8,0c2.3-0.1,3.8-1.7,3.9-3.9c0-0.5,0-1,0-1.6
		c0.1-1,0.6-1.7,1.7-1.6c1,0.1,1.4,0.7,1.5,1.7c0.4,5.3-2.6,8.6-7.9,8.6C49.4,97.9,48.8,97.9,48.2,97.9
		C48.2,97.9,48.2,97.9,48.2,97.9z"/>
	<path class="st0" d="M47.4,66.6c2.6-4.4,5.2-8.6,7.7-12.9c0.2-0.4,0.4-0.9,0.7-1.1c0.6-0.3,1.5-0.6,1.9-0.4
		c0.5,0.3,0.5,1.2,0.7,1.8c0,0.1-0.1,0.2-0.2,0.3c-3.1,5.2-6.2,10.5-9.4,15.7c-0.7,1.1-1.9,1.2-2.7,0.1c-2.6-3.3-5.2-6.7-7.7-10
		c-0.6-0.8-0.7-1.7,0.2-2.3c0.9-0.7,1.7-0.4,2.4,0.4c1.8,2.3,3.6,4.7,5.4,7C46.8,65.7,47.1,66.1,47.4,66.6z"/>
</g>
</svg>
