<?xml version="1.0" encoding="utf-8"?>
<!-- Generator: Adobe Illustrator 19.2.1, SVG Export Plug-In . SVG Version: 6.00 Build 0)  -->
<svg version="1.1" id="Capa_1" xmlns="http://www.w3.org/2000/svg" xmlns:xlink="http://www.w3.org/1999/xlink" x="0px" y="0px"
	 viewBox="0 0 100 100" style="enable-background:new 0 0 100 100;" xml:space="preserve">
<style type="text/css">
	.st0{fill:#FFFFFF;}
</style>
<g>
	<path class="st0" d="M50,61.1c-13.4,0-26.8,0-40.2,0c-4.6,0-8.3-2.6-9.4-6.8c-0.3-1-0.3-2-0.3-3c0-10.5,0-21.1,0-31.6
		C0,13.9,3.9,10,9.8,10c21.1,0,42.3,0,63.4,0c5.7,0,11.5,0,17.2,0c4.9,0,8.6,3.1,9.4,7.8c0.1,0.7,0.1,1.4,0.1,2.1
		c0,10.5,0,20.9,0,31.4c0,6-3.9,9.9-9.9,9.9C76.7,61.1,63.4,61.1,50,61.1z M96.7,41c0-0.4,0-0.7,0-1.1c0-6.7,0-13.4,0-20.1
		c0-4-2.4-6.4-6.5-6.5c-26.8,0-53.6,0-80.4,0c-4,0-6.4,2.4-6.4,6.5c0,6.7,0,13.4,0,20.1c0,0.3,0,0.7,0,1.1C34.5,41,65.5,41,96.7,41z
		 M10.8,57.7c0-1.5,0-2.9,0-4.3c0-2.4,0.9-3.3,3.2-3.3c24,0,48,0,72,0c2.4,0,3.2,0.9,3.2,3.3c0,1.4,0,2.9,0,4.3c4.2,0.7,7.4-2,7.4-6
		c0-1.1,0-2.3,0-3.4c0-1.3,0-2.5,0-3.8c-31.2,0-62.2,0-93.3,0c0,2.4,0,4.8,0,7.2C3.4,55.7,6.6,58.4,10.8,57.7z M85.8,53.5
		c-24,0-47.8,0-71.7,0c0,1.4,0,2.8,0,4.2c23.9,0,47.8,0,71.7,0C85.8,56.3,85.8,54.9,85.8,53.5z"/>
	<path class="st0" d="M95.1,82.3C94.8,81,94.5,80,94.3,79c-0.3-1.1,0.1-2,1.1-2.3c1-0.3,1.8,0.2,2.2,1.4c0.6,2.2,1.2,4.4,1.8,6.6
		c0.3,1.1-0.1,1.9-1,2.3c-2.2,0.9-4.4,1.7-6.6,2.5c-1.4,0.5-2.7-0.5-2.3-1.8c0.1-0.5,0.6-1,1.1-1.2c0.9-0.5,1.8-0.8,2.9-1.2
		c-0.3-0.2-0.5-0.4-0.8-0.6c-4.7-3.1-8-7.4-9.9-12.6c-0.1-0.3-0.2-0.6-0.3-1c-0.2-1,0.2-1.9,1.1-2.1c0.9-0.3,1.7,0.2,2.1,1.2
		c0.8,1.8,1.5,3.6,2.5,5.2c1.5,2.6,3.6,4.7,6.1,6.4C94.4,81.9,94.7,82,95.1,82.3z"/>
	<path class="st0" d="M4.9,82.3c2.6-1.5,4.7-3.3,6.2-5.7c1.3-2,2.3-4.2,3.3-6.4c0.6-1.3,1.9-1.8,2.9-0.8c0.6,0.6,0.5,1.4,0.3,2.1
		c-1.9,5.4-5.1,9.8-9.9,13.1c-0.3,0.2-0.5,0.3-0.8,0.5c0,0,0,0.1-0.2,0.2c0.9,0.3,1.7,0.7,2.5,1c1.3,0.5,1.8,1.4,1.4,2.4
		c-0.4,0.9-1.3,1.2-2.5,0.8c-2.1-0.8-4.2-1.6-6.3-2.4c-1-0.4-1.4-1.2-1.1-2.3c0.6-2.2,1.2-4.4,1.8-6.6c0.3-1.2,1.2-1.7,2.1-1.4
		c1,0.3,1.4,1.2,1.1,2.3C5.4,80.1,5.2,81.1,4.9,82.3z"/>
	<path class="st0" d="M60,84.2c0-3.2,0-6.4,0-9.6c0-1.2,0-2.4,0-3.6c0-1.4,0.7-2.2,1.7-2.1c1,0,1.6,0.8,1.6,2.1c0,4,0,8.1,0,12.1
		c0,0.4,0,0.7,0,1.3c0.9-0.8,1.7-1.5,2.4-2.2c0.9-0.8,1.9-0.8,2.6,0c0.6,0.7,0.5,1.7-0.3,2.5c-1.7,1.6-3.4,3.1-5.1,4.7
		c-0.8,0.7-1.6,0.7-2.4,0c-1.7-1.5-3.4-3.1-5.1-4.7c-0.9-0.8-1-1.7-0.3-2.5c0.7-0.8,1.6-0.8,2.6,0c0.7,0.6,1.5,1.3,2.2,1.9
		C59.8,84.2,59.8,84.2,60,84.2z"/>
	<path class="st0" d="M37.2,84.5c0-4.1,0-8,0-11.9c0-0.6,0-1.2,0-1.9c0-1.1,0.7-1.9,1.7-1.9c1,0,1.6,0.7,1.6,1.9c0,4.1,0,8.3,0,12.4
		c0,0.4,0,0.7,0,1.4c0.9-0.8,1.7-1.5,2.4-2.1c1-0.8,2-0.8,2.6-0.1c0.7,0.8,0.5,1.7-0.4,2.5c-1.7,1.5-3.4,3-5.1,4.5
		c-0.8,0.7-1.6,0.7-2.4,0c-1.7-1.5-3.4-3.1-5.1-4.7c-0.9-0.8-1-1.8-0.3-2.5c0.7-0.7,1.6-0.7,2.5,0C35.5,83,36.2,83.6,37.2,84.5z"/>
</g>
</svg>
