<?xml version="1.0" encoding="utf-8"?>
<!-- Generator: Adobe Illustrator 19.2.1, SVG Export Plug-In . SVG Version: 6.00 Build 0)  -->
<svg version="1.1" id="Capa_1" xmlns="http://www.w3.org/2000/svg" xmlns:xlink="http://www.w3.org/1999/xlink" x="0px" y="0px"
	 viewBox="0 0 100 100" style="enable-background:new 0 0 100 100;" xml:space="preserve">
<style type="text/css">
	.st0{fill:#FFFFFF;}
</style>
<g>
	<path class="st0" d="M76.6,96.8c1.9,0,3.6,0,5.5,0c0-0.5,0-0.9,0-1.4c0-16.3,0-32.6,0-48.8c0-2.2,0.3-2.5,2.5-2.5
		c2.4,0,4.8,0,7.2,0c1.6,0,2.1,0.5,2.1,2.1c0,9.1,0,18.3,0,27.4c0,1.4-0.5,2-1.5,2c-0.9,0-1.5-0.5-1.6-1.4c0-0.3,0-0.7,0-1
		c0-8.2,0-16.4,0-24.6c0-0.4,0-0.8,0-1.3c-1.8,0-3.6,0-5.4,0c0,16.5,0,33,0,49.5c1.8,0,3.5,0,5.4,0c0-0.4,0-0.8,0-1.2
		c0-4.9,0-9.8,0-14.7c0-0.8,0.1-1.4,1-1.8c1.1-0.4,2.1,0.3,2.2,1.6c0,2.1,0,4.3,0,6.4c0,3.2,0,6.4,0,9.7c0.7,0,1.4,0,2.1,0
		c1,0,1.6,0.6,1.6,1.5c0,0.9-0.6,1.6-1.6,1.6c-0.3,0-0.6,0-0.8,0c-28.6,0-57.1,0-85.7,0c-4.5,0-7-2.5-7-7c0-14.3,0-28.6,0-42.9
		c0-3.4,1.8-5.8,4.8-6.6c0.7-0.2,1.4-0.2,2.2-0.2c4.1,0,8.2,0,12.3,0c2.7,0,3.9-1.2,3.9-3.9c0-0.6,0-1.2,0-1.8
		c0.1-0.8,0.5-1.2,1.3-1.3c0.8-0.1,1.4,0.2,1.6,1c1.3,3.4-0.9,7.8-4.4,8.8c-0.7,0.2-1.6,0.3-2.4,0.3c-4.2,0-8.4,0-12.7,0
		c-2.5,0-3.7,1.2-3.7,3.7c0,14.3,0,28.7,0,43c0,2.5,1.2,3.7,3.7,3.7c6.9,0,13.8,0,20.7,0c0.1,0,0.3,0,0.6,0c0-0.4,0-0.8,0-1.2
		c0-6.6,0-13.1,0-19.7c0-1.8,0.4-2.2,2.2-2.2c2.5,0,5,0,7.5,0c1.6,0,2,0.4,2,1.9c0,3.7,0,7.5,0,11.2c0,0.7-0.1,1.4-0.9,1.7
		c-1.2,0.5-2.2-0.3-2.2-1.7c0-2.6,0-5.2,0-7.8c0-0.7,0-1.4,0-2.1c-1.8,0-3.6,0-5.4,0c0,6.6,0,13.2,0,19.8c1.7,0,3.5,0,5.4,0
		c0-1,0-2.1,0-3.2c0.1-1.2,0.8-1.8,1.9-1.6c0.8,0.2,1.1,0.7,1.2,1.5c0,1.1,0,2.1,0,3.2c1.9,0,3.6,0,5.5,0c0-0.4,0-0.9,0-1.3
		c0-9.8,0-19.6,0-29.3c0-1.9,0.4-2.3,2.3-2.3c2.5,0,5,0,7.5,0c1.5,0,1.9,0.5,1.9,1.9c0,1.4,0,2.8,0,4.1c0,1.1-0.6,1.7-1.5,1.7
		c-1,0-1.6-0.6-1.6-1.7c0-0.5,0-1,0-1.5c0-0.4,0-0.9,0-1.4c-1.8,0-3.5,0-5.4,0c0,9.9,0,19.8,0,29.7c1.7,0,3.5,0,5.4,0
		c0-0.4,0-0.8,0-1.2c0-6.2,0-12.4,0-18.7c0-0.4,0-0.8,0.1-1.2c0.2-0.8,0.8-1.1,1.6-1c0.8,0.1,1.3,0.5,1.4,1.3c0.1,0.3,0,0.7,0,1
		c0,6.2,0,12.4,0,18.6c0,0.4,0,0.8,0,1.2c1.8,0,3.5,0,5.4,0c0-0.4,0.1-0.8,0.1-1.3c0-13,0-26,0-39c0-0.4,0-0.8,0-1.1
		c0.1-0.9,0.6-1.5,1.5-1.5c2.9,0,5.7,0,8.6,0c1,0,1.5,0.6,1.5,1.6c0,0.3,0,0.6,0,0.9c0,13,0,26.1,0,39.1
		C76.6,96,76.6,96.4,76.6,96.8z M73.5,57.1c-1.8,0-3.6,0-5.3,0c0,13.3,0,26.5,0,39.7c1.8,0,3.6,0,5.3,0
		C73.5,83.6,73.5,70.4,73.5,57.1z"/>
	<path class="st0" d="M90.4,17.2c-4.3,0-8.2,0-12.1,0c-0.3,0-0.6,0-0.8,0c-1-0.1-1.7-0.8-1.7-1.6c0-0.8,0.7-1.5,1.7-1.5
		c5.4-0.1,10.9-0.2,16.3-0.3c1.3,0,1.9,0.6,1.9,1.9c-0.1,5-0.1,10-0.2,15c0,1.1-0.6,1.8-1.5,1.8c-1,0-1.6-0.7-1.6-1.9
		c0-3.4,0.1-6.8,0.2-10.2c0-0.4,0-0.7,0-1.1c-0.1-0.1-0.3-0.2-0.4-0.4c-0.2,0.3-0.3,0.8-0.5,1c-9.9,10-19.9,19.9-29.8,29.9
		c-2.9,2.9-6.5,2.9-9.4,0c-0.6-0.6-1.3-1.3-1.9-1.9c-1.5-1.5-3.2-1.5-4.7,0c-8.6,8.6-17.2,17.2-25.8,25.7c-0.9,0.8-1.1,1.8-1.1,3
		c0,4.5,0,9,0,13.5c0,0.9-0.1,1.7-1.2,1.9c-1.2,0.2-1.9-0.4-1.9-1.8c0-2.1,0-4.1,0-6.2c0-2.6,0-5.1,0-7.7c0-1.9,0.6-3.4,1.9-4.8
		c8.6-8.6,17.2-17.2,25.9-25.7c2.7-2.7,6.6-2.6,9.3,0.1c0.6,0.6,1.3,1.3,1.9,1.9c1.5,1.5,3.2,1.5,4.7,0c3.3-3.3,6.6-6.7,10-10
		c6.6-6.6,13.3-13.2,19.9-19.8C89.6,17.8,90,17.6,90.4,17.2z"/>
	<path class="st0" d="M32.5,10.7c-4.7,0-9.3,0-14,0c0,2,0,4,0,6c0,0.9,0,1.9,0,2.8c0.1,2.7,2.2,4.9,5,5c1.3,0,2.6,0,3.8,0
		c2.9,0,5.1-2.1,5.2-5.1c0-0.4,0-0.8,0-1.1c0.1-1,0.5-1.5,1.4-1.6c1,0,1.6,0.5,1.7,1.4c0.2,3.1-0.7,5.7-3.2,7.7
		c-1.4,1.1-2.9,1.7-4.7,1.7c-1.5,0-3,0.1-4.5,0c-4.4-0.2-7.9-3.7-7.9-8.1c0-3.4,0-6.8,0-10.2c0-1.3,0.5-1.8,1.8-1.8
		c0.8,0,1.5,0,2.4,0c0-1.9-0.1-3.8,0-5.7c0-0.6,0.4-1.3,0.8-1.6c1-0.7,2.2,0.1,2.2,1.4c0,1.9,0,3.8,0,5.8c1.9,0,3.7,0,5.6,0
		c0-1.6,0-3.1,0-4.7c0-0.4,0-0.8,0-1.2C28.5,0.6,29.1,0,30,0c0.9,0,1.4,0.6,1.5,1.6c0,1.6,0,3.1,0,4.7c0,0.4,0,0.7,0,1.3
		c0.9,0,1.7,0,2.4,0c1.2,0,1.8,0.5,1.8,1.8c0,0.8,0,1.5,0,2.3c-0.1,1-0.6,1.6-1.6,1.6c-1,0-1.4-0.5-1.5-1.6
		C32.6,11.3,32.6,11,32.5,10.7z"/>
	<path class="st0" d="M25.5,33.3c-1.2,0-2.4,0-3.6,0c-1,0-1.6-0.6-1.6-1.5c0-0.9,0.6-1.6,1.7-1.6c2.4,0,4.9,0,7.4,0
		c1,0,1.6,0.6,1.6,1.5c0,1-0.5,1.5-1.6,1.6C28,33.3,26.7,33.3,25.5,33.3C25.5,33.3,25.5,33.3,25.5,33.3z"/>
</g>
</svg>
