<?xml version="1.0" encoding="utf-8"?>
<!-- Generator: Adobe Illustrator 19.2.1, SVG Export Plug-In . SVG Version: 6.00 Build 0)  -->
<svg version="1.1" id="Capa_1" xmlns="http://www.w3.org/2000/svg" xmlns:xlink="http://www.w3.org/1999/xlink" x="0px" y="0px"
	 viewBox="0 0 100 100" style="enable-background:new 0 0 100 100;" xml:space="preserve">
<style type="text/css">
	.st0{fill:#FFFFFF;}
</style>
<g>
	<path class="st0" d="M40.3,100c-6.9,0-13.8,0-20.6,0c-9.7,0-17.5-6.5-19.3-16c-2-10.6,5.8-21.3,16.5-22.5c1.2-0.1,2.4-0.2,3.6-0.1
		c0.6,0,0.8-0.1,1-0.8c2-9.2,10-15.5,19.4-15.4c8.8,0.1,16.5,6.5,18.4,15.2c0.2,0.8,0.4,0.9,1.2,0.9c10-0.3,18.1,6.2,20,16
		c2,10.6-5.8,21.3-16.5,22.5c-1.3,0.1-2.5,0.2-3.8,0.2C53.4,100,46.8,100,40.3,100z M40.3,96.8c6.8,0,13.6,0,20.5,0
		c0.9,0,1.7,0,2.6-0.2c7.5-1,13.1-6.8,14-14.5c0.8-6.9-3.5-13.9-10.2-16.5c-2.8-1.1-5.7-1.3-8.6-0.9c-1.3,0.2-1.9-0.3-2.1-1.6
		c-0.1-0.5-0.1-0.9-0.2-1.4c-1.2-6.7-6.7-12.2-13.3-13.1c-7.3-1-14,2.5-17,8.9c-0.8,1.7-1.1,3.7-1.6,5.6c-0.3,1.4-0.8,1.8-2.2,1.6
		c-0.2,0-0.5,0-0.7-0.1c-10.8-1.5-20,8.4-17.8,19c1.6,7.7,8.1,13,15.9,13.1C26.4,96.8,33.4,96.8,40.3,96.8z"/>
	<path class="st0" d="M79.1,19.4c11.5,0,20.9,9.4,20.9,20.9c0,11.5-9.3,21-20.8,21c-11.8,0-21.1-9.3-21.1-21.1
		C58.1,28.8,67.5,19.4,79.1,19.4z M79.1,22.6c-9.9,0-17.8,7.9-17.8,17.8c0,9.7,8,17.7,17.9,17.6c9.7,0,17.6-8,17.6-17.7
		C96.8,30.6,88.8,22.6,79.1,22.6z"/>
	<path class="st0" d="M48.4,19.4c1.6,0,3.1,0,4.6,0c0.8,0,1.5,0.3,1.8,1.1c0.3,0.8,0,1.4-0.5,1.9c-4.2,4.2-8.4,8.4-12.5,12.5
		c-0.9,0.9-1.7,0.9-2.6,0c-4.2-4.2-8.4-8.4-12.5-12.5c-0.5-0.5-0.8-1.1-0.5-1.9c0.3-0.8,1-1,1.8-1c1.5,0,2.9,0,4.5,0
		c0-0.4,0-0.8,0-1.1c0-5.3,0-10.7,0-16c0-1.7,0.5-2.2,2.2-2.2c3.9,0,7.9,0,11.8,0c1.6,0,2.1,0.5,2.1,2.1c0,5.3,0,10.7,0,16
		C48.4,18.5,48.4,18.9,48.4,19.4z M35.5,3.3c0,0.4,0,0.8,0,1.1c0,5.3,0,10.7,0,16c0,1.6-0.5,2.1-2.2,2.2c-0.6,0-1.2,0-1.5,0
		c2.9,2.9,5.8,5.8,8.6,8.6c2.8-2.8,5.7-5.7,8.7-8.6c-0.5,0-1.1,0-1.7,0c-1.7,0-2.2-0.5-2.2-2.2c0-5.3,0-10.7,0-16c0-0.4,0-0.7,0-1.1
		C41.9,3.3,38.7,3.3,35.5,3.3z"/>
	<path class="st0" d="M22.6,27.4c1.6,0,3.1,0,4.6,0c0.8,0,1.5,0.3,1.8,1.1c0.3,0.8,0,1.4-0.5,1.9c-4.2,4.2-8.4,8.4-12.5,12.5
		c-0.9,0.9-1.7,0.9-2.6,0C9,38.7,4.9,34.5,0.7,30.4c-0.5-0.5-0.8-1.1-0.5-1.9c0.3-0.8,1-1,1.8-1c1.5,0,2.9,0,4.5,0
		c0-0.4,0-0.8,0-1.1c0-5.3,0-10.7,0-16c0-1.7,0.5-2.2,2.2-2.2c3.9,0,7.9,0,11.8,0c1.6,0,2.1,0.5,2.1,2.1c0,5.3,0,10.7,0,16
		C22.6,26.6,22.6,26.9,22.6,27.4z M23.4,30.6c-0.7,0-1.3,0-1.8,0c-1.7,0-2.2-0.5-2.2-2.2c0-5.3,0-10.7,0-16c0-0.4,0-0.7,0-1
		c-3.3,0-6.5,0-9.7,0c0,0.4,0,0.6,0,0.9c0,5.4,0,10.9,0,16.3c0,1.5-0.6,2-2.1,2.1c-0.6,0-1.2,0-1.7,0c2.9,2.9,5.8,5.8,8.7,8.7
		C17.5,36.6,20.4,33.7,23.4,30.6z"/>
	<path class="st0" d="M80.7,35.5c2.1,0,4,0,5.9,0c1.9,0,2.6,1.1,1.7,2.8c-2.5,5.1-5.1,10.1-7.6,15.2c-0.4,0.9-1,1.5-2,1.3
		c-0.9-0.2-1.3-0.8-1.3-2.1c0-2.5,0-4.9,0-7.5c-2,0-4,0-5.9,0c-2,0-2.6-1.1-1.8-2.8c2.5-5.1,5.1-10.2,7.6-15.3
		c0.5-1.1,1.2-1.5,2-1.2c1,0.3,1.2,1.1,1.2,2C80.6,30.4,80.7,32.9,80.7,35.5z M73.6,41.9c1.9,0,3.6,0,5.2,0c1.2,0,1.8,0.6,1.8,1.8
		c0,0.7,0,1.5,0,2.2c0.1,0,0.1,0,0.2,0c1.2-2.4,2.4-4.8,3.6-7.3c-1.8,0-3.4,0-5,0c-1.5,0-2.1-0.5-2.1-2c0-0.7,0-1.3,0-2
		c-0.1,0-0.1,0-0.2,0C76,37,74.9,39.4,73.6,41.9z"/>
	<g>
		<path class="st0" d="M12.6,81.4v-0.2c0-6.4,4.6-10.6,10.8-10.6c5.6,0,9.4,2.6,9.9,8.2h-6.8c-0.2-1.9-1.2-3-3.1-3
			c-2.4,0-3.8,1.9-3.8,5.4v0.2c0,3.5,1.4,5.4,4,5.4c1.9,0,3.2-1,3.4-3.1h6.6c-0.3,5.5-4.4,8.4-9.9,8.4
			C16.1,92.1,12.6,87.8,12.6,81.4z"/>
		<path class="st0" d="M34.8,81.4v-0.2c0-6.4,4.9-10.6,11.1-10.6c6.4,0,11.2,3.9,11.2,10.5v0.2c0,6.5-4.5,10.8-11.3,10.8
			C39,92.1,34.8,87.8,34.8,81.4z M50.3,81.4v-0.2c0-3.5-1.7-5.4-4.3-5.4c-2.6,0-4.2,1.9-4.2,5.4v0.2c0,3.6,1.7,5.5,4.3,5.5
			C48.6,86.9,50.3,84.9,50.3,81.4z"/>
		<path class="st0" d="M58,81.5l4.1-4.4c1.2-1.3,2-2.3,2-3.3c0-0.7-0.3-1.2-1.1-1.2c-0.8,0-1.3,0.5-1.4,1.8h-3.5
			c0.1-3.2,2-4.7,5.1-4.7c3.1,0,4.7,1.6,4.7,3.9c0,1.7-0.9,2.9-2.3,4.2l-1.4,1.3h3.8V82H58V81.5z"/>
	</g>
</g>
</svg>
