<?xml version="1.0" encoding="utf-8"?>
<!-- Generator: Adobe Illustrator 19.2.1, SVG Export Plug-In . SVG Version: 6.00 Build 0)  -->
<svg version="1.1" id="Capa_1" xmlns="http://www.w3.org/2000/svg" xmlns:xlink="http://www.w3.org/1999/xlink" x="0px" y="0px"
	 viewBox="0 0 100 100" style="enable-background:new 0 0 100 100;" xml:space="preserve">
<style type="text/css">
	.st0{fill:#FFFFFF;}
</style>
<g>
	<path class="st0" d="M87.9,0c0.6,0.5,0.8,1.2,0.8,2c0,32,0,64,0,96.1c0,1.6-0.4,2-1.9,2c-24.5,0-48.9,0-73.4,0
		c-1.6,0-1.9-0.4-1.9-2c0-32,0-64,0-96.1c0-0.8,0.2-1.5,0.8-2C37.4,0,62.6,0,87.9,0z M86.1,97.4c0-31.7,0-63.3,0-94.9
		c-24.1,0-48.1,0-72.2,0c0,31.7,0,63.2,0,94.9C38,97.4,62,97.4,86.1,97.4z"/>
	<path class="st0" d="M30.6,57.4c-3-8.2,3.3-14.5,11.3-11.5c3.4-7.7,12.5-7.7,16,0c8-3,14.4,3.2,11.5,11.4c3.3,1.6,5.8,4,5.8,7.9
		c0,4-2.4,6.3-5.7,8c3.2,8.3-3.7,14.4-11.4,11.5c-1.6,3.3-4,5.8-7.9,5.8c-4,0-6.3-2.4-8-5.8C38.5,86,35,86,32.2,83.2
		c-2.8-2.8-2.8-6.3-1.6-9.8C22.9,69.9,22.8,61,30.6,57.4z M55.5,67c-0.8,1.4-0.8,1.4,0.3,2.5c0.7,0.7,1.4,1.3,2,2
		c0.6,0.7,0.6,1.4,0.1,1.9c-0.6,0.5-1.3,0.4-1.8-0.1c-0.8-0.8-1.6-1.5-2.3-2.3c-0.7-0.9-1.3-0.7-2.1,0c0.5,1.7,0.9,3.4,1.4,5
		c1.5,4.3,4.9,6.9,9,7c2.9,0.1,5.2-1.8,5.5-4.6c0.4-3.6-1.1-6.4-4-8.5C61.2,68.1,58.4,67.5,55.5,67z M51.7,59.7
		c1,0.9,1.7,0.7,2.4-0.2c0.6-0.7,1.3-1.3,1.9-1.9c0.7-0.7,1.4-0.7,2-0.2c0.6,0.6,0.5,1.2-0.2,2c-0.8,0.8-1.6,1.7-2.5,2.5
		c-0.5,0.4-0.4,0.9-0.1,1.2c0.2,0.2,0.6,0.4,0.9,0.3c1.4-0.3,2.8-0.7,4.2-1.1c3.8-1.2,6.3-3.7,7.1-7.7c0.9-4-1.8-7.1-5.8-7
		c-3.1,0.1-5.5,1.6-7.2,4.1C52.8,54.1,52.2,56.9,51.7,59.7z M44.5,66.9c-2.1,0.7-4.3,1.3-6.4,2.1c-2.7,1-4.3,3.2-5.3,5.8
		c-1,2.9-0.3,5.8,1.9,7.3c1.9,1.3,4,1.2,6.1,0.4c4.3-1.6,7.5-6.7,7.4-11.7c-0.4-0.2-0.9-0.4-1.4-0.7c-1,1-1.9,2-2.9,3
		c-0.5,0.5-1.1,0.7-1.7,0.3c-0.7-0.5-0.7-1.3,0-2c1-1,2-2,3.1-3C44.9,67.9,44.8,67.5,44.5,66.9z M44.4,63.6c0.9-1,0.7-1.7-0.2-2.4
		c-0.7-0.6-1.3-1.3-1.9-1.9c-0.7-0.7-0.7-1.4-0.2-2c0.6-0.5,1.2-0.5,2,0.2c0.7,0.7,1.5,1.4,2.1,2.1c0.7,0.8,1.3,0.8,2.2,0
		c-0.6-2-1.1-4.1-2-6.1c-1.3-3.3-3.9-5.1-7.3-5.8c-3.4-0.7-6.2,1.3-6.7,4.7c-0.5,3.2,1.7,7.2,4.9,8.9C39.5,62.5,41.9,63.1,44.4,63.6
		z M55.7,47.1c-0.9-2.1-2.1-3.7-4.3-4.3c-2.7-0.8-5.5,0.7-6.9,3.6c-0.3,0.6-0.2,0.9,0.3,1.2c1.4,1,2.6,2.2,3.3,3.8
		c0.7,1.4,1.2,2.8,1.9,4.3C51.1,52.3,52.4,49.1,55.7,47.1z M55.8,83.4c-3.2-1.9-4.6-5.1-5.7-8.8c-1.1,3.7-2.5,6.8-5.7,8.8
		c1.1,2.8,3.3,4.6,5.7,4.6C52.5,88,54.8,86.2,55.8,83.4z M68.2,70.9c1.6-0.6,2.9-1.6,3.8-3c2-3.3,0.1-6.9-3.4-8.3
		c-0.2-0.1-0.5,0.1-0.7,0.3c-1.5,2.2-3.5,3.5-5.9,4.4c-0.7,0.3-1.5,0.5-2.5,0.9C63,66.4,66.2,67.7,68.2,70.9z M40.6,65.3
		C37.1,64.2,34,63,32,60c-0.1-0.1-0.5-0.2-0.6-0.2c-1.9,0.8-4.2,2.8-4.1,5.7c0.1,2.4,2.1,4.8,4.6,5.4C33.8,67.8,37,66.5,40.6,65.3z
		 M50,62.1c-1.8,0-3.2,1.4-3.2,3.2c0,1.8,1.5,3.2,3.2,3.2c1.7,0,3.1-1.5,3.2-3.2C53.2,63.5,51.8,62.1,50,62.1z"/>
	<path class="st0" d="M49.9,14.8c-8.8,0-17.5,0-26.3,0c-1.4,0-2-0.4-2-1.2c0-0.9,0.6-1.3,2-1.3c17.6,0,35.2,0,52.8,0
		c0.3,0,0.6,0,0.9,0c0.7,0.1,1.1,0.5,1.1,1.3c0,0.7-0.4,1.1-1.1,1.2c-0.3,0.1-0.6,0-1,0C67.5,14.8,58.7,14.8,49.9,14.8z"/>
	<path class="st0" d="M50.1,21.7c8.8,0,17.5,0,26.3,0c1.4,0,2,0.4,2,1.2c0,0.9-0.6,1.3-2,1.3c-17.6,0-35.2,0-52.8,0
		c-0.2,0-0.5,0-0.7,0c-0.8-0.1-1.3-0.5-1.3-1.3c0-0.8,0.5-1.1,1.3-1.2c0.3,0,0.6,0,0.9,0C32.5,21.7,41.3,21.7,50.1,21.7z"/>
	<path class="st0" d="M50.1,31.1c8.7,0,17.4,0,26.2,0c1.5,0,2.1,0.3,2.1,1.2c0,0.9-0.6,1.3-2.1,1.3c-17.5,0-35.1,0-52.6,0
		c-0.4,0-0.7,0-1.1-0.1c-0.7-0.1-1-0.6-1-1.2c0-0.7,0.4-1.1,1.1-1.2c0.3-0.1,0.6,0,1,0C32.5,31.1,41.3,31.1,50.1,31.1z"/>
</g>
</svg>
