<?xml version="1.0" encoding="utf-8"?>
<!-- Generator: Adobe Illustrator 19.2.1, SVG Export Plug-In . SVG Version: 6.00 Build 0)  -->
<svg version="1.1" id="Capa_1" xmlns="http://www.w3.org/2000/svg" xmlns:xlink="http://www.w3.org/1999/xlink" x="0px" y="0px"
	 viewBox="0 0 100 100" style="enable-background:new 0 0 100 100;" xml:space="preserve">
<style type="text/css">
	.st0{fill:#FFFFFF;}
</style>
<g>
	<path class="st0" d="M18.3,96.6v-1c0,0-0.1-5.6,0-8.4c0-0.7,0.3-1.6,0.8-2c0,0,8.1-8.1,9.1-9.2c1.4-1.4,2-1.4,3.5,0
		c1.6,1.6,3.1,3.2,4.8,4.9c0-0.5,0.1-0.8,0.1-1.1c0-3.1,0-6.2,0-9.4c0-0.7,0.3-1.5,0.7-2c3.6-4.2,7.3-8.4,10.9-12.6
		c1.2-1.4,2.2-1.4,3.3,0.1c1.6,2,3.2,4.1,4.8,6.2c0.4-0.7,1.1-0.8,3.5-0.5c0,1.4,0,2.9,0,4.3c0,0.4,0.2,1,0.5,1.3
		c2.5,2.4,3,5.2,2.9,8.6c-0.2,6.5-0.1,13-0.1,19.5c0,0.4,0,0.8,0,1.2c1.3,0,2.4,0,3.7,0c0.4-1.6,0.8-3.3,1.3-5
		c0.3-1.3,0.8-1.7,2.1-1.7c0.9,0,1.7,0,2.6,0c0.1,0,0.1,0,0.3-0.1c0-17.1,0-34.3,0-51.6c-2.7,0-5.4-0.1-8.1,0
		c-2.1,0.1-3.3-0.6-4.1-2.5c-1.5-3.4-3.3-6.7-5-10.1c-0.2-0.3-0.7-0.8-1-0.8c-6.5,0-19.6,0-19.6,0s-0.2,0-0.4,0.1c0,2.2,0-1.2,0,0.9
		c0.1,0.1,0.1,0.1,0.1,0.1c2.1-0.4,3.1,0.8,3.8,2.7c0.7,1.9,1.6,3.7,2.4,5.5c0.3,0.8,0.3,1.4-0.1,2.2c-0.9,1.5-1.9,3.1-2.7,4.7
		c-0.6,1.2-1.4,1.8-2.8,1.7c-0.2,0-0.5,0-0.8,0c0,1,0,1.9,0,2.8c0,0.9-0.2,1.5-0.9,2.1C33,48.8,32,49.9,30.9,51
		c-0.5,0.5-0.6,0.9-0.4,1.5c0.7,2,0.7,2,2.8,2c0.5,0,1,0,1.7,0c0-0.6,0-1.1,0-1.7c0-0.5,0-1,0-1.6c1.1,0,2.1,0,3.3,0
		c0,1.7,0.1,3.5,0,5.2c0,0.8-0.7,1.3-1.6,1.4c-2.2,0-4.4,0-6.7,0c-0.8,0-1.4-0.5-1.6-1.2c-0.5-1.6-1.1-3.2-1.6-4.8
		c-0.3-0.8,0-1.4,0.6-2c1-1,1.9-2.1,3-3c1.4-1.1,1.4-2.4,1.2-4c-2.5,0.7-3.3-1.1-4.2-2.8c-0.6-1.2-1.3-2.3-2-3.4
		c-0.5-0.8-0.5-1.5-0.1-2.4c1-2.1,1.9-4.2,2.8-6.4c0.5-1.2,1.3-1.9,2.6-1.7c0.3,0,0.5,0,0.9,0c0-2.2,0-1.1,0-1.1s-9.9,0-14.9,0
		c0-1.2,0-2.2,0-3.3c2.7,0,5.4,0,8.2,0c0-1.1,0-2.2,0-3.3c-6.8,0-13.6,0-20.5,0c0.5,1,1,2,1.5,3c0.1,0.2,0.6,0.3,0.9,0.3
		c2.1,0,4.2,0,6.4,0c0,1.1,0,2.1,0,3.3c-1,0-2,0-3,0c-1.7,0-3.3,0-5,0c-0.9,0-1.5-0.4-1.9-1.2c-1-2.1-2.1-4.1-3.1-6.1
		c-0.8-1.5,0-2.7,1.7-2.7c0.9,0,1.9,0,3,0c0-0.6,0-1.1,0-1.6c0-1,0.6-1.7,1.6-1.8c6.1-0.7,12.3-1.4,18.4-2.1
		C32.5,8.8,40.1,8,47.7,7.1c6.5-0.7,13-1.5,19.4-2.2c3.8-0.4,7.5-0.8,11.3-1.3c0.3,0,0.8-0.4,0.9-0.8c0.6-2.2,2-3.1,4.2-2.7
		c1,0.1,1.9,0,2.9,0c1.2,0,1.9,0.7,1.8,1.8c-0.3,2,0.6,3.2,2,4.5c3,2.9,5.9,5.9,8.9,8.8c1,1.1,1.1,1.5,0.5,2.9
		c-1,1.9-1.9,3.8-2.9,5.8c-0.4,0.9-1.1,1.3-2.1,1.3c-2.6,0-5.1,0-7.8,0c0,11.1,0,22.1,0,33.2c-1.2,0-2.2,0-3.4,0c0-0.6,0-1.3,0-2.2
		c-1.2,1.2-2.1,2.3-3.1,3.3c-1,1.1-2.1,2.2-3.1,3.4c-0.2,0.3-0.5,0.7-0.5,1.1c0,2.2,0,4.4,0,6.8c0.3-0.2,0.5-0.3,0.6-0.5
		c1.9-2,3.8-4,5.6-6.1c0.5-0.6,0.5-1.5,0.7-2.3c0.9,0,1.9,0,3,0c0,9.4,0,18.8,0,28.3c1,0,1.9,0,2.8,0c1.6,0,2,0.3,2.3,1.8
		c0.4,1.6,0.8,3.2,1.2,4.9c2.3,0,4.6,0,7,0c0,1.1,0,2.2,0,3.3c-33.3,0-99.8,0-99.8,0v-3.4H18.3z M77.5,7.1
		c-23.1,2.6-46,5.2-68.9,7.8c0,0.1,0,0.1,0,0.2c0.3,0,0.6,0,0.9,0c21.1,0,42.3,0,63.4,0c0.2,0,0.4,0,0.6,0c0.2-0.1,0.5-0.2,0.5-0.4
		C75.2,12.3,76.2,9.8,77.5,7.1z M49.9,59.4c-3.3,3.7-6.5,7.4-9.7,11C40.1,70.5,40,70.8,40,71c0,3,0,6,0,9.1c6.7,0,13.3,0,20,0
		c0-1.9-0.1-3.7,0-5.4c0.1-1.6-0.4-2.8-1.4-4C55.7,66.9,52.9,63.2,49.9,59.4z M38.3,96.7c0-3,0-6,0-8.9c0-0.3-0.3-0.7-0.6-0.9
		c-2.1-2.1-4.3-4.3-6.4-6.4c-0.4-0.4-0.8-0.9-1.2-1.5c-2.9,2.9-5.5,5.5-8.2,8.2c-0.2,0.2-0.3,0.7-0.3,1c0,1.7,0,3.5,0,5.2
		c0,1.1,0,2.2,0,3.3c2.3,0,4.4,0,6.7,0c0-2.2,0-4.4,0-6.5c1.2,0,2.2,0,3.3,0c0,2.2,0,4.4,0,6.5C33.9,96.7,36,96.7,38.3,96.7z
		 M41.7,21.8c0.5,0,0.9,0,1.3,0c11,0,21.9,0,32.9,0c5.7,0,11.4,0,17.1,0c0.4,0,0.9,0,1-0.2c0.6-1,1-2,1.6-3c-18.1,0-35.9,0-53.9,0
		C41.7,19.6,41.7,20.6,41.7,21.8z M39.2,83.4c0,0,1,1.1,1.4,1.5c0.9,0.8,1.1,1.6,1.1,2.8c-0.1,2.3,0,4.6,0,7c0,0.7,0,2,0,2H45
		c0,0,0-4,0-6c0-1.7,0.5-2.2,2.2-2.2c3.9,0,7.8,0,11.6,0c0.4,0,0.7,0,1.1,0c0-1.7,0-3.3,0-5C53.3,83.4,39.2,83.4,39.2,83.4z
		 M73.2,35.1c0-3.4,0-6.7,0-9.9c-4.6,0-9.2,0-13.8,0c0.4,0.9,0.9,1.6,1.2,2.4c0.3,0.7,0.7,0.9,1.4,0.9c1.5-0.1,3.1,0,4.6,0
		c0,1.2,0,2.2,0,3.3c-1.3,0-2.5,0-3.9,0c0.5,1.1,1,2.1,1.5,3c0.1,0.2,0.4,0.3,0.7,0.3C67.6,35.1,70.4,35.1,73.2,35.1z M70.5,96.7
		c6.4,0,12.7,0,19,0c-0.3-1.1-0.6-2.2-0.8-3.2c-5.9,0-11.6,0-17.4,0C71,94.5,70.7,95.5,70.5,96.7z M33.4,39.4
		c1.9,0.7,2.8-0.3,3.5-1.9c0.2-0.6,0.7-1.1,1-1.7c0.1-0.3,0.2-0.7,0.1-0.9c-0.7-1.6-1.4-3.2-2.1-4.7c-0.1-0.2-0.5-0.5-0.7-0.5
		c-1.3,0-2.8-0.4-3.9,0.2c-0.8,0.4-1,1.9-1.5,3c0,0.1-0.1,0.2-0.1,0.3c-1.2,1.6-0.7,2.9,0.2,4.5C30.6,39,31.4,40.1,33.4,39.4z
		 M48.4,91.8c0,1.7,0,3.3,0,4.9c3.9,0,7.7,0,11.5,0c0-1.7,0-3.3,0-4.9C56.1,91.8,52.3,91.8,48.4,91.8z M82.7,3.5
		C81,7.3,79.3,11.1,77.6,15c2.6,0,5,0,7.3,0c0-3.9,0-7.7,0-11.6C84.1,3.5,83.4,3.5,82.7,3.5z M76.6,84.1c2.3-2.5,4.4-4.7,6.5-7
		c0.2-0.2,0.2-0.6,0.2-1c0-1.9,0-3.9,0-5.8c0-0.5,0-1,0-1.8C81,71,79,73.2,77,75.4c-0.2,0.2-0.3,0.6-0.3,0.8
		C76.6,78.8,76.6,81.3,76.6,84.1z M83.3,42.8c-1.6,1.7-2.8,3.2-4.3,4.5c-1.9,1.7-2.8,3.5-2.4,6.1c0.2,1.5,0,3.1,0,5
		c2.3-2.4,4.3-4.7,6.4-6.9c0.1-0.1,0.2-0.4,0.2-0.5C83.3,48.3,83.3,45.7,83.3,42.8z M76.6,45.1c1.6-1.7,2.8-3.3,4.3-4.6
		c1.9-1.6,2.7-3.5,2.4-6c-0.2-1.3,0-2.6,0-4.2c-2.3,2.4-4.3,4.6-6.3,6.8c-0.2,0.2-0.3,0.5-0.3,0.7C76.6,40.1,76.6,42.4,76.6,45.1z
		 M38.3,18.5c-3.4,0-6.6,0-9.9,0c0,1.1,0,2.2,0,3.2c3.3,0,6.6,0,9.9,0C38.3,20.6,38.3,19.6,38.3,18.5z M76.5,90c2.4,0,4.6,0,6.7,0
		c0-2.7,0-5.3,0-8c-2.2,2.3-4.2,4.5-6.2,6.7C76.7,89,76.7,89.5,76.5,90z M83.5,25.2c-2.4,0-4.6,0-6.7,0c0,2.4,0,4.7,0,7.3
		C79,29.9,81.2,27.6,83.5,25.2z M88.4,9.3c0,2,0,3.8,0,5.7c1.9,0,3.8,0,5.7,0C92.2,13.1,90.3,11.2,88.4,9.3z"/>
	<path class="st0" d="M51.6,66.8c0,1.1,0,2.1,0,3.2c-1.1,0-2.1,0-3.2,0c0-1,0-2.1,0-3.2C49.5,66.8,50.5,66.8,51.6,66.8z"/>
	<path class="st0" d="M43.4,73.4c1.1,0,2.1,0,3.2,0c0,1.1,0,2.1,0,3.2c-1.1,0-2.1,0-3.2,0C43.4,75.6,43.4,74.6,43.4,73.4z"/>
	<path class="st0" d="M56.6,73.5c0,1.1,0,2.1,0,3.2c-1,0-2.1,0-3.2,0c0-1,0-2.1,0-3.2C54.4,73.5,55.5,73.5,56.6,73.5z"/>
	<path class="st0" d="M34.9,32.9c0,1.1,0,2.1,0,3.2c-1.1,0-2.1,0-3.2,0c0-1.1,0-2.1,0-3.2C32.8,32.9,33.8,32.9,34.9,32.9z"/>
	<path class="st0" d="M18.4,68.2c0-1.8,0-3.5,0-5.3c0-4.7-3.8-8.5-8.4-8.5c-4.7,0-8.5,3.8-8.5,8.6c0,4.4,0,8.8,0,13.3
		c0,4.2,2.5,7.4,6.5,8.5c0.4,0.1,0.5,0.2,0.5,0.6c0,2.5,0,11.4,0,11.4h2.9c0,0,0-9,0-11.2c0-0.5,0.1-0.9,0.6-0.9
		c4,0,6.4-5.2,6.4-8.4V68.2z M15.5,76.8c0,2.4-1.9,4.6-4.2,5c0-0.2,0-0.5,0-0.7c0-2,0-4,0-6c0-0.5,0.2-0.9,0.5-1.2
		c0.8-0.7,1.5-1.5,2.3-2.3c0.7-0.7,0.7-1.5,0.1-2.1c-0.6-0.6-1.4-0.5-2.1,0.2c-0.2,0.2-0.4,0.4-0.7,0.7c0-1.6,0-3.1,0-4.5
		c0-1.4,0-2.7,0-4.1c0-0.9-0.6-1.5-1.4-1.5c-0.8,0-1.4,0.6-1.4,1.5c0,1.8,0,3.7,0,5.5c0,0.3,0,0.5,0,1c-0.4-0.4-0.6-0.6-0.9-0.8
		c-0.6-0.6-1.5-0.6-2,0c-0.6,0.6-0.6,1.4,0,2c0.7,0.7,1.4,1.5,2.2,2.1c0.5,0.5,0.8,1,0.7,1.7c0,0.4,0,0.8,0,1.3
		c-0.4-0.4-0.6-0.6-0.9-0.9c-0.6-0.5-1.4-0.5-2,0c-0.6,0.6-0.6,1.4,0,2c0.8,0.9,1.7,1.7,2.5,2.5c0.2,0.2,0.4,0.4,0.4,0.6
		c0,1,0,2,0,3c-2.2-0.4-4.1-2.6-4.2-5c-0.1-4.8-0.1-9.6,0-14.3c0-2.9,2.6-5.2,5.6-5.3c3,0,5.5,2.4,5.6,5.3
		C15.6,67.3,15.6,72,15.5,76.8z"/>
</g>
</svg>
