<?xml version="1.0" encoding="utf-8"?>
<!-- Generator: Adobe Illustrator 19.2.1, SVG Export Plug-In . SVG Version: 6.00 Build 0)  -->
<svg version="1.1" id="Capa_1" xmlns="http://www.w3.org/2000/svg" xmlns:xlink="http://www.w3.org/1999/xlink" x="0px" y="0px"
	 viewBox="0 0 100 100" style="enable-background:new 0 0 100 100;" xml:space="preserve">
<style type="text/css">
	.st0{fill:#FFFFFF;}
</style>
<g>
	<path class="st0" d="M100,40c-0.1,2-0.3,4.1-0.4,6.1c-0.4,6.2-0.9,12.5-2.7,18.5c-0.3,1.1-0.8,2.2-1.3,3.3c-1.2,2.6-3,4.6-5.5,6
		c-3,1.7-6,3.4-8.9,5.3c-1.4,0.9-2.6,2.1-3.8,3.1c0,0.1,0.1,0.2,0.1,0.3c0.4,0,0.8,0,1.2,0c1.1,0,1.7,0.6,1.7,1.6
		c0,3.9,0,7.8,0,11.7c0,1.1-0.6,1.6-1.8,1.6c-2.9,0-5.8,0-8.7,0c-5.2,0-10.4,0-15.6,0c-1.9,0-2.3-0.4-2.3-2.3c0-3.5,0-7,0-10.5
		c0-1.6,0.5-2.1,2.1-2.1c1.7,0,1.6,0,2.1-1.6c1.3-4.9,3.3-9.5,6-13.8c0.6-1,1.5-1.9,2.5-2.5c7.9-4.7,14.3-11,19.9-18.3
		c1.6-2.1,2.9-2.5,5.5-1.7c0.2-1.2,0.4-2.3,0.6-3.5c0.4-2.5,3.1-5.4,5.5-6.1c1.8-0.5,2.8,0.1,3.9,2.1C100,38.2,100,39.1,100,40z
		 M58.8,82.4c0.2,0.1,0.2,0.2,0.3,0.2c4.7,0,9.4,0,14.1,0c0.2,0,0.5-0.2,0.7-0.4c1.2-2.1,2.9-3.8,4.8-5c3.2-2.1,6.4-4,9.7-5.9
		c2.2-1.2,3.8-2.9,4.7-5.2c1.5-3.5,2.3-7.3,2.6-11.1c0.5-5.3,0.8-10.6,1.2-16c0-0.2,0-0.5-0.1-0.8c-0.3,0.2-0.6,0.3-0.8,0.4
		c-1.9,1.1-2.4,2.9-2.7,4.9c-0.4,2.5-0.7,5.1-1.5,7.4c-1.4,4.2-3.7,8-6.3,11.6c-0.9,1.3-1.9,2.6-2.9,3.8c-0.6,0.8-1.5,0.9-2.2,0.3
		c-0.7-0.6-0.8-1.4-0.2-2.3c0.2-0.3,0.5-0.6,0.7-0.9c3.4-4.3,6.2-8.9,8.1-14c0.3-0.8,0.4-1.5-0.5-1.9c-0.8-0.5-1.2,0.1-1.7,0.7
		c-5.7,7.6-12.5,14.1-20.7,19.1c-0.6,0.4-1.2,0.9-1.5,1.5c-1.3,2.4-2.6,4.9-3.8,7.4C60.1,78.2,59.5,80.4,58.8,82.4z M55.1,94.3
		c7.4,0,14.8,0,22.1,0c0-2.9,0-5.7,0-8.5c-7.4,0-14.7,0-22.1,0C55.1,88.7,55.1,91.5,55.1,94.3z"/>
	<path class="st0" d="M22.8,82.6c-1-0.9-1.7-1.7-2.5-2.3c-3.2-2.1-6.3-4.2-9.6-6c-3.6-1.9-5.8-4.8-7.2-8.5C1.9,61.3,1.2,56.7,0.8,52
		C0.4,47.5,0.2,43.1,0,38.6c-0.1-3,2.1-4.5,4.8-3.1c2.6,1.4,4.5,3.4,4.7,6.6c0.1,0.9,0.3,1.7,0.4,2.6c0.3-0.1,0.5-0.1,0.7-0.2
		c1.8-0.5,3.4,0,4.6,1.6c4.5,6,9.7,11.4,15.8,15.8c1.3,0.9,2.6,1.8,3.9,2.6c1.3,0.8,2.3,1.8,3.1,3.1c2.7,4.5,4.8,9.2,6,14.3
		c0.2,0.7,0.4,0.8,1,0.8c2.8,0,2.9,0.2,2.9,3c0,3.3,0,6.6,0,10c0,1.4-0.5,2-1.9,2c-8.2,0-16.3,0-24.5,0c-1.5,0-2-0.5-2-2
		c0-3.5,0-7,0-10.5c0-2,0.4-2.3,2.3-2.4C22.1,82.6,22.3,82.6,22.8,82.6z M41,82.6c-0.1-0.3-0.1-0.5-0.1-0.7c-1.1-4.4-3-8.5-5.3-12.4
		c-0.6-1.1-1.4-1.9-2.5-2.5c-4.3-2.6-8.3-5.6-11.8-9.2c-2.9-3.1-5.6-6.3-8.4-9.5c-0.5-0.6-0.9-0.9-1.6-0.5c-0.7,0.4-0.8,1.1-0.5,1.8
		c0.9,2,1.7,4.1,2.8,5.9c1.9,3.1,4,6,6,9c0.5,0.7,0.7,1.3,0.3,2.1c-0.6,1-1.8,1-2.7-0.1c-3-3.7-5.6-7.7-7.6-12
		C8.8,52.7,8,51,7.6,49.3c-0.6-2.5-0.9-5.1-1.3-7.6c-0.3-1.8-1.6-2.6-3.1-3.6c0,0.4,0,0.6,0,0.8c0.3,4.9,0.5,9.9,1,14.8
		c0.4,4,1.1,7.9,2.5,11.6c1,2.6,2.5,4.7,5.1,6c2.5,1.3,5,2.8,7.4,4.3c2.8,1.7,5.3,3.7,7,6.6c0.1,0.2,0.6,0.4,0.9,0.4
		c2.7,0,5.3,0,8,0C37,82.6,39,82.6,41,82.6z M22.8,85.8c0,2.9,0,5.7,0,8.6c7.4,0,14.7,0,22,0c0-2.9,0-5.7,0-8.6
		C37.5,85.8,30.1,85.8,22.8,85.8z"/>
	<path class="st0" d="M50,2.5c16.1,0,29.1,13,29.1,29.1C79.1,47.7,66,60.7,50,60.7c-16.1,0-29.1-13.1-29.1-29.2
		C20.9,15.5,33.9,2.5,50,2.5z M50,5.6c-14.4,0-26,11.7-26,26.1c0,14.4,11.7,26,26.1,26c14.3,0,25.9-11.7,25.9-26
		C76,17.2,64.3,5.6,50,5.6z"/>
	<path class="st0" d="M51.6,48.2c0,1,0,2.1,0,3.2c0,1.1-0.6,1.8-1.6,1.8c-0.9,0-1.5-0.7-1.5-1.8c0-1.1,0-2.1,0-3.3
		c-2.2-0.3-4.2-1-6-2.2c-3.6-2.4-5.5-5.9-5.9-10.2c-0.3-3.7,0.5-7.2,1.9-10.6c2.3-5.5,5.5-10.4,10-14.4c1.3-1.2,1.9-1.2,3.2,0
		c6.2,5.7,10.4,12.6,11.8,21c1.1,6.8-2.2,12.9-8.2,15.3C54,47.6,52.8,47.8,51.6,48.2z M42,24.6c-0.6,1.5-1.1,2.8-1.5,4.2
		c-0.6,1.7-0.5,1.7,0.9,2.9c0.4,0.4,0.9,0.7,1.3,1.1c1.9,1.5,3.7,3.1,5.8,4.7c0-2.6,0-4.9,0-7.3c0-0.2-0.2-0.5-0.4-0.6
		C46.1,27.9,44.1,26.3,42,24.6z M58.1,24.5c-2.2,1.8-4.2,3.5-6.2,5.1c-0.2,0.1-0.3,0.4-0.3,0.6c0,2.4,0,4.7,0,7c0.1,0,0.2,0.1,0.2,0
		c2.6-2.2,5.3-4.3,7.9-6.5c0.2-0.1,0.3-0.5,0.2-0.6C59.3,28.3,58.7,26.5,58.1,24.5z M39.7,34.3c-0.4,5.2,3.6,10,8.8,10.5
		c0-1,0-1.9,0-2.9c0-0.2-0.1-0.5-0.3-0.7C45.3,39,42.6,36.7,39.7,34.3z M60.3,34.5c-0.1,0-0.1,0-0.2,0c-2.7,2.2-5.5,4.5-8.2,6.7
		c-0.2,0.1-0.3,0.4-0.3,0.5c0,1,0,2,0,3.1C56.9,44.1,61.1,39,60.3,34.5z M43.4,21.7c1.7,1.4,3.3,2.7,4.9,4.1c0-3.6,0-7,0-10.4
		c-0.1,0-0.2-0.1-0.2-0.1C46.6,17.4,45,19.5,43.4,21.7z M51.9,15.2c-0.1,0-0.2,0.1-0.2,0.1c0,3.4,0,6.8,0,10.4
		c1.7-1.4,3.2-2.7,5-4.1C55,19.5,53.4,17.4,51.9,15.2z"/>
</g>
</svg>
