<?xml version="1.0" encoding="utf-8"?>
<!-- Generator: Adobe Illustrator 19.2.1, SVG Export Plug-In . SVG Version: 6.00 Build 0)  -->
<svg version="1.1" id="Capa_1" xmlns="http://www.w3.org/2000/svg" xmlns:xlink="http://www.w3.org/1999/xlink" x="0px" y="0px"
	 viewBox="0 0 100 100" style="enable-background:new 0 0 100 100;" xml:space="preserve">
<style type="text/css">
	.st0{fill:#FFFFFF;}
</style>
<g>
	<path class="st0" d="M22.9,35.2c2.6-3.5,5.3-6.9,7.7-10.4c1-1.5,1.5-3.4,2.2-5.1c0.1-0.2-0.1-0.6-0.3-0.9c-0.3-0.8-0.8-1.5-1-2.4
		c-0.2-0.9-0.1-1.8,0-2.8c0-1.4,0.7-2.4,2-2.8c0.6-0.2,0.7-0.5,0.7-0.9c0-1.2,0-2.5,0-3.7c0-2.1,1.4-3.5,3.5-3.5
		c2.8-0.1,5.6-0.1,8.4,0c2.1,0,3.5,1.5,3.5,3.6c0,1.4,0,2.9,0,4.3c2.2,0.9,2.7,1.6,2.7,3.9c0,1.4,0.3,2.9-0.8,4.1
		c-0.1,0.1,0.2,0.8,0.5,0.9c0.8,0.5,1.7,0.9,2.5,1.3c4.2,1.6,8.2,3.6,11.6,6.7c1.7,1.5,3.2,3.2,4.9,4.9c0.1-0.2,0.3-0.4,0.4-0.7
		c2.7-4.2,6.6-6.6,11.7-6.8c4.1-0.1,8.2-0.1,12.4,0c1.2,0,2.4,0.3,3.6,0.5c0.7,0.1,1.1,0.5,1.1,1.3c0,0.9,0,1.7,0,2.6
		c0,0.9-0.4,1.3-1.3,1.4c-2.4,0.4-4.9,0.7-7.3,1.2c-2.4,0.5-2.4,0.6-1.9,3c0.4,2.2,1.5,4,2.8,5.7c1.1,1.4,1.2,2.4,0.3,3.2
		c-0.9,0.8-2,0.7-3.1-0.6c-1.6-1.8-2.9-3.7-4.4-5.6c-0.2-0.2-0.3-0.4-0.5-0.9c-0.3,1.6-0.7,3.1-2.6,3c0.2,0.9,0.4,1.7,0.5,2.5
		c0.2,0,0.4,0.1,0.6,0.1c1.7,0.2,2.7,1.7,2,3.3c-0.5,1.1-0.4,2,0.2,3c1.1,1.5,1.2,3.1,0.7,4.8c-0.5,1.7-0.1,2.9,1.3,4
		c2,1.6,3.8,3.3,5.6,5.1c1.9,1.9,3.5,4.1,3.9,6.9c0.1,0.5,0.1,0.9,0.1,1.4c0,7.5,0,14.9,0,22.4c0,2.8-1.3,4.2-4.2,4.2
		c-7.9,0-15.7,0-23.6,0c-2.1,0-3.8-0.3-4.6-2.2c-1.3,0-2.3,0-3.4,0c-9.3,0-18.7,0-28,0c-1.3,0-2.5-0.4-3.8-0.5c-0.3,0-0.8,0-0.9,0.2
		c-1.4,1.8-3.2,2.5-5.4,2.5c-5.2-0.1-10.4-0.1-15.5,0c-2.9,0-5.1-1.3-6.1-3.9c-0.8-2-1.3-4.3-1.4-6.4c-0.3-9.7,0.1-19.4,2.6-28.8
		c0.7-2.7,1.5-5.3,2.3-7.9C5,49.8,5,49.4,5.1,49c0.2-1.8-0.4-3.2-1.9-4.3C1.1,43.2,1,41,2.7,39c0.5-0.6,1.1-1.2,1.8-1.6
		c1.4-0.9,2.9-1.9,4.4-2.6c0.9-0.5,1.3-1,1.2-2c-0.1-1.3,0.3-2.3,1.4-3.1c0.2-0.1,0.4-0.6,0.4-0.8c-0.1-1.5,0.7-2.8,1.5-3.9
		c1-1.4,3.2-1.4,4.3,0c0.8,1.1,1.4,2.3,1.5,3.7c0,0.5,0.3,1,0.6,1.4c0.7,0.7,1.1,1.6,0.9,2.6c-0.1,1.1,0.2,1.8,1.3,2.2
		C22.3,34.9,22.6,35.1,22.9,35.2z M25,36.5c0.9,0.7,1.5,1.1,2,1.6c0.5,0.5,1.1,1,1.5,1.7c1.2,1.7,0.9,3.6-0.9,4.9
		c-1.6,1.2-2.3,2.6-2,4.6c0.1,0.7,0.2,1.4,0.3,2c0.2,1,0.6,1.9,0.9,2.9c0.3-0.4,0.4-0.7,0.5-1c1.5-4.9,3.7-9.4,7.5-12.9
		c4.8-4.3,10.9-4.4,15.7-0.2c2.8,2.5,4.7,5.6,6.2,9c1.8,4.2,2.7,8.6,3.2,13.1c0.6,6.6,0.2,13.1-1.7,19.4c-1.1,3.5-3.8,5.5-7.5,5.5
		c-4.6,0-9.2,0-13.8,0c-2.1,0-4.2,0.2-6-1c-0.3,2.1-0.6,4-0.9,6.2c1.1,0.1,2.2,0.3,3.3,0.3c9.4,0,18.9,0,28.3,0
		c0.6,0,1.2-0.1,1.7-0.1c0.6,0,0.7-0.3,0.7-0.8c-0.1-1.7-0.2-3.3-0.2-5c0-7.4,0.8-14.7,2.1-21.9c0.1-0.4,0-1-0.3-1.2
		c-1.1-0.8-1.6-1.9-1.8-3.2c-0.2-1.3-0.4-2.7-0.4-4.1c-0.2-3.4-0.8-6.7-2.4-9.7c-0.6-1-1.1-2.1-1.5-3.2c-0.6-1.5-1.2-3.1-1.6-4.7
		c-0.5-2.3,1.1-3.8,3.4-3.5c2,0.3,3.5,1.4,4.5,3c1.3,2.1,2.4,4.3,3.5,6.4c0.4,0.7,0.6,1.5,0.8,2c0.9-1.2,1.8-2.4,2.7-3.7
		c0.1-0.2,0.1-0.5,0.1-0.6c-1-2.3-1.7-4.7-3-6.8c-3.1-4.8-7.3-8.5-12.5-10.8c-1.7-0.8-3.5-1.5-5.2-2.3c-1.3-0.6-2.4-1.3-3.1-2.6
		c-0.1-0.2-0.5-0.4-0.7-0.4c-4.1,0-8.2,0-12.3,0c-0.3,0-0.7,0.3-0.8,0.6c-1.1,4.4-3.6,8.1-6.6,11.5C27.3,33.1,26.3,34.8,25,36.5z
		 M15.3,94.9c2.7,0,5.3,0,8,0c1.8,0,3.1-0.8,3.7-2.4c0.6-1.5,1.1-3.2,1.2-4.8c0.2-3.7,0.2-7.5,0-11.2c-0.3-6.4-1-12.8-2.8-19
		c-0.7-2.3-1.4-4.5-1.9-6.9C22.8,47.7,23,45,25.7,43c1.4-1,1.4-1.7,0.1-2.8c-1.3-1.1-2.8-1.9-4.2-2.9c-1-0.7-2.1-0.8-3.4-0.7
		c-1.9,0.1-3.8,0.1-5.7,0c-1.2-0.1-2.3,0-3.4,0.7c-1.5,1.1-3.1,2.1-4.6,3.2c-0.9,0.8-0.8,1.5,0.1,2.2c2.8,1.8,3.3,4.5,2.7,7.5
		c-0.6,2.8-1.5,5.6-2.3,8.4C2.6,67.9,2.3,77.4,2.5,87c0.1,1.9,0.7,3.7,1.3,5.5c0.6,1.6,1.8,2.4,3.7,2.4
		C10.1,94.8,12.7,94.9,15.3,94.9z M42.8,84.6c2.5,0,5,0,7.6,0c3.2,0,4.8-1.2,5.6-4.2c2.4-8.7,2.3-17.3,0.1-26
		C54.9,50,53,46,49.8,42.7c-1.7-1.8-3.7-3.1-6.3-3.3c-3.3-0.3-5.8,1.2-7.9,3.5c-3.7,3.8-5.5,8.5-6.6,13.6c-0.2,1.1-0.6,2.3-0.4,3.4
		c1.6,7.1,2.1,14.3,2.2,21.6c0,1.5,0.7,2.3,1.9,2.7c0.7,0.2,1.5,0.4,2.2,0.4C37.5,84.6,40.2,84.6,42.8,84.6z M82.9,44.7
		c-2.6,0-5,0-7.4,0c-1.3,0-2,0.5-2.4,1.6c-0.4,0.9-0.7,1.9-1,2.9c-2.9,9.1-4.7,18.5-5.5,28.1c-0.4,5.2-0.5,10.4,0,15.6
		c0.1,1.5,0.6,2,2.1,2c8,0,16.1,0,24.1,0c1.5,0,1.8-0.3,1.8-1.8c0-7.4,0-14.9,0-22.3c0-1.2-0.4-2.5-1-3.6C93,66,92.1,65,91.1,64
		c-1.9-1.9-4-3.7-6-5.5c-1.3-1.2-1.9-2.6-1.6-4.3c0.1-0.7,0.3-1.3,0.3-2c0-0.7,0-1.5-0.3-2C82.5,48.4,81.9,46.7,82.9,44.7z
		 M94.2,27.3c-3.9,0-7.8-0.2-11.7,0.1c-4.5,0.3-7.7,2.7-9.8,6.7c-0.8,1.5,0.2,3,1.9,3c2.2,0,4.5,0,6.7,0c0.3,0,0.6-0.3,0.8-0.6
		c0.6-1.1,1-2.2,1.7-3.2c0.7-1,1.8-0.8,2.3,0.3c0.3,0.7,0.6,1.4,0.8,1.9c0-1.1,0-2.4,0-3.7c0-0.7,0.4-1.2,1.1-1.4
		c1.6-0.5,3.3-0.9,4.9-1.3C94.3,28.8,94.4,28.8,94.2,27.3z M66.3,60.8c0.1,0,0.2,0,0.2,0c0.1-0.1,0.1-0.2,0.2-0.4
		c0.6-2.8,1.3-5.6,1.9-8.3c0.1-0.4,0.1-0.8,0-1.1c-0.7-3.5-1.9-6.9-3.8-9.9c-0.7-1.1-1.7-2.1-2.7-3c-0.4-0.3-1.1-0.3-1.7-0.4
		c0,0.5-0.1,1.1,0,1.6c0.8,2.1,1.7,4.1,2.7,6.2c1.1,2.4,2.2,4.8,2.4,7.5c0.1,1.3,0.2,2.6,0.3,4C66,58.2,66.2,59.5,66.3,60.8z
		 M41.7,17c1.8,0,3.6,0,5.4,0c3,0,2.5,0.4,2.6-2.6c0-1-0.4-1.3-1.3-1.3c-3.9,0-7.8,0-11.7,0c-3.3,0-2.7-0.5-2.8,2.8
		c0,0.8,0.3,1.1,1.1,1.1C37.2,17,39.4,17,41.7,17z M47,10.6c0-1.5,0-3,0-4.4c0-0.7-0.5-1-1.2-1c-2.7,0-5.4,0-8.1,0
		c-0.4,0-1.1,0.5-1.1,0.8c-0.1,1.5-0.1,3.1-0.1,4.6C40.1,10.6,43.5,10.6,47,10.6z M18.2,34.2c0-0.7,0.1-1.3,0-1.9
		c-0.1-0.3-0.5-0.6-0.8-0.6c-1.4-0.1-2.7,0-4.1,0c-0.6,0-0.9,0.2-0.9,0.8c0,0.4-0.1,0.8,0,1.1c0.1,0.2,0.3,0.6,0.5,0.6
		C14.7,34.3,16.4,34.2,18.2,34.2z M79.6,39.7c-2.8-0.3-3.1-0.1-3.2,2.5c1.2,0,2.4,0,3.7,0C79.9,41.3,79.7,40.5,79.6,39.7z
		 M15.8,26.2c-0.1,0-0.3,0-0.4,0c-0.5,0.9-1.3,1.7-1,3c0.7,0,1.5,0,2.5,0C16.5,28.2,16.1,27.2,15.8,26.2z"/>
	<path class="st0" d="M19.3,84.4c0.6-1.7,0.1-3-1.3-3.8c-0.6-0.3-1.2-0.5-1.8-0.7c-1.6-0.4-2.9-1.4-4-2.9c-0.4,2.7-0.3,5.1,0.7,7.5
		c0.5,1.1,1.6,1.6,2.7,1.9c0.4,0.1,1,0.1,1.2,0.4c0.3,0.4,0.7,1,0.6,1.4c-0.1,0.4-0.9,0.8-1.3,0.8c-3.3-0.3-5.4-2.1-6.2-5.3
		c-1.1-4.1-0.5-8,1.2-11.8c0.3-0.6,0.7-1.1,1.5-0.9c0.7,0.2,0.9,0.8,0.9,1.5c-0.1,3.1,0.8,4.4,3.8,5.3c3.8,1.1,5.4,4.4,4,8.3
		c-0.2,0.6-0.2,1,0.1,1.6c0.4,1,0.7,2.1,0.9,3.1c0.2,0.7-0.3,1.3-1,1.4c-0.7,0.1-1.2-0.2-1.3-0.9c-0.3-2.6-1.9-4.4-3.7-6.2
		c-0.9-0.9-1.8-1.7-2.6-2.6c-0.5-0.6-0.8-1.3,0-2c0.8-0.6,1.3-0.2,1.9,0.4C16.9,82,18.1,83.2,19.3,84.4z"/>
	<path class="st0" d="M15.4,65.1c5.1,0,9.4,4.1,9.7,9.2c0.1,1.1-0.3,1.7-1.2,1.7c-0.8,0-1.2-0.5-1.3-1.6c-0.2-4-3.3-7.1-7.2-7.1
		c-4,0-7.1,3-7.3,7.2c0,1-0.5,1.5-1.3,1.5c-0.8,0-1.2-0.5-1.2-1.6C5.7,69.4,10.2,65.1,15.4,65.1z"/>
	<path class="st0" d="M50.9,70.4c-1.8,1.4-3.9,1.5-6,1.2c-2.4-0.4-4.1,1-4.3,3.5c1.7-0.7,3.4-1.3,5-2c0.2-0.1,0.4-0.2,0.5-0.3
		c0.7-0.2,1.3-0.1,1.6,0.6c0.3,0.7,0.1,1.3-0.5,1.6c-1.3,0.6-2.6,1.1-3.8,1.6c-1.2,0.5-2.4,0.9-3.5,1.7C38.9,79,38,80,37.1,81
		c-0.5,0.6-1,1-1.8,0.6c-0.7-0.4-0.8-1.1-0.2-1.9c0.6-0.8,1.3-1.7,2.1-2.4c0.6-0.5,0.8-1,0.8-1.7c0.2-4.4,3.2-6.9,7.6-6.3
		c2.8,0.4,4.6-0.6,5.7-3.2c0.1-0.2,0.2-0.4,0.3-0.7c0.3-0.6,0.7-1,1.4-0.9c0.7,0.1,1,0.6,1,1.3c0.2,3.4-0.4,6.7-2,9.7
		c-0.5,0.9-1.1,1.8-1.7,2.6c-2.1,2.8-5,3.2-8.3,2.7c-0.7-0.1-1.2-0.6-1.1-1.4c0.1-0.8,0.6-1.1,1.4-1c3.9,0.6,5.7-0.3,7.9-5.1
		c0.4-0.9,0.6-1.8,1-2.7C51.1,70.6,51,70.5,50.9,70.4z"/>
	<path class="st0" d="M43.2,64.6c-3.9,0-6.5-3.7-5.3-7.6c0.2-0.6,0.5-1.1,0.7-1.7c1-2.2,2-4.4,2.9-6.6c0.3-0.8,0.7-1.5,1.6-1.4
		c0.9,0,1.3,0.7,1.6,1.5c0.9,2.2,1.9,4.4,2.9,6.5c0.7,1.5,1.2,2.9,1,4.6C48.2,62.6,45.9,64.6,43.2,64.6z M43.2,51.9
		c-0.9,1.7-1.8,3.3-2.6,5c-0.2,0.4-0.4,0.9-0.5,1.3c-0.4,1.9,0.8,3.5,2.7,3.8c1.8,0.2,3.5-1.1,3.5-3c0-0.8-0.3-1.7-0.6-2.4
		C44.8,55.1,44,53.5,43.2,51.9z"/>
	<path class="st0" d="M80.8,92.4c-2.4,0-4.8,0-7.2,0c-3.1,0-5-2.2-4.7-5.3c0.5-4.9,0.9-9.9,1.3-14.9c0.3-3.5,1.9-5,5.4-5
		c2.6,0,5.2,0,7.8,0c0.2,0,0.4,0,0.6,0c0.8,0,1.4,0.3,1.4,1.2c0,0.9-0.6,1.2-1.4,1.2c-2.8,0-5.6,0-8.4,0c-2.2,0-2.7,0.5-2.9,2.7
		c-0.4,5-0.9,9.9-1.3,14.9c-0.2,1.7,0.6,2.6,2.3,2.6c4.7,0,9.4,0,14.1,0c1.1,0,1.3-0.2,1.4-1.4c0-1.5,0-3,0-4.5
		c0-0.9,0.3-1.5,1.2-1.6c0.7-0.1,1.2,0.6,1.2,1.6c0,1.6,0,3.3,0,4.9c-0.1,2.2-1.4,3.4-3.6,3.5C85.7,92.4,83.2,92.4,80.8,92.4z"/>
	<path class="st0" d="M88.2,72.7c-1.4,2-3.5,2.5-5.8,2.9c-2.3,0.4-3.3,2.1-2.8,4.4c1.5-1.2,3-2.3,4.4-3.5c0.7-0.5,1.3-0.8,2-0.2
		c0.6,0.6,0.5,1.3-0.3,2c-1.2,1-2.4,2-3.7,2.9c-1.9,1.5-3.5,3.1-4.1,5.5c-0.2,0.8-0.8,1.1-1.6,0.9c-0.8-0.3-1.1-0.9-0.7-1.6
		c0.5-1.1,1-2.1,1.5-3.2c0.2-0.4,0.2-0.9,0.2-1.3c0-1.3-0.3-2.5-0.1-3.7c0.5-2.7,2.3-4.1,4.9-4.7c4.1-0.8,4.6-1.3,5.4-5.5
		c0.1-0.4,0.7-1.1,1.1-1.1c0.4,0,1.1,0.4,1.3,0.9c1.7,4.8,1.6,9.6-0.7,14.2c-1.4,2.7-3.9,3.4-6.7,3.6c-0.7,0-1.2-0.4-1.2-1.1
		c-0.1-0.7,0.3-1.3,1-1.3c4.2-0.2,5.4-2.4,6.2-7.2c0.1-0.9,0.1-1.8,0.2-2.7C88.4,72.8,88.3,72.8,88.2,72.7z"/>
</g>
</svg>
