<?xml version="1.0" encoding="utf-8"?>
<!-- Generator: Adobe Illustrator 19.2.1, SVG Export Plug-In . SVG Version: 6.00 Build 0)  -->
<svg version="1.1" id="Capa_1" xmlns="http://www.w3.org/2000/svg" xmlns:xlink="http://www.w3.org/1999/xlink" x="0px" y="0px"
	 viewBox="0 0 100 100" style="enable-background:new 0 0 100 100;" xml:space="preserve">
<style type="text/css">
	.st0{fill:#FFFFFF;}
</style>
<g>
	<path class="st0" d="M45.3,50.9c0.2-0.1,0.5-0.2,0.7-0.3c3.1-1.6,6.2-1.4,9.2,0.2c1.2,0.6,2.3,1.4,3.4,2.2c0.9,0.6,1.8,1.2,2.7,1.8
		c2.1,1.3,4.2,1.1,6.2-0.3c0.2-0.2,0.4-0.3,0.7-0.5c0.8-0.4,1.6-0.3,2.1,0.4c0.5,0.7,0.4,1.5-0.2,2.1c-2.4,2.3-6,3-9,1.6
		c-1.3-0.6-2.5-1.4-3.8-2.2c-1.1-0.7-2.2-1.5-3.3-2.1c-2.4-1.4-4.8-1.4-7.2,0.1c-1.5,0.9-2.9,2-4.4,2.9c-1.5,0.8-3,1.5-4.6,1.9
		c-2.5,0.6-4.9-0.2-7.1-1.5c-1.4-0.8-2.7-1.7-4-2.7C23.5,52.1,20.3,52,17,54c-2,1.2-3.9,2.5-6,3.5c-4,2-7.8,1-10.4-2.5
		C0,54.3,0,53.4,0.6,52.8c0.6-0.6,1.5-0.5,2.2,0.1c0,0,0,0,0.1,0.1c3,3.5,5.2,2.8,8.3,1c1.9-1.1,3.8-2.4,5.8-3.4
		c1.3-0.6,2.8-0.8,4.1-1.2c0.4-0.1,0.8-0.2,1-0.5c0.9-0.9,1.8-1.9,2.7-2.9c1.4-1.5,2.1-3.2,2.1-5.3c0-4,1.7-7.1,5.1-9.2
		c1.9-1.1,3-2.8,3.5-5c0.8-3.5,3-5.8,6.4-7.1c0.7-0.2,1.3-0.4,2.1-0.7c-0.9-1.3-0.3-2.2,0.7-3.1c4.7-4.3,9.3-8.7,14-13
		C60.7,0.9,62.9,0,65.6,0c10.7,0,21.5,0,32.2,0c1.6,0,2.1,0.5,2.1,2.1c0,4.5,0,9,0,13.5c0,1.5-0.5,2.1-2.1,2.1c-9.3,0-18.7,0-28,0
		c-0.7,0-1.3,0.2-1.8,0.7c-3.4,3.1-6.8,6.2-10.1,9.4c-1.6,1.6-3.2,3-5.2,4.1c-1.4,0.8-1.9,2.1-1.9,3.7c0.1,2.1-0.5,4-2,5.6
		c-0.5,0.5-1.2,0.9-1.8,1.3c-1.6,1-2.2,2.4-2.1,4.2C45.1,48.1,45.2,49.4,45.3,50.9z M55.2,26c0.5-0.5,0.9-0.9,1.4-1.2
		c3.3-3.1,6.7-6.1,10-9.2c0.7-0.7,1.5-1,2.5-1c8.8,0,17.7,0,26.5,0c0.4,0,0.8,0,1.2,0c0-3.9,0-7.6,0-11.4c-0.3,0-0.5,0-0.8,0
		c-10.2,0-20.4,0-30.5,0c-1.7,0-3.2,0.6-4.5,1.8c-3.6,3.4-7.2,6.7-10.8,10c-0.9,0.9-1.9,1.7-2.9,2.7C50,20.4,52.5,23.2,55.2,26z
		 M52.9,28.1c-0.5-0.5-0.8-1-1.3-1.3c-0.2-0.2-0.6-0.3-0.9-0.2c-1.1,0.3-2.2,0.7-3.3,1.1c-1.9,0.8-3.1,2.3-3.4,4.4
		c-0.5,3.3-2.2,5.7-5.1,7.5c-1.4,0.8-2.4,2-2.7,3.6c-0.2,0.9-0.2,1.9-0.2,2.9c0,2.4-0.7,4.5-2.3,6.3c-0.6,0.6-1.1,1.2-1.7,1.9
		c2.9,1.9,5.7,1.7,8.4-0.1c0.9-0.6,1.4-1.3,1.5-2.3c0-1.5,0.1-3.1-0.1-4.6c-0.3-3,0.7-5.5,3.3-7.1c1.8-1.1,2.6-2.5,2.6-4.7
		c-0.1-2.8,1.2-4.9,3.5-6.3C51.8,28.8,52.3,28.5,52.9,28.1z M48.8,23.8c-2.1-2.6-2.1-2.6-5-1.6c-0.4,0.1-0.8,0.2-1.1,0.4
		c-2.1,0.9-3.6,2.5-4.1,4.7c-0.6,3-2.2,5.3-4.8,6.8C31.2,35.8,30,38,30,41c0,2.8-1,5.2-2.9,7.2c-0.6,0.6-1.1,1.2-1.7,1.8
		c1.4,0.8,2.7,1.6,4,2.3c2.4-2,3.8-4.4,3.6-7.7c-0.2-3.4,1.5-6,4.4-7.8c2-1.2,3.1-2.9,3.6-5.3c0.6-3.4,2.7-5.8,5.9-7
		C47.5,24.3,48.1,24.1,48.8,23.8z"/>
	<path class="st0" d="M67.3,99.3c-0.8-0.1-2.2-0.3-3.6-0.5c-0.5-0.1-1.1,0-1.6-0.1c-0.3,0-0.6,0-0.9-0.1c-1.9-0.9-3.7-1.8-5.6-2.7
		c-1.7-0.8-2.7-2-2.7-3.9c0-1.8,1-3.1,2.7-3.8c3.1-1.5,6.3-2.8,9.8-3.2c0.3,0,0.6-0.4,0.8-0.7c0.7-1,1.3-2.2,2-3.1
		c1.9-2.4,4.4-1.9,5.4,0.9c0.3,0.8,0.4,1.8,0.7,2.6c0.1,0.3,0.4,0.7,0.8,0.9c1.8,0.7,3.6,1.3,5.4,2c0.5,0.2,0.9,0.2,1.4-0.1
		c1.3-0.9,2.6-1.8,3.9-2.7c1.2-0.8,2.5-0.8,3.6,0c1,0.8,1.5,2.3,0.8,3.5c-1.5,2.6-1.5,5,0,7.6c0.7,1.2,0.2,2.7-0.8,3.6
		c-1.1,0.8-2.3,0.8-3.6,0c-1.2-0.8-2.4-1.6-3.5-2.5c-0.7-0.5-1.3-0.6-2.1-0.2C76.3,98.6,72.3,99.4,67.3,99.3z M64.4,95.7
		c0.2,0.1,0.2,0.2,0.3,0.2c5.8,1,11.1-0.2,16.2-3.1c0.6-0.4,0.6-1.1-0.1-1.5c-4.3-2.4-9-3.7-14-3.3c-0.9,0.1-1.7,0.2-2.6,0.3
		C65.2,92.3,65.2,92.4,64.4,95.7z M61.1,89.1c-1.6,0.7-3,1.3-4.5,2c-0.7,0.4-0.8,1.4-0.1,1.7c1.5,0.8,3.1,1.4,4.7,2.1
		C62.1,93,62,91.1,61.1,89.1z M87,87.7c-1,0.7-1.9,1.3-2.6,1.9c-0.2,0.1-0.3,0.5-0.3,0.6c0.6,1.4,0.5,2.7-0.1,4.1
		c0.9,0.7,1.9,1.3,2.8,2c-0.2-1.1-0.6-2-1-3c-0.4-0.8-0.4-1.5,0-2.3C86.1,89.9,86.5,89,87,87.7z M70.7,82.9
		c-0.5,0.7-0.8,1.2-1.3,1.8c0.7,0,1.1,0.1,1.7,0.1C71.1,84.2,70.9,83.7,70.7,82.9z"/>
	<path class="st0" d="M5,82.2c0.1-1.6,0.7-2.9,2.2-3.6c3.2-1.6,6.6-3.1,10.2-3.5c0.3,0,0.7-0.4,0.9-0.7c0.7-1,1.2-2.1,2-3
		c1.8-2.2,4.2-1.8,5.3,0.9c0.3,0.8,0.4,1.8,0.7,2.6c0.1,0.3,0.4,0.7,0.7,0.8c1.9,0.7,3.8,1.4,5.7,2.1c0.5,0.2,0.9,0.2,1.4-0.1
		c1.2-0.9,2.4-1.7,3.6-2.6c1.2-0.8,2.5-0.8,3.6,0c1.1,0.9,1.6,2.3,0.8,3.5c-1.5,2.6-1.5,5,0,7.6c0.7,1.2,0.3,2.6-0.8,3.5
		c-1.1,0.9-2.3,0.9-3.6,0.1c-1.3-0.9-2.6-1.8-3.9-2.8c-0.6-0.4-1.1-0.5-1.7-0.2c-4.3,2.1-8.8,3-13.5,2.6c-1-0.1-2-0.3-3-0.4
		c-0.5-0.1-1,0-1.5,0c-0.3,0-0.6,0-0.9-0.2c-1.9-0.9-3.9-1.9-5.8-2.8C5.8,85.3,5,84,5,82.2z M16.3,86c0.7,0.1,1.3,0.2,1.8,0.3
		c5.2,0.6,10-0.7,14.6-3.2c0.6-0.3,0.7-0.9,0.3-1.3c-0.5-0.5-1.2-0.8-1.9-1.1c-2.2-1.1-4.4-1.8-6.8-2.2c-2.7-0.5-5.4-0.4-8.2,0.1
		C17.1,81,17.2,83.4,16.3,86z M13.3,85.3c0.8-2,0.7-3.9-0.2-5.9c-1.6,0.7-3.1,1.4-4.5,2.1c-0.7,0.4-0.7,1.3,0.1,1.7
		C10.1,83.9,11.7,84.5,13.3,85.3z M35.8,84.6c1,0.7,1.9,1.3,2.8,2c-0.1-0.9-0.4-1.8-0.8-2.5c-0.5-1.1-0.6-2.1,0-3.2
		c0.4-0.8,0.7-1.7,1.1-2.8c-1.2,0.8-2.1,1.5-3,2.1C36.7,81.8,36.5,83.2,35.8,84.6z M22.7,73.3c-0.5,0.7-0.7,1.1-1.1,1.7
		c0.6,0,1,0,1.6,0C23,74.5,22.9,74.1,22.7,73.3z"/>
	<path class="st0" d="M33.2,16.7c0,9.1-7.4,16.5-16.5,16.6C7.6,33.3,0.2,26,0.1,16.9C0.1,7.7,7.3,0.3,16.5,0.2
		C25.7,0.2,33.1,7.5,33.2,16.7z M16.6,30.1C24,30.1,30,24.2,30,16.8c0-7.4-5.9-13.5-13.3-13.5c-7.4,0-13.5,6-13.5,13.4
		C3.2,24.1,9.2,30.1,16.6,30.1z"/>
	<path class="st0" d="M54.4,60.9c0,1.1-1,1.9-2,1.6c-2.6-0.9-4.7-0.1-6.8,1.5c-1.8,1.5-3.6,2.9-5.9,3.7C37,68.7,34.4,68.5,32,67
		c-1.3-0.8-2.6-1.7-3.8-2.6c-2.6-1.9-5.4-2.2-8.3-0.9c-2.1,1-4.1,2.1-6.1,3.1c-2.2,1.1-4.5,2-7.1,1.7C4,68,2,66.6,0.4,64.6
		c-0.5-0.6-0.4-1.4,0.2-2c0.6-0.6,1.4-0.6,2-0.1c0.4,0.4,0.8,0.8,1.3,1.2c1.7,1.5,3.6,2,5.7,1.1c1.6-0.6,3.1-1.5,4.7-2.2
		c1.9-0.9,3.7-1.9,5.6-2.6c3.2-1.2,6.4-0.7,9.3,1.2c1.2,0.8,2.3,1.5,3.4,2.4c2.6,2,5.3,2,8,0.2c1.5-1,2.9-2.1,4.4-3.1
		c2.5-1.8,5.2-2.3,8.2-1.2C53.9,59.8,54.3,60.3,54.4,60.9z"/>
	<path class="st0" d="M64.7,71c-0.8,0.4-1.8,0.5-1.7,1.8c0,0.2-0.7,0.8-1,0.8c-0.4,0-0.8-0.5-1.1-0.9c-0.2-0.2-0.1-0.6-0.1-1
		c-0.7-0.3-1.4-1-2.3,0c-0.2,0.2-1,0.1-1.2-0.1c-0.3-0.3-0.2-0.9-0.2-1.4c0-0.2,0.4-0.5,0.6-0.7c-0.1-0.8-0.5-1.1-1.3-1.1
		c-1,0-1.6-0.7-1.6-1.6c0-0.9,0.7-1.4,1.7-1.5c0.3,0,0.6-0.2,1-0.3c-0.2-0.3-0.3-0.6-0.5-0.9c-0.6-0.7-0.7-1.5-0.1-2.2
		c0.6-0.7,1.5-0.7,2.3-0.1c0.3,0.2,0.7,0.4,1,0.5c0.1-0.4,0.3-0.7,0.3-1.1c0.1-1,0.7-1.5,1.6-1.5c0.9,0,1.4,0.6,1.5,1.6
		c0,0.4,0.2,0.7,0.3,1.1c0.4-0.2,0.8-0.3,1.1-0.5c0.9-0.6,1.8-0.6,2.4,0c0.6,0.7,0.5,1.6-0.3,2.3c-0.2,0.2-0.3,0.5-0.5,0.8
		c0.3,0.1,0.6,0.2,0.9,0.3c1.2,0.1,2,0.7,1.9,1.6c0,0.9-0.7,1.5-2,1.6c-0.3,0-0.7,0.2-0.9,0.5c-0.1,0.1,0.1,0.6,0.2,0.8
		c0.5,0.6,0.8,1.2,0.2,1.8c-0.7,0.7-1.3,0.3-1.8-0.3C65,71.2,64.9,71.1,64.7,71z M60.3,66.8c0,1,0.7,1.8,1.6,1.8
		c1,0,1.8-0.8,1.8-1.8c0-1-0.7-1.7-1.7-1.7C61,65.1,60.3,65.8,60.3,66.8z"/>
	<path class="st0" d="M74.6,48.4C74.4,48.2,74,48,74,47.7c-0.1-0.4-0.1-1,0.2-1.3c0.2-0.2,1.1-0.4,1.2-0.2c0.8,0.9,1.5,0.4,2.3,0
		c0-0.8-0.1-1.9,1.2-1.8c1.1,0,1,1,1.1,1.9c0.5,0.2,1,0.5,1.6,0.7c0.2-0.2,0.4-0.4,0.6-0.6c0.5-0.5,1.1-0.5,1.6,0
		c0.5,0.5,0.4,1-0.1,1.6c-0.2,0.3-0.5,0.5-0.5,0.8c0,0.5,0.4,0.8,1,0.8c0.5,0,1.2,0.1,1.6,0.5c0.3,0.3,0.5,1.1,0.3,1.5
		c-0.2,0.5-0.8,0.8-1.3,1.1c-0.4,0.2-0.8,0-1.6,0c0.3,0.5,0.5,0.8,0.7,1c0.8,0.9,0.9,1.8,0.2,2.4c-0.6,0.7-1.5,0.6-2.4-0.2
		c-0.2-0.2-0.6-0.3-0.9-0.4c-0.1,0.3-0.3,0.6-0.3,0.9c-0.1,1.1-0.7,1.7-1.6,1.7c-0.9,0-1.4-0.6-1.5-1.7c0-0.3-0.2-0.6-0.3-1
		c-0.3,0.2-0.6,0.3-0.9,0.5c-0.8,0.6-1.7,0.7-2.3,0c-0.6-0.7-0.6-1.5,0.1-2.3c0.2-0.3,0.3-0.6,0.4-0.9c-0.3-0.1-0.6-0.2-0.9-0.3
		c-1.1-0.1-1.7-0.7-1.7-1.6c0-0.9,0.6-1.5,1.7-1.6C74.2,49.4,74.2,49.4,74.6,48.4z M77.1,51.1c0,1,0.8,1.8,1.7,1.8
		c0.9,0,1.7-0.8,1.8-1.7c0-1-0.8-1.8-1.8-1.8C77.8,49.3,77.1,50.1,77.1,51.1z"/>
	<path class="st0" d="M93.2,68.2c-2.3,0-4.2-0.7-6-1.5c-1.9-0.9-3.8-1.8-5.7-2.7c-2.5-1.1-5.1-1.8-7.8-0.4c-0.8,0.4-1.6-0.1-1.9-0.8
		c-0.3-0.8-0.1-1.6,0.8-2c2.4-1.2,4.8-1.4,7.3-0.5c2.2,0.7,4.2,1.7,6.4,2.6c1.8,0.7,3.5,1.5,5.4,2.1c2,0.6,3.7,0,5.1-1.6
		c0.3-0.3,0.6-0.7,1-0.9c0.7-0.4,1.3-0.2,1.8,0.3c0.6,0.6,0.6,1.4,0,2C97.9,66.9,95.8,68.2,93.2,68.2z"/>
	<path class="st0" d="M92,58.5c-0.7-0.1-1.4-0.1-2.1-0.3c-0.9-0.2-1.3-0.9-1.2-1.7c0.1-0.8,0.9-1.4,1.7-1.3c2.8,0.5,5-0.3,7-2.3
		c0.6-0.6,1.5-0.5,2.1,0.1c0.6,0.6,0.6,1.5,0,2.2C97.8,57.1,94.9,58.4,92,58.5z"/>
	<path class="st0" d="M15.1,19.5c-1.9,1.1-3.5,2-5.2,3c-1.3,0.7-2.1,0.5-2.7-0.8c-1.8-3.4-1.5-6.8,0.2-10.1c0.5-1,1.3-1.2,2.3-0.6
		c1.5,0.8,2.9,1.7,4.4,2.5c0.3,0.2,0.6,0.3,1,0.6c0-1.8,0.1-3.4,0-5c-0.2-3.4,1.2-3.1,3.3-2.8c3.1,0.5,5.4,2.2,7.1,4.8
		c0.8,1.2,0.6,2-0.7,2.7c-1.6,1-3.2,1.9-5,3c1.5,0.9,2.8,1.7,4.2,2.4c2.8,1.4,2.1,2.5,0.8,4.1c-1.9,2.5-4.5,3.8-7.6,4
		c-1.5,0.1-2.1-0.5-2.1-2C15.1,23.4,15.1,21.5,15.1,19.5z M9.4,19.1c1.4-0.8,2.7-1.5,4.1-2.4c-1.4-0.8-2.7-1.5-4-2.3
		C8.9,16,8.9,17.4,9.4,19.1z M22.1,11.7c-1.1-1.2-2.3-2-3.8-2.3c0,1.5,0,3,0,4.6C19.6,13.2,20.8,12.4,22.1,11.7z M18.3,23.7
		c0.1,0.1,0.2,0.2,0.2,0.3c1.2-0.7,2.4-1.4,3.8-2.3c-1.5-0.9-2.7-1.6-4.1-2.3C18.3,21,18.3,22.4,18.3,23.7z"/>
</g>
</svg>
