<?xml version="1.0" encoding="utf-8"?>
<!-- Generator: Adobe Illustrator 19.2.1, SVG Export Plug-In . SVG Version: 6.00 Build 0)  -->
<svg version="1.1" id="Capa_1" xmlns="http://www.w3.org/2000/svg" xmlns:xlink="http://www.w3.org/1999/xlink" x="0px" y="0px"
	 viewBox="0 0 100 100" style="enable-background:new 0 0 100 100;" xml:space="preserve">
<style type="text/css">
	.st0{fill:#FFFFFF;}
</style>
<g>
	<path class="st0" d="M100,26.9c-2.9,0-5.7,0-8.6-0.1c-0.4,0-0.8,0-1.4,0c0-1.1,0-2.2,0-3.3c-1.8,0-3.6,0-5.3,0
		c-0.8,0-1.3,0.6-1.4,1.4c-0.1,0.6,0,1.2,0,1.8c1.1,0,2.1,0,3.2,0c0,3.4,0,6.6,0,10c-1.1,0-2.1,0-3.2,0c-0.2,1.5-0.3,2.9-0.5,4.3
		C81,51.7,75.7,60.2,67,66.5c-0.6,0.4-1,1.1-1.3,1.7c-0.8,2-1,4.2-0.8,6.3c0.1,1.1,0.2,2.3,0,3.4c-0.4,2.8-3,4.7-5.6,4.4
		c-2.8-0.3-4.5-2.5-4.3-5.5c0.1-1.9-2.1-4-4-3.8c-1.4,0.2-2.6,0.4-3.7,1.5c-1.4,1.5-2.5,3.3-2.8,5.4C44,82.5,44.6,85,45,87.6
		c0.2,1.3,0.4,2.7,0.6,4.1c0.4,4-2.3,7.4-6.2,8.1c-3.8,0.7-7.6-2.2-8.5-6.4c-0.4-2,0.1-3.9,0.7-5.8c0.6-2,1.3-4.1,1.9-6.1
		c0.4-1.2,0.1-2.4-0.5-3.5c-1.6-2.8-3.9-5.1-6.2-7.4c-0.2-0.2-0.5-0.3-0.8-0.4C13.5,64.2,6.1,54.4,3.7,40.8
		c-0.1-0.6-0.2-1.3-0.2-1.9c-0.1-0.6-0.1-1.3-0.2-2c-1.1,0-2.1,0-3.3,0c0-3.4,0-6.6,0-10c1,0,2.1,0,3.2,0c0-5.6,0-11.1,0-16.7
		c-1.1,0-2.1,0-3.2,0c0-3.4,0-6.7,0-10c10,0,19.9,0,29.9,0c0,3.3,0,6.5,0,9.9c-1,0-2.1,0-3.2,0c0,5.6,0,11.1,0,16.7
		c1.1,0,2.1,0,3.2,0c0,3.4,0,6.6,0,10c-1.1,0-2.1,0-3.2,0c0.3,1.1,0.4,2.1,0.7,3c2,6.1,7.7,10.3,14.2,10.3c3,0,5.9,0.2,8.8-1
		c5.3-2.2,8.5-6.1,9.5-11.8c0-0.1,0-0.3,0-0.5c-1,0-2,0-3.1,0c0-3.3,0-6.6,0-10c1.1,0,2.1,0,3.3,0c0-2.7-0.1-5.3,0-7.9
		c0-1.4,0.1-2.7,0.5-4.1C62.1,8.2,68,3.5,74.9,3.5c4.7,0,9.3,0,14,0c0.3,0,0.7,0,1.1,0c0-1.1,0-2.2,0-3.3c3.4,0,6.7,0,10,0
		C100,9,100,18,100,26.9z M63.3,36.9c-0.1,0.4-0.1,0.6-0.2,0.9c-1.2,7.2-5.3,12-12,14.6c-3.1,1.2-6.5,1.1-9.7,1
		c-4.9-0.1-9.1-1.9-12.6-5.3c-3.1-3.1-4.8-6.9-5.4-11.3c-5.6,0-11.1,0-16.7,0c0.7,9.7,4.5,17.8,11.6,24.3c4.9,4.4,10.6,7.2,17.3,8.4
		c-0.6-1.5-1.1-2.8-1.6-4c-0.2-0.5-0.7-1-1.2-1.3c-1.7-0.9-3.5-1.8-5.3-2.7c0.5-1,1-2,1.5-3c1.1,0.5,2.2,0.9,3,1.6
		c2,1.4,3.7,1.3,5.7,0c2-1.3,4.2-2.2,6.4-3.2c0.5,1,1,2,1.5,3c-2.9,1.5-5.8,2.9-8.6,4.3c0.7,1.8,1.4,3.5,2.1,5.2
		c0.1,0.2,0.5,0.5,0.8,0.5c3.3-0.1,6.7,0.2,9.9-0.3c14.8-2.2,25.9-12.7,29.2-27.2c0.4-1.8,0.6-3.7,0.9-5.7
		C74.3,36.9,68.8,36.9,63.3,36.9z M63.3,26.8c0.5,0,0.8,0,1.1,0c4.8,0,9.6,0,14.4,0c1,0,1.3-0.3,1.2-1.3c-0.1-2,0.6-3.7,2.4-4.7
		c0.9-0.5,2-0.7,3.1-0.8c1.5-0.1,3,0,4.5,0c0-4.5,0-8.9,0-13.3c-0.2,0-0.3-0.1-0.4-0.1c-5,0-10-0.1-14.9,0
		c-5.2,0.1-9.8,3.8-10.9,8.9c-0.4,1.8-0.3,3.7-0.4,5.5C63.3,23.1,63.3,24.9,63.3,26.8z M23.2,10.2c-5.6,0-11.1,0-16.5,0
		c0,5.6,0,11,0,16.5c5.6,0,11,0,16.5,0C23.2,21.2,23.2,15.7,23.2,10.2z M33.5,72.8c0.7,1,1.4,2.1,2.1,3.2c1.1,1.8,1.6,3.8,1.1,6
		c-0.4,1.7-1,3.3-1.5,4.9c-0.4,1.5-1,3-1.2,4.5c-0.3,1.9,0.6,3.4,2.2,4.5c1.4,0.9,2.7,0.7,4-0.1c1.6-1,2.2-2.4,1.9-4.3
		c-0.3-2-0.7-4-0.9-6.1c-0.6-4.1-0.4-8.1,2.2-11.7c0-0.1,0-0.2,0-0.2C40.1,73.4,36.8,73.1,33.5,72.8z M3.3,6.7c7.8,0,15.5,0,23.3,0
		c0-1.1,0-2.1,0-3.2c-7.8,0-15.5,0-23.3,0C3.3,4.6,3.3,5.6,3.3,6.7z M26.6,30.2c-7.8,0-15.5,0-23.2,0c0,1.1,0,2.1,0,3.2
		c7.8,0,15.5,0,23.2,0C26.6,32.4,26.6,31.3,26.6,30.2z M83.3,30.2c-7.8,0-15.5,0-23.2,0c0,1.1,0,2.2,0,3.2c7.8,0,15.5,0,23.2,0
		C83.3,32.3,83.3,31.3,83.3,30.2z M93.4,3.5c0,6.7,0,13.3,0,19.9c1.1,0,2.1,0,3.2,0c0-6.7,0-13.3,0-19.9C95.5,3.5,94.5,3.5,93.4,3.5
		z M56.3,71.9c1.7,2.3,1.7,2.3,2,5.6c0,0.5,0.5,1.2,0.9,1.4c0.4,0.2,1.2,0.1,1.6-0.2c0.4-0.4,0.8-1.1,0.8-1.6c0.1-2.4,0-4.8,0-7.2
		C59.9,70.5,58.1,71.2,56.3,71.9z"/>
	<path class="st0" d="M16.7,40.2c1.1,0,2.1,0,3.2,0c0,1.1,0,2.1,0,3.2c-1.1,0-2.1,0-3.2,0C16.7,42.4,16.7,41.3,16.7,40.2z"/>
	<path class="st0" d="M70,21.8c-1.1,0-2.2,0-3.2,0c-1-6.7,2.1-12.6,11.5-11.6c0,0.5,0,1,0,1.6c0,0.5,0,1,0,1.7c-1,0-2,0-3,0
		c-3.3,0-5.3,2.1-5.4,5.4C70,19.8,70,20.7,70,21.8z"/>
	<path class="st0" d="M81.7,13.4c0-1.1,0-2.1,0-3.2c1,0,2.1,0,3.2,0c0,1,0,2.1,0,3.2C83.8,13.4,82.8,13.4,81.7,13.4z"/>
	<path class="st0" d="M16.7,13.5c1.1,0,2.1,0,3.2,0c0,3.3,0,6.6,0,9.9c-1.1,0-2.1,0-3.2,0C16.7,20.1,16.7,16.9,16.7,13.5z"/>
</g>
</svg>
